<svg xmlns="http://www.w3.org/2000/svg" xmlns:xlink="http://www.w3.org/1999/xlink" viewBox="0 0 854.65 598.78"><defs><style>.cls-1{fill:none;}.cls-2{isolation:isolate;}.cls-3{fill:url(#radial-gradient);}.cls-4{opacity:0.66;mix-blend-mode:soft-light;fill:url(#radial-gradient-2);}.cls-5{clip-path:url(#clip-path);}.cls-6{fill:url(#linear-gradient);}.cls-7{fill:url(#linear-gradient-2);}.cls-8{fill:url(#linear-gradient-3);}.cls-9{fill:url(#linear-gradient-4);}.cls-10{fill:url(#linear-gradient-5);}.cls-11{fill:url(#linear-gradient-6);}.cls-12{fill:url(#linear-gradient-7);}.cls-13{fill:url(#linear-gradient-8);}.cls-14{fill:url(#linear-gradient-9);}.cls-15{fill:url(#linear-gradient-10);}.cls-16{fill:url(#linear-gradient-11);}.cls-17{fill:url(#linear-gradient-12);}.cls-18{fill:url(#linear-gradient-13);}.cls-19{fill:url(#linear-gradient-14);}.cls-20{fill:url(#linear-gradient-15);}.cls-21{fill:url(#linear-gradient-16);}.cls-22{fill:url(#linear-gradient-17);}.cls-23{fill:url(#linear-gradient-18);}.cls-24{fill:url(#linear-gradient-19);}.cls-25{fill:url(#linear-gradient-20);}.cls-26{fill:url(#linear-gradient-21);}.cls-27{fill:url(#linear-gradient-22);}.cls-28{fill:url(#linear-gradient-23);}.cls-29{fill:url(#linear-gradient-24);}.cls-30{fill:url(#linear-gradient-25);}.cls-31{fill:url(#linear-gradient-26);}.cls-32{fill:url(#linear-gradient-27);}.cls-33{fill:url(#linear-gradient-28);}.cls-34{fill:url(#linear-gradient-29);}.cls-35{fill:url(#linear-gradient-30);}.cls-36{fill:url(#linear-gradient-31);}.cls-37{fill:url(#linear-gradient-32);}.cls-38{fill:url(#linear-gradient-33);}.cls-39{fill:url(#linear-gradient-34);}.cls-40{fill:url(#linear-gradient-35);}.cls-41{fill:url(#linear-gradient-36);}.cls-42{fill:url(#linear-gradient-37);}.cls-43{fill:url(#linear-gradient-38);}.cls-44{fill:url(#linear-gradient-39);}.cls-45{fill:url(#linear-gradient-40);}.cls-46{fill:url(#linear-gradient-41);}.cls-47{mix-blend-mode:multiply;fill:url(#radial-gradient-3);}</style><radialGradient id="radial-gradient" cx="375" cy="-10" r="703.03" gradientTransform="translate(54.26 51.69) scale(1 0.78)" gradientUnits="userSpaceOnUse"><stop offset="0" stop-color="#4d4d4d"/><stop offset="1" stop-color="#171717"/></radialGradient><radialGradient id="radial-gradient-2" cx="391" cy="235" r="517.92" gradientTransform="matrix(0.76, -0.65, 0.43, 0.51, -9.31, 367.58)" gradientUnits="userSpaceOnUse"><stop offset="0" stop-color="#fff" stop-opacity="0"/><stop offset="0.1" stop-color="#fff" stop-opacity="0.02"/><stop offset="0.23" stop-color="#fff" stop-opacity="0.08"/><stop offset="0.36" stop-color="#fff" stop-opacity="0.17"/><stop offset="0.5" stop-color="#fff" stop-opacity="0.31"/><stop offset="0.65" stop-color="#fff" stop-opacity="0.48"/><stop offset="0.81" stop-color="#fff" stop-opacity="0.69"/><stop offset="0.96" stop-color="#fff" stop-opacity="0.94"/><stop offset="1" stop-color="#fff"/></radialGradient><clipPath id="clip-path" transform="translate(54.26 53.88)"><rect class="cls-1" width="750" height="500"/></clipPath><linearGradient id="linear-gradient" x1="1010.05" y1="-1067.14" x2="1115.55" y2="-1046.46" gradientTransform="translate(1305.72 1363.33) rotate(-100.34)" gradientUnits="userSpaceOnUse"><stop offset="0" stop-color="#171717"/><stop offset="0.45" stop-color="#222"/><stop offset="1" stop-color="#2c2c2c"/></linearGradient><linearGradient id="linear-gradient-2" x1="1199.42" y1="-976.13" x2="1081.96" y2="-1061.12" gradientTransform="translate(1305.72 1363.33) rotate(-100.34)" gradientUnits="userSpaceOnUse"><stop offset="0" stop-color="#171717"/><stop offset="0.5" stop-color="#353535"/><stop offset="1" stop-color="#585858"/></linearGradient><linearGradient id="linear-gradient-3" x1="567.22" y1="-272.58" x2="686.62" y2="-249.17" gradientTransform="translate(680.83 884.77) rotate(-60.99)" xlink:href="#linear-gradient"/><linearGradient id="linear-gradient-4" x1="781.57" y1="-169.56" x2="648.61" y2="-265.76" gradientTransform="translate(680.83 884.77) rotate(-60.99)" xlink:href="#linear-gradient-2"/><linearGradient id="linear-gradient-5" x1="1848.17" y1="521.65" x2="1727.21" y2="434.13" gradientTransform="matrix(-0.97, 0.23, -0.23, -0.97, 2376.06, 102.77)" xlink:href="#linear-gradient-2"/><linearGradient id="linear-gradient-6" x1="1469.18" y1="-583.56" x2="1540.24" y2="-569.62" gradientTransform="translate(1977.66 1110.79) rotate(-128.19)" xlink:href="#linear-gradient"/><linearGradient id="linear-gradient-7" x1="1596.74" y1="-522.25" x2="1517.62" y2="-579.5" gradientTransform="translate(1977.66 1110.79) rotate(-128.19)" xlink:href="#linear-gradient-2"/><linearGradient id="linear-gradient-8" x1="1249.7" y1="-724.3" x2="1321.36" y2="-710.25" gradientTransform="translate(1186.57 1484.56) rotate(-100.5)" xlink:href="#linear-gradient"/><linearGradient id="linear-gradient-9" x1="1378.34" y1="-662.47" x2="1298.55" y2="-720.21" gradientTransform="translate(1186.57 1484.56) rotate(-100.5)" xlink:href="#linear-gradient-2"/><linearGradient id="linear-gradient-10" x1="279.88" y1="-557.46" x2="365.76" y2="-540.62" gradientTransform="matrix(0.69, -0.49, 0.58, 0.82, 416.52, 989.21)" xlink:href="#linear-gradient"/><linearGradient id="linear-gradient-11" x1="428.42" y1="-487.89" x2="342.38" y2="-550.14" gradientTransform="matrix(0.69, -0.49, 0.58, 0.82, 416.52, 989.21)" xlink:href="#linear-gradient-2"/><linearGradient id="linear-gradient-12" x1="91.15" y1="-282.17" x2="183.56" y2="-264.06" gradientTransform="matrix(0.95, -0.06, -0.06, -1, -23.99, 52.69)" xlink:href="#linear-gradient"/><linearGradient id="linear-gradient-13" x1="255.88" y1="-202.2" x2="152.97" y2="-276.66" gradientTransform="matrix(0.95, -0.06, -0.06, -1, -23.99, 52.69)" xlink:href="#linear-gradient-2"/><linearGradient id="linear-gradient-14" x1="476.97" y1="-842.98" x2="566.55" y2="-825.42" gradientTransform="matrix(0.59, -0.81, 0.81, 0.59, 566.08, 1356.28)" xlink:href="#linear-gradient"/><linearGradient id="linear-gradient-15" x1="637.78" y1="-765.7" x2="538.03" y2="-837.87" gradientTransform="matrix(0.59, -0.81, 0.81, 0.59, 566.08, 1356.28)" xlink:href="#linear-gradient-2"/><linearGradient id="linear-gradient-16" x1="332.09" y1="-845.36" x2="408.97" y2="-830.28" gradientTransform="matrix(0.59, -0.81, 0.81, 0.59, 566.08, 1356.28)" xlink:href="#linear-gradient"/><linearGradient id="linear-gradient-17" x1="470.1" y1="-779.03" x2="384.49" y2="-840.97" gradientTransform="matrix(0.59, -0.81, 0.81, 0.59, 566.08, 1356.28)" xlink:href="#linear-gradient-2"/><linearGradient id="linear-gradient-18" x1="154.2" y1="351.09" x2="260.8" y2="371.99" gradientTransform="translate(175.87 104.47) rotate(22.06)" xlink:href="#linear-gradient"/><linearGradient id="linear-gradient-19" x1="345.56" y1="443.06" x2="226.87" y2="357.18" gradientTransform="translate(175.87 104.47) rotate(22.06)" xlink:href="#linear-gradient-2"/><linearGradient id="linear-gradient-20" x1="979.81" y1="786.93" x2="1065.91" y2="803.81" gradientTransform="translate(1849.92 -467.02) rotate(117.09)" xlink:href="#linear-gradient"/><linearGradient id="linear-gradient-21" x1="1134.36" y1="861.2" x2="1038.5" y2="791.84" gradientTransform="translate(1849.92 -467.02) rotate(117.09)" xlink:href="#linear-gradient-2"/><linearGradient id="linear-gradient-22" x1="1297.25" y1="-533.64" x2="1363.96" y2="-520.56" gradientTransform="matrix(-0.85, -0.53, 0.53, -0.85, 2218.34, 356.84)" xlink:href="#linear-gradient"/><linearGradient id="linear-gradient-23" x1="1416.99" y1="-476.09" x2="1342.72" y2="-529.83" gradientTransform="matrix(-0.85, -0.53, 0.53, -0.85, 2218.34, 356.84)" xlink:href="#linear-gradient-2"/><linearGradient id="linear-gradient-24" x1="1427.66" y1="-263.27" x2="1504.71" y2="-248.16" gradientTransform="translate(2069.31 -129.09) rotate(177.1)" xlink:href="#linear-gradient"/><linearGradient id="linear-gradient-25" x1="1565.97" y1="-196.8" x2="1480.18" y2="-258.87" gradientTransform="translate(2069.31 -129.09) rotate(177.1)" xlink:href="#linear-gradient-2"/><linearGradient id="linear-gradient-26" x1="1668.21" y1="-443.95" x2="1729.14" y2="-432.01" gradientTransform="translate(2443.05 601.21) rotate(-153.02)" xlink:href="#linear-gradient"/><linearGradient id="linear-gradient-27" x1="1777.58" y1="-391.39" x2="1709.75" y2="-440.47" gradientTransform="translate(2443.05 601.21) rotate(-153.02)" xlink:href="#linear-gradient-2"/><linearGradient id="linear-gradient-28" x1="675.05" y1="-916.1" x2="765.65" y2="-898.34" gradientTransform="translate(1372.22 1244.86) rotate(-73.27)" xlink:href="#linear-gradient"/><linearGradient id="linear-gradient-29" x1="837.7" y1="-837.93" x2="736.81" y2="-910.93" gradientTransform="translate(1372.22 1244.86) rotate(-73.27)" xlink:href="#linear-gradient-2"/><linearGradient id="linear-gradient-30" x1="462.51" y1="-700.78" x2="554.57" y2="-682.73" gradientTransform="translate(208.13 1183.76) rotate(-48.32)" xlink:href="#linear-gradient"/><linearGradient id="linear-gradient-31" x1="627.78" y1="-621.35" x2="525.27" y2="-695.52" gradientTransform="translate(208.13 1183.76) rotate(-48.32)" xlink:href="#linear-gradient-2"/><linearGradient id="linear-gradient-32" x1="1331.74" y1="-1132.34" x2="1380.18" y2="-1122.84" gradientTransform="matrix(-0.21, -0.82, 0.97, -0.25, 1494.46, 1243.96)" xlink:href="#linear-gradient"/><linearGradient id="linear-gradient-33" x1="1415.53" y1="-1093.09" x2="1366.99" y2="-1128.21" gradientTransform="matrix(-0.21, -0.82, 0.97, -0.25, 1494.46, 1243.96)" xlink:href="#linear-gradient-2"/><linearGradient id="linear-gradient-34" x1="811.2" y1="-915.56" x2="863.16" y2="-905.37" gradientTransform="matrix(0.11, -0.84, 0.99, 0.13, 1185.41, 1285.99)" xlink:href="#linear-gradient"/><linearGradient id="linear-gradient-35" x1="901.06" y1="-873.47" x2="849.01" y2="-911.13" gradientTransform="matrix(0.11, -0.84, 0.99, 0.13, 1185.41, 1285.99)" xlink:href="#linear-gradient-2"/><linearGradient id="linear-gradient-36" x1="814.31" y1="658.13" x2="851.89" y2="665.5" gradientTransform="matrix(0.2, -0.72, -0.88, -0.25, 693.9, 1077.15)" xlink:href="#linear-gradient"/><linearGradient id="linear-gradient-37" x1="879.31" y1="688.57" x2="841.66" y2="661.33" gradientTransform="matrix(0.2, -0.72, -0.88, -0.25, 693.9, 1077.15)" xlink:href="#linear-gradient-2"/><linearGradient id="linear-gradient-38" x1="1066.24" y1="-641" x2="1108.78" y2="-632.66" gradientTransform="matrix(0.11, -0.84, 0.99, 0.13, 1185.41, 1285.99)" xlink:href="#linear-gradient"/><linearGradient id="linear-gradient-39" x1="1139.82" y1="-606.54" x2="1097.2" y2="-637.38" gradientTransform="matrix(0.11, -0.84, 0.99, 0.13, 1185.41, 1285.99)" xlink:href="#linear-gradient-2"/><linearGradient id="linear-gradient-40" x1="1974.02" y1="-184.76" x2="2024.14" y2="-174.93" gradientTransform="matrix(-0.76, -0.36, 0.43, -0.9, 2129.46, 791.5)" xlink:href="#linear-gradient"/><linearGradient id="linear-gradient-41" x1="2060.71" y1="-144.16" x2="2010.5" y2="-180.49" gradientTransform="matrix(-0.76, -0.36, 0.43, -0.9, 2129.46, 791.5)" xlink:href="#linear-gradient-2"/><radialGradient id="radial-gradient-3" cx="376.5" cy="201.5" r="467.17" gradientTransform="translate(-10.45 284.04) rotate(-35.34) scale(1 1.15)" gradientUnits="userSpaceOnUse"><stop offset="0.32" stop-color="#fff" stop-opacity="0"/><stop offset="0.45" stop-color="#f2f2f2" stop-opacity="0.08"/><stop offset="0.62" stop-color="#cfcfcf" stop-opacity="0.29"/><stop offset="0.82" stop-color="#969696" stop-opacity="0.63"/><stop offset="1" stop-color="#585858"/></radialGradient></defs><g class="cls-2"><g id="BACKGROUND"><rect class="cls-3" x="54.26" y="53.88" width="750" height="500"/><path class="cls-4" d="M25.4,500H23.82L634.9,0h1.57ZM620.81,0h-1.58L8.16,500H9.73Zm78.34,0h-1.58L86.5,500h1.58ZM683.48,0H681.9L70.83,500h1.58ZM652.14,0h-1.57L39.49,500h1.58Zm15.67,0h-1.58L55.16,500h1.58ZM589.47,0h-1.58L0,481v1.29ZM526.8,0h-1.58L0,429.75V431ZM0,404.11v1.29L495.46,0h-1.58ZM511.13,0h-1.58L0,416.93v1.29Zm31.33,0h-1.58L0,442.57v1.29ZM573.8,0h-1.58L0,468.21v1.29ZM558.13,0h-1.58L0,455.39v1.29Zm47,0h-1.58L0,493.85v1.29ZM750,86.6V85.31L243.19,500h1.57Zm0,12.82V98.13L258.85,500h1.58Zm0-25.64V72.49L227.52,500h1.57ZM714.82,0h-1.58L102.17,500h1.58ZM750,61v-1.3L211.85,500h1.58Zm0,76.92v-1.29L305.86,500h1.58Zm0-12.82v-1.29L290.19,500h1.58Zm0-12.82V111L274.52,500h1.58ZM746.15,0h-1.57L133.51,500h1.57ZM750,9.67V8.38L149.17,500h1.58ZM730.49,0h-1.58L117.84,500h1.57ZM750,22.49V21.2L164.84,500h1.58Zm0,25.65v-1.3L196.18,500h1.58Zm0-12.82V34L180.51,500h1.58Z" transform="translate(54.26 53.88)"/></g><g id="OBJECTS"><g class="cls-5"><polygon class="cls-6" points="151.45 484.42 91.03 557.47 0 460.22 151.45 484.42"/><polygon class="cls-7" points="151.45 484.42 113.98 418.26 0 460.22 151.45 484.42"/><polygon class="cls-8" points="839.96 244.54 734.66 265.1 724.77 114.65 839.96 244.54"/><polygon class="cls-9" points="839.96 244.54 854.65 159.73 724.77 114.65 839.96 244.54"/><polygon class="cls-10" points="585.25 0 519.39 42.36 569.14 157.12 585.25 0"/><polygon class="cls-11" points="632.23 246.91 619.23 309.42 534.4 280.15 632.23 246.91"/><polygon class="cls-12" points="632.23 246.91 589.09 219.29 534.4 280.15 632.23 246.91"/><polygon class="cls-13" points="298.76 335.4 257.86 385.14 195.83 319.25 298.76 335.4"/><polygon class="cls-14" points="298.76 335.4 273.18 290.53 195.83 319.25 298.76 335.4"/><polygon class="cls-15" points="362.72 421.1 292.39 396.26 332.34 325.88 362.72 421.1"/><polygon class="cls-16" points="362.72 421.1 392.33 374.7 332.34 325.88 362.72 421.1"/><polygon class="cls-17" points="121.69 246.91 79.71 316.12 176.5 373.49 121.69 246.91"/><polygon class="cls-18" points="121.69 246.91 187.39 267.8 176.5 373.49 121.69 246.91"/><polygon class="cls-19" points="259.24 476.28 178.93 481.76 185.62 368.84 259.24 476.28"/><polygon class="cls-20" points="259.24 476.28 278.09 414.52 185.62 368.84 259.24 476.28"/><polygon class="cls-21" points="158.75 591.49 89.83 596.18 95.58 499.28 158.75 591.49"/><polygon class="cls-22" points="158.75 591.49 174.93 538.48 95.58 499.28 158.75 591.49"/><polygon class="cls-23" points="210.82 594.93 181.21 503.84 313.47 478.81 210.82 594.93"/><polygon class="cls-24" points="210.82 594.93 287.56 598.78 313.47 478.81 210.82 594.93"/><polygon class="cls-25" points="615.2 58.55 690.59 41.19 701.34 149.37 615.2 58.55"/><polygon class="cls-26" points="615.2 58.55 606.66 120.02 701.34 149.37 615.2 58.55"/><polygon class="cls-27" points="833.34 48.45 841.53 107.83 757.31 108.67 833.34 48.45"/><polygon class="cls-28" points="833.34 48.45 786.49 37.63 757.31 108.67 833.34 48.45"/><polygon class="cls-29" points="608.5 143.14 655.68 193.8 576.65 250.52 608.5 143.14"/><polygon class="cls-30" points="608.5 143.14 557.04 164.02 576.65 250.52 608.5 143.14"/><polygon class="cls-31" points="746.62 177.96 759.02 231.28 682.48 239.05 746.62 177.96"/><polygon class="cls-32" points="746.62 177.96 703.11 172.01 682.48 239.05 746.62 177.96"/><polygon class="cls-33" points="777.96 306.05 703.21 338.3 671.58 228.35 777.96 306.05"/><polygon class="cls-34" points="777.96 306.05 775.16 240.8 671.58 228.35 777.96 306.05"/><polygon class="cls-35" points="86.39 383.96 3.7 381.63 21.7 266.77 86.39 383.96"/><polygon class="cls-36" points="86.39 383.96 111.79 322.64 21.7 266.77 86.39 383.96"/><polygon class="cls-37" points="143.63 402.09 116.54 434.28 87.32 399.2 143.63 402.09"/><polygon class="cls-38" points="143.63 402.09 125.02 377.24 87.32 399.2 143.63 402.09"/><polygon class="cls-39" points="404.47 466.55 364.7 487.86 349.53 441.31 404.47 466.55"/><polygon class="cls-40" points="404.47 466.55 395.8 434.4 349.53 441.31 404.47 466.55"/><polygon class="cls-41" points="260.22 301.2 279.11 323.96 300.15 300.34 260.22 301.2"/><polygon class="cls-42" points="260.22 301.2 273.64 284.42 300.15 300.34 260.22 301.2"/><polygon class="cls-43" points="696.75 291.3 664.18 308.75 651.75 270.63 696.75 291.3"/><polygon class="cls-44" points="696.75 291.3 689.65 264.98 651.75 270.63 696.75 291.3"/><polygon class="cls-45" points="532.56 197.98 540.15 240.84 492.92 240.77 532.56 197.98"/><polygon class="cls-46" points="532.56 197.98 500.49 196.28 492.92 240.77 532.56 197.98"/></g><rect class="cls-47" x="54.26" y="53.88" width="750" height="500"/></g></g></svg>