<svg id="Layer_1" data-name="Layer 1" xmlns="http://www.w3.org/2000/svg" xmlns:xlink="http://www.w3.org/1999/xlink" viewBox="0 0 154.17 257.39"><defs><style>.cls-1{fill:url(#linear-gradient);}</style><linearGradient id="linear-gradient" x1="0.04" y1="-52.12" x2="146.26" y2="-52.12" gradientTransform="matrix(1, 0, 0, -1, 0, 76)" gradientUnits="userSpaceOnUse"><stop offset="0.03" stop-color="#ff0"/><stop offset="0.07" stop-color="#fff800"/><stop offset="0.13" stop-color="#ffe600"/><stop offset="0.19" stop-color="#ffc700"/><stop offset="0.26" stop-color="#ff9c00"/><stop offset="0.34" stop-color="#ff6500"/><stop offset="0.43" stop-color="#ff2300"/><stop offset="0.47" stop-color="red"/><stop offset="0.64" stop-color="#b0004f"/><stop offset="1" stop-color="blue"/></linearGradient></defs><g id="Layer_2" data-name="Layer 2"><g id="Layer_1-2" data-name="Layer 1-2"><path class="cls-1" d="M146.26,58.74c0,50.51-22.62,76.9-48.25,76.9-22.62,0-32-18.85-32-24.13a8.13,8.13,0,0,1,8-8.29h.32a8.7,8.7,0,0,1,7.54,4.14c2.64,5.28,6.41,12.44,16.21,12.44,17.34,0,31.28-21.48,31.28-61.06,0-12.07-4.52-39.21-22.61-39.21-30.16,0-58,56.55-59.56,131.56,38.83,0,62.57,32.42,62.57,64.08,0,25.64-12.81,37.7-31.66,37.7-29.78,0-47.12-36.57-47.5-82.93-8.67,2.64-15.45,10.93-16.58,17-.38,2.26-3.77,4.15-7.16,4.15C2.3,191.09,0,187.7,0,183.55c0-8.67,9.8-24.5,30.53-29.78.76-88.58,33.55-150.4,76.15-150.4C132.69,3.33,146.26,26.7,146.26,58.74ZM92.73,215.55c0-23.75-17-49.38-45.61-48.63.38,46.75,16.59,70.87,30.53,70.87C88.58,237.79,92.73,229.5,92.73,215.55Z"/></g></g></svg>