<svg xmlns="http://www.w3.org/2000/svg" xmlns:xlink="http://www.w3.org/1999/xlink" viewBox="0 0 2495.9 2740.71"><defs><style>.cls-1,.cls-5{fill:none;}.cls-2{clip-path:url(#clip-path);}.cls-3{fill:#ffe7e5;}.cls-4{fill:#f7b2b5;}.cls-5{stroke:#73a2a2;stroke-miterlimit:10;stroke-width:4px;}.cls-13,.cls-5{opacity:0.8;}.cls-6{fill:#dddae5;}.cls-10,.cls-11,.cls-7{opacity:0.7;}.cls-11,.cls-8{fill:#ce9ba4;}.cls-9{fill:#e4ad81;opacity:0.63;}.cls-10,.cls-12,.cls-13{fill:#73a2a2;}.cls-14{fill:#fff;}</style><clipPath id="clip-path" transform="translate(254.99 1167.93)"><rect class="cls-1" width="1920" height="1080"/></clipPath></defs><g id="OBJECTS"><g class="cls-2"><rect class="cls-3" x="254.99" y="1167.93" width="1920" height="1080"/><path class="cls-4" d="M1411-354s-143,16-580,646.75C701,480.46,639.59,271.64,461.08,417.8S24.75,71.55,147.86-239.45s-348.93-508.88-96-612.26,177.93-420.41,523.65-281.66S1519.46-771.48,1411-354Z" transform="translate(254.99 1167.93)"/><path class="cls-5" d="M1161-198S989.5,62.5,868,105C724.09,155.34,482-68,204,127S-229,227-253-16" transform="translate(254.99 1167.93)"/><path class="cls-6" d="M2053,782s-291-327-592-134-379,377-379,377-11,134-161,123-257,22-267,66,85,170,199,220,284,178,435,127,927,60,951-273S2053,782,2053,782Z" transform="translate(254.99 1167.93)"/><path class="cls-6" d="M1363-133c-12.11,6.81-537,399-458,511s202-12,278-20-13,69,170,103,583,106,669-137-97-500-97-500S1797-377,1363-133Z" transform="translate(254.99 1167.93)"/><g class="cls-7"><path class="cls-8" d="M1752.75,393c-69.59.65-155.89,3.68-207,53-34,32.81-38.78,95.27-48.32,138.85-12.54,57.27-22.78,115.22-25.77,173.86-4,79.24,32.65,116.21,109,126.92,66.81,9.37,133.76,18.3,201.11,22.78,51.19,3.4,107.21,12.32,157-4.6,50.5-17.18,71.68-64.67,80.86-114.31,11.5-62.09,16.9-125.14,26.15-187.53,8-54.32,4-115.11-44-150.19-66.26-48.41-152.75-59.56-232.68-58.9C1763.75,392.9,1758.3,392.93,1752.75,393Z" transform="translate(254.99 1167.93)"/></g><path class="cls-9" d="M-3.35,1110.49c58.4.91,112.58-3.37,132.51-3.5,161.76-1.07,323.51.13,485.27,1.15,8.69,0,18-.07,25.17-5,6.19-4.24,9.69-11.32,12.77-18.17,20.49-45.64,47.84-104.12,35.68-155.44-22.58-95.36-184.94-74.22-257.69-78.38-114.18-6.54-228.39-8.42-342.73-7.47-64.76.54-167.87-21.9-220.16,26.89C-172.66,908-182.28,971.75-192.44,1023-206.46,1093.56-99.21,1109-3.35,1110.49Z" transform="translate(254.99 1167.93)"/><path class="cls-10" d="M-94.56,363.41c2.33-5.88,344.06-153.27,452.06-121.13s219,288.13,176.78,342.93S45.69,855.89-40.1,759.82-139,475.74-94.56,363.41Z" transform="translate(254.99 1167.93)"/><path class="cls-6" d="M-92.32,578.77c33.48,16.3,70.83,10.58,106.58,12.91,20.48,1.33,41.45,1.88,61.93.3,21.21-1.63,40.94.16,62,3.31,34.54,5.17,67.31-6.85,101.4-8.9,42-2.53,84.36,1.07,126.44.33,6.47-.11,6.49-11.83,0-12-42-.74-84.4-.57-126.44.51-34.08.88-70.53,5.83-104.44-.19-38.42-6.81-76.82-.17-115.43-3.83-37-3.5-73.82-1.49-110.77-3.6-5.81-.32-5.87,8.87-1.27,11.11" transform="translate(254.99 1167.93)"/><path class="cls-6" d="M-81.67,538.26c19.79-.9,40,3.22,60,3.37,20.54.14,40.88,2.17,61.35,2.43s41,0,61.55.19,40.45,4.23,60.93,5.65c40.2,2.79,81.06.46,121.33.51,9.59,0,20.09-1.63,29.6-.46,7.35.9,14.76,3.45,22.14,4.66,12,2,30.28,10.52,41.7,2,10-7.46.27-26.7-9.21-18.69-5.17,4.38-17.74-1.29-23.66-1.84-7.88-.74-15.6-1-23.43-2.39-17.1-2.94-35.38-.68-52.71-.66-39.17,0-79,2.57-118.06-1.1-18.94-1.78-36.9-3.93-56-3.83-21.65.11-43.53,1.67-65.16.46-35.52-2-76.43-7.7-110.83,5.53-1.82.7-1.6,4.22.47,4.13" transform="translate(254.99 1167.93)"/><path class="cls-6" d="M-92.62,508.85c21.65,2.33,42.59-3.09,64.19-3.8,21.1-.69,42.22.95,63.32-.24,43.8-2.48,86.8-8.48,130.77-8.34,21.05.07,42.42-1.09,63.44.54,18.13,1.4,35.82,6.5,54,7.43,17.5.89,34.75,3.85,52.2,5.61,19.06,1.93,38.26,6.7,57.37,6.47,13-.15,12.9-24.79,0-23.9-36.3,2.49-73.21-8.9-109.57-9.88-18.09-.49-35.87-5.88-54-7.12-21-1.45-42.38-.18-63.44-.11-44,.15-87,6.43-130.77,9.18-20.24,1.27-40.49-.22-60.74.57-22.59.89-44.47,7.8-66.77,11.31-6.51,1-6.77,11.55,0,12.28" transform="translate(254.99 1167.93)"/><path class="cls-6" d="M-77,457.15c21.19,1.06,42,3.13,63.32,2.85,20.13-.27,40.26-1.54,60.39-2.15,39.79-1.22,79.58-.36,119.37-.06,37.93.29,75.53,2.3,113.47,2.34q31.16,0,62.32.06c9.3,0,18.74-.51,28,0,9.77.57,19.19,3.76,29,4.37,11,.69,11.09-20.25,0-20.35-19-.16-37.88-3-57-3q-29.75,0-59.49.06c-38.88,0-77.42-1.77-116.3-1.38s-77.68.18-116.49,2c-42.29,2-84.43,7.43-126.59,9.8-3,.17-3,5.34,0,5.49" transform="translate(254.99 1167.93)"/><path class="cls-6" d="M-78.53,416.92c21.74,1.52,43.37-.91,65.11-.78,22.29.13,44.58.52,66.87.59,44.73.13,89.38-4.85,134.08-3.25,41.89,1.5,83.76,3.84,125.62.2,15.68-1.36,30.34-1.57,46,.84,14.56,2.23,29.66,5.53,44.43,5.15,10.69-.28,10.66-20.3,0-19.7-29.73,1.66-59-9.1-89-5.3-20.14,2.55-41.09,1.78-61.39,2.09-22,.34-43.73-1.14-65.7-1.85-44.7-1.44-89.36,4.09-134.08,4.3-21.35.11-42.76-.38-64.09.79-23.12,1.26-45,7.15-67.89,10.14-3.61.47-3.75,6.52,0,6.78" transform="translate(254.99 1167.93)"/><path class="cls-6" d="M-69.14,374.19c41,5.86,84.05,3.85,125.36,3.72,44-.13,87.35-7.71,131.4-6.75,21.6.46,43.15-1.83,64.77-1.86,20.1,0,40,3.48,60,3.65,18.87.17,37.39,4.31,56.14,5.95,9,.79,17.05-1.1,26,.68,8,1.59,16.47.75,24.65.75,10.33,0,10.34-19.06,0-19.06-8.48,0-16.24,0-24.48-1.63-9.19-1.83-18.24,1.16-27.44-.08-17.6-2.38-35-5.54-52.71-5.88-19.89-.37-39.51-3.76-59.44-3.68-22.55.1-45,2.16-67.56,1.9-43.18-.51-85.57,7.36-128.69,8-21.86.34-43.72-.14-65.57.74-10.6.42-21.42.19-32,1.39-10.27,1.15-20.19,4.33-30.52,5.36-3.73.37-3.62,6.26,0,6.78" transform="translate(254.99 1167.93)"/><path class="cls-11" d="M1637.11,803.23a268.48,268.48,0,0,1,153.52-53.43c40.37-1,82.41,7.59,118.39,24.2,39.22,18.11,70.5,45.06,90.47,78,19.84,32.68,32.68,68.06,37.12,102.32,5.11,39.49-1,75.19-18.11,106.11l-2.75-1.52c31.58-57,24.5-133.74-18.94-205.28-38.44-63.29-119.34-102.8-206.11-100.64a265.28,265.28,0,0,0-151.7,52.8A259.11,259.11,0,0,0,1605.16,836c-31.85,33.91-52.17,75.71-71.82,116.13-15,30.9-30.54,62.85-51.16,91.22a294.25,294.25,0,0,1-95.7,84.66,315.92,315.92,0,0,1-122,38l-.32-3.12c87.43-9,166-53.29,215.46-121.43,20.45-28.15,35.92-60,50.88-90.75,19.75-40.63,40.17-82.65,72.34-116.91a263.89,263.89,0,0,1,34.25-30.6" transform="translate(254.99 1167.93)"/><path class="cls-12" d="M1219.48,1109c-3-1.92-2.5-9.57-1.32-22,.5-5.17,1-10,.7-12.51-2.13-19.86-8.24-43.19-15.95-60.87-4-9.2-7.38-18.84-10.64-28.17-4.56-13.05-9.28-26.53-15.75-38.78a122.55,122.55,0,0,0-23.84-31.47c-2.58-2.45-5.21-5.15-7.91-7.9-6.21-6.34-12.62-12.9-19.22-17.53-25.61-18-71.58-31-102.47-29l-7.71.48c-28.6,1.78-58.17,3.62-85.06,12.76-19.77,6.72-45.14,17-65.95,36.73l-3,2.83c-12.25,11.64-24.91,23.68-38.12,34.18-2.26,1.8-4.57,3.57-6.89,5.33-7.75,5.92-15.77,12-22,19.69-33,40.76-33.07,107.16-32.31,126.54l-3.07.12c-.77-19.65-.66-87,33-128.59,6.43-7.94,14.6-14.17,22.49-20.2,2.3-1.75,4.59-3.5,6.85-5.29,13.09-10.42,25.7-22.41,37.9-34l3-2.82c21.24-20.17,47-30.59,67.07-37.42,27.28-9.27,57.06-11.12,85.86-12.91l7.7-.49c31.48-2,78.34,11.23,104.43,29.54,6.83,4.8,13.35,11.46,19.65,17.9,2.67,2.73,5.29,5.4,7.83,7.83a125.78,125.78,0,0,1,24.44,32.25c6.59,12.46,11.34,26,15.93,39.2,3.25,9.28,6.6,18.87,10.56,28,7.83,17.95,14,41.62,16.19,61.77.3,2.77-.18,7.8-.69,13.14-.59,6.21-1.7,17.78-.08,19.08Z" transform="translate(254.99 1167.93)"/><path class="cls-12" d="M1022,1087l-3.07-.09c.26-9.23-2.55-17.63-7.51-22.47-3.7-3.59-8.47-5.25-14.17-5-8,.44-19.23,5.56-23.13,12.5a11,11,0,0,0,.07,11.13l-2.71,1.45a14,14,0,0,1,0-14.09c4.54-8.06,16.84-13.57,25.63-14,6.59-.37,12.15,1.59,16.48,5.81C1019.21,1067.75,1022.29,1076.77,1022,1087Z" transform="translate(254.99 1167.93)"/><path class="cls-12" d="M1044.76,1085.14l-3-.51c1.63-9.68-5.77-19.13-11.72-26.72-.83-1.05-1.63-2.07-2.38-3.06-9.07-11.93-18.43-12.43-34.75-9.07-9.39,1.93-34.33,13.15-40,26.13a11.43,11.43,0,0,0,.59,11.15l-2.63,1.58a14.51,14.51,0,0,1-.77-14c6-13.67,31-25.61,42.22-27.91,17.23-3.55,27.8-2.94,37.81,10.22.75,1,1.54,2,2.35,3C1038.75,1064.08,1046.62,1074.13,1044.76,1085.14Z" transform="translate(254.99 1167.93)"/><path class="cls-12" d="M1063.42,1093.27l-3.07-.21a81.46,81.46,0,0,0-9.29-41.71c-9.85-18.2-18.59-26.78-41.83-26s-77,8.34-77.31,63.7l-3.07,0c.24-40.86,29.5-65.19,80.28-66.75,24.63-.71,34.39,8.71,44.63,27.63C1060.64,1062.58,1064.33,1079.2,1063.42,1093.27Z" transform="translate(254.99 1167.93)"/><path class="cls-12" d="M1087.31,1100.75c-5.47-24.46-16.83-47.76-30.39-62.35-18-19.34-36-25.09-62-19.83-3.39.68-7.07,1.34-10.92,2-17.71,3.16-39.75,7.09-52.59,17.55-16.14,13.15-25.62,34.49-25.35,57.08l-3.07,0c-.28-23.51,9.62-45.75,26.48-59.49,13.46-11,35.93-15,54-18.19,3.83-.68,7.48-1.33,10.85-2,27.27-5.49,46.07.52,64.89,20.75,13.92,15,25.56,38.81,31.13,63.77Z" transform="translate(254.99 1167.93)"/><path class="cls-12" d="M1104,1101.13c-1.82-3.42-2.72-7.89-3.6-12.22-.79-4-1.62-8-3.12-11.29a140.31,140.31,0,0,0-8.58-15c-1.83-2.92-3.72-5.94-5.39-8.88-9.69-17-25.89-40.27-48-54.13-14.18-8.86-36.54-9.07-59.82-.55-2.46.9-5,1.79-7.45,2.68-21.32,7.58-43.35,15.43-55.42,34.77l-1.48,2.37c-11.38,18.2-24.28,38.83-23.72,60.43l-3.06.08c-.59-22.53,12.57-43.57,24.18-62.14l1.48-2.36c12.63-20.26,35.18-28.28,57-36,2.5-.89,5-1.78,7.42-2.67,24.17-8.85,47.53-8.53,62.51.83,22.71,14.19,39.23,37.86,49.08,55.22,1.64,2.88,3.52,5.87,5.33,8.76a144.66,144.66,0,0,1,8.77,15.31c1.65,3.58,2.51,7.84,3.34,12,.87,4.3,1.69,8.37,3.3,11.39Z" transform="translate(254.99 1167.93)"/><path class="cls-12" d="M1124.09,1110.93c-.93-.75-1.62-3-4.34-14.48-.92-3.87-1.78-7.53-2.36-9.41-1.53-5-2.66-9.92-3.76-14.68-2.38-10.37-4.63-20.17-10.63-29.73-23.6-37.6-44.52-58.78-64-64.73-19.19-5.89-50.29-2-71.1,4.87-31.14,10.3-60.73,21.72-80.45,48-6.82,9.1-10.2,20.11-13.08,30.61-2.78,10.12-7.34,29-6.68,42l-3.07.16c-.68-13.41,4-32.7,6.79-43,3-10.78,6.44-22.1,13.58-31.63,20.24-27,51.58-39.06,82-49.1,21.27-7,53.16-11,73-4.9,20.18,6.19,41.66,27.79,65.67,66,6.27,10,8.58,20,11,30.67,1.09,4.71,2.21,9.58,3.7,14.48.61,2,1.49,5.67,2.42,9.6,1.13,4.77,2.85,12,3.47,13Z" transform="translate(254.99 1167.93)"/><path class="cls-12" d="M1138.07,1108.08c-2.94-10.24-5.23-21.27-7.67-32.95-2.84-13.65-5.78-27.76-9.83-40.5-14.28-45-38.86-73.59-73-84.94-27.73-9.21-66.28,7.56-94.42,19.81l-7,3-7.28,3.07c-23.92,10-56.67,23.8-67.38,46s-23.16,58.47-25.46,86.15l-3.06-.26c2.33-28.06,15-64.89,25.75-87.22,11.22-23.27,44.59-37.28,69-47.52,2.53-1.06,5-2.08,7.26-3.07s4.59-2,7-3c28.6-12.44,67.76-29.48,96.61-19.9,35.15,11.68,60.39,40.92,75,86.92,4.09,12.88,7,27.08,9.91,40.81,2.42,11.62,4.71,22.59,7.61,32.73Z" transform="translate(254.99 1167.93)"/><path class="cls-12" d="M1151.48,1115.13l-.41-2.83c-4.35-29.71-8.47-57.77-19.18-86.92l-1.7-4.66c-5.38-14.79-10.45-28.76-20.87-41.07-10.74-12.69-22.11-21.71-34.78-31.37l-.58-.44c-12.16-9.27-20.94-16-36.7-16.74-18.18-.9-36.07,3.56-53.36,7.87l-5.67,1.41c-37.22,9.14-88.18,21.66-118.16,56-1.64,1.87-3.43,3.79-5.27,5.76-5.77,6.2-11.74,12.61-15,19.52-2.07,4.43-2.8,9.73-3.51,14.85a79.65,79.65,0,0,1-2,10.84c-1.23,4.34-2.72,9-4.3,13.9-5,15.55-10.63,33.17-9.93,47.42l-3.07.15c-.73-14.81,5-32.71,10.08-48.51,1.57-4.89,3-9.51,4.27-13.8a75.07,75.07,0,0,0,1.91-10.42c.74-5.35,1.51-10.88,3.77-15.72,3.43-7.35,9.57-13.94,15.51-20.32,1.81-1.94,3.58-3.84,5.2-5.69,30.61-35,82.13-47.68,119.74-56.91l5.66-1.41c17.51-4.36,35.59-8.87,54.25-8,16.71.83,25.81,7.77,38.41,17.37l.58.44c12.82,9.77,24.32,18.91,35.26,31.83,10.77,12.72,15.94,26.94,21.41,42l1.7,4.65c10.82,29.45,15,57.67,19.34,87.54l.41,2.83Z" transform="translate(254.99 1167.93)"/><path class="cls-12" d="M1177.43,1117.45c-5.49-17.18-10.2-35.37-14.75-53-6.11-23.63-12.43-48.06-20.86-71-11.73-32-46.26-63.71-80.32-73.81-45.78-13.59-82.89-12.86-124.1,2.44-35.89,13.32-73.86,37.52-106.91,68.15-31.71,29.37-35.26,72.31-36.29,117.43l-3.06-.07c1-45.81,4.67-89.42,37.26-119.61,33.34-30.9,71.68-55.32,107.94-68.78,41.87-15.55,79.56-16.3,126-2.51,34.9,10.36,70.3,42.9,82.33,75.7,8.49,23.09,14.82,47.6,21,71.3,4.53,17.55,9.23,35.68,14.69,52.78Z" transform="translate(254.99 1167.93)"/><path class="cls-12" d="M1195.14,1122.88c-3.23-6-3.42-13.86-3.61-21.46-.08-3.22-.15-6.26-.45-9.11-1.27-12.18-4.5-24.45-7.62-36.32q-1-3.75-1.94-7.47c-.86-3.34-1.69-6.71-2.52-10.08-5.4-21.82-11-44.39-23.49-62.9-4.32-6.39-6.92-13-9.43-19.48-1.32-3.4-2.69-6.91-4.3-10.35-4.94-10.54-15.8-22.59-21.83-28.84-25-25.91-66.31-32.75-82.9-34.49-12.12-1.27-24.3.33-36.07,1.88-2.76.37-5.52.73-8.28,1.06-5.86.7-11.83.95-17.6,1.2-9.2.4-18.71.81-27.71,3-26.31,6.52-47.15,21.91-62.37,34.59-8.27,6.89-15.73,14.86-22.95,22.56-9.67,10.32-19.67,21-31.79,29.3-12.44,8.52-21.92,16.24-30.74,28.35-7,9.65-8.83,20.54-10.75,32.06-.76,4.57-1.55,9.29-2.68,13.93-1.75,7.15-2.41,15.55-3,23.68-1,12.23-1.94,24.88-6.63,34.31l-2.75-1.36c4.43-8.9,5.39-21.25,6.32-33.18.64-8.26,1.31-16.79,3.12-24.18,1.1-4.52,1.88-9.19,2.63-13.7,1.89-11.37,3.85-23.13,11.3-33.36,9.05-12.43,19.13-20.62,31.48-29.09,11.85-8.11,21.73-18.66,31.29-28.86,7.28-7.77,14.81-15.81,23.23-22.82,15.47-12.89,36.68-28.53,63.59-35.21,9.3-2.31,19-2.72,28.32-3.12,5.71-.25,11.62-.5,17.37-1.19,2.75-.32,5.49-.69,8.24-1,11.95-1.57,24.31-3.2,36.79-1.89,16.93,1.77,59.07,8.78,84.79,35.41,6.17,6.38,17.28,18.73,22.4,29.67,1.65,3.53,3,7.09,4.38,10.54,2.56,6.56,5,12.77,9.11,18.87,12.82,19,18.47,41.8,23.93,63.89q1.24,5,2.51,10,.94,3.71,1.94,7.45c3.15,12,6.4,24.37,7.7,36.78.31,3,.39,6.21.47,9.35.18,7.25.36,14.74,3.24,20.09Z" transform="translate(254.99 1167.93)"/></g><g class="cls-7"><path class="cls-8" d="M559.19,92.14C525.67,108.38,478.76,142,456.44,172.3c-18.81,25.56-21.86,59.4-25,90.1-6.86,66.62.21,132.68,65.76,168.35,67.68,36.83,196.5,4,236.32-61.32,34-55.81,16.58-141.46-9.58-197.79-15.24-32.83-56.86-50.07-88.2-64.91-8.64-4.08-18.71-7.49-27.9-11C584.82,86.8,584.84,85.62,559.19,92.14Z" transform="translate(254.99 1167.93)"/></g><path class="cls-13" d="M1438.61,71.7c-79.94-1.06-100.76,100.8-93.92,161.06,6.71,59.08,91.84,82,139.46,83.44C1578,319,1685.85,162,1594.41,97.74,1555.12,70.13,1457.23,58.18,1438.61,71.7Z" transform="translate(254.99 1167.93)"/><path class="cls-14" d="M1121.35,580.44c-27.6,59.07,41.15,108.7,88.24,123.81,46.16,14.82,91.77-40.77,108.77-75.7,33.51-68.82-47-201.63-125.43-155.2C1159.24,493.3,1117.54,562.06,1121.35,580.44Z" transform="translate(254.99 1167.93)"/><g class="cls-7"><path class="cls-8" d="M1057.74,354.32c.75,2.52-3.22,6.56-9.84,12.92a61.38,61.38,0,0,0-6.43,6.67,164.78,164.78,0,0,0-20.41,41.76c-2.19,7.09-5,14.11-7.63,20.91-3.73,9.5-7.6,19.32-9.88,29.3a90.88,90.88,0,0,0-1.82,29.11c.26,2.61.44,5.4.62,8.24.41,6.54.85,13.3,2.31,19.08,5.67,22.41,25.14,51.84,43.39,65.63l4.55,3.44c16.87,12.8,34.31,26,53.77,33.87,14.31,5.77,33.46,12.26,54.63,11.23l3-.15c12.47-.61,25.36-1.25,37.81-.76,2.14.08,4.28.21,6.43.34,7.19.42,14.63.86,21.79-.44,38.11-6.92,70.18-44.05,79.09-55.26l1.78,1.41c-9,11.37-41.57,49-80.47,56.08-7.42,1.35-15,.9-22.32.47-2.13-.13-4.26-.25-6.39-.34-12.35-.48-25.19.15-37.61.77l-3,.14c-21.61,1-41.06-5.53-55.59-11.39-19.74-8-37.31-21.28-54.29-34.16l-4.55-3.44c-18.61-14-38.45-44-44.22-66.88-1.51-6-2-12.85-2.38-19.5-.18-2.81-.35-5.57-.61-8.16a92.78,92.78,0,0,1,1.87-29.83c2.32-10.15,6.22-20.05,10-29.63,2.66-6.76,5.41-13.75,7.57-20.75a166.85,166.85,0,0,1,20.72-42.38,61.41,61.41,0,0,1,6.72-7c3.32-3.19,9.52-9.14,9.24-10.65Z" transform="translate(254.99 1167.93)"/><path class="cls-8" d="M1157.71,461.81l1.68,1.53c-4.6,5-7.07,11.1-6.62,16.2a13.34,13.34,0,0,0,5.54,9.6c4.7,3.62,13.45,6.16,19,4.16a8.11,8.11,0,0,0,5.33-6.27l2.22.49a10.38,10.38,0,0,1-6.78,7.91c-6.43,2.32-16-.52-21.12-4.49a15.49,15.49,0,0,1-6.42-11.2C1150,473.93,1152.62,467.4,1157.71,461.81Z" transform="translate(254.99 1167.93)"/><path class="cls-8" d="M1144.07,451.88l1.45,1.74c-5.57,4.63-6,13.49-6.31,20.62,0,1-.09,1.94-.15,2.86-.67,11,4.33,15.84,15.08,21.83,6.19,3.44,25.56,9.18,35,4.67a8.48,8.48,0,0,0,5-6.53l2.23.38a10.7,10.7,0,0,1-6.3,8.19c-10,4.76-29.72-.63-37.09-4.73-11.35-6.32-17-11.76-16.24-24,0-.91.1-1.85.14-2.83C1137.29,466.56,1137.73,457.15,1144.07,451.88Z" transform="translate(254.99 1167.93)"/><path class="cls-8" d="M1137.55,438.33l1.62,1.59a60.14,60.14,0,0,0-14.91,27.84c-3.26,14.94-2.51,23.95,10.87,34.73s47.12,32.45,74,1.61l1.71,1.49c-19.84,22.76-47.95,22.27-77.13-1.33-14.13-11.48-15-21.46-11.67-37A62.67,62.67,0,0,1,1137.55,438.33Z" transform="translate(254.99 1167.93)"/><path class="cls-8" d="M1127.78,422.63c-8.73,16.32-13.61,34.85-13,49.55.75,19.5,8,31.38,25.17,41,2.23,1.25,4.6,2.66,7.09,4.13,11.44,6.77,25.67,15.2,37.9,15.53,15.38.42,31-7,41.71-19.73l1.74,1.46c-11.18,13.3-27.45,21-43.51,20.54-12.82-.35-27.33-8.94-39-15.85-2.47-1.46-4.83-2.86-7-4.1-17.91-10.07-25.54-22.5-26.32-42.9-.58-15.09,4.4-34,13.31-50.71Z" transform="translate(254.99 1167.93)"/><path class="cls-8" d="M1118.61,414.35c-.63,2.8-2.28,5.74-3.88,8.58a39.06,39.06,0,0,0-3.69,7.82,103.88,103.88,0,0,0-2.42,12.52c-.38,2.52-.78,5.12-1.26,7.58-2.79,14.21-4.93,35,.8,53.46,3.67,11.8,16.09,22.7,33.23,29.15,1.81.68,3.63,1.39,5.46,2.1,15.59,6,31.71,12.26,47.79,7.24l2-.61c15.15-4.7,32.31-10,42.41-22.39l1.76,1.43c-10.53,12.9-28,18.33-43.5,23.13l-2,.61c-16.84,5.25-33.33-1.13-49.29-7.3-1.82-.71-3.64-1.41-5.44-2.09-17.79-6.69-30.72-18.13-34.59-30.6-5.87-18.89-3.71-40.1-.86-54.57.47-2.41.86-5,1.24-7.48a105.33,105.33,0,0,1,2.48-12.8,40.49,40.49,0,0,1,3.89-8.31c1.59-2.83,3.09-5.49,3.65-8Z" transform="translate(254.99 1167.93)"/><path class="cls-8" d="M1112.1,399.19c.16.87-.56,2.49-4.55,10.2-1.36,2.61-2.63,5.08-3.22,6.41-1.55,3.53-3.29,6.84-5,10-3.67,6.95-7.13,13.52-8.38,21.77-4.92,32.43-3.42,54.37,4.6,67.08,7.91,12.55,27.19,25.37,42.16,31.55,22.4,9.25,44.47,17.12,68.19,11.9,8.21-1.81,15.41-6.34,22.08-10.83,6.44-4.33,18.12-12.73,24-20.32l1.79,1.39c-6.09,7.84-18,16.4-24.53,20.81-6.86,4.61-14.27,9.27-22.86,11.16-24.35,5.36-47.71-3-69.55-12-15.29-6.32-35-19.49-43.21-32.43-8.32-13.19-9.93-35.64-4.92-68.63,1.3-8.63,4.85-15.36,8.61-22.49,1.66-3.16,3.39-6.42,4.91-9.89.61-1.39,1.9-3.89,3.27-6.53,1.67-3.22,4.19-8.09,4.33-9Z" transform="translate(254.99 1167.93)"/><path class="cls-8" d="M1102.9,394.05c-3.3,7.15-7.33,14.43-11.6,22.14-5,9-10.14,18.34-14,27.41-13.7,32.09-13.72,59.94-.06,82.77,11.08,18.52,40.75,27.72,62.41,34.43l5.4,1.68,5.56,1.79c18.24,5.91,43.2,14,59.91,6.72s41.16-21.57,55.79-36l1.59,1.61c-14.84,14.59-39.68,29.11-56.47,36.42-17.5,7.62-42.94-.63-61.52-6.64-1.92-.63-3.78-1.23-5.54-1.78s-3.53-1.11-5.39-1.69c-22-6.82-52.15-16.16-63.69-35.43-14-23.48-14.08-52-.07-84.82,3.92-9.18,9.1-18.55,14.12-27.62,4.25-7.67,8.26-14.92,11.52-22Z" transform="translate(254.99 1167.93)"/><path class="cls-8" d="M1098.79,383.63l-1.13,1.79c-11.89,18.73-23.12,36.42-31.17,57.91l-1.3,3.43c-4.12,10.87-8,21.14-8.11,33.05-.11,12.28,1.9,22.81,4.34,34.33l.12.53c2.33,11.05,4,19,12.47,27.06,9.74,9.27,21.91,15.4,33.67,21.32l3.85,2c25.24,12.82,59.81,30.38,93.13,25.64,1.82-.26,3.75-.47,5.73-.69,6.22-.69,12.65-1.4,17.79-3.71,3.29-1.48,6.25-4.09,9.12-6.62a57.87,57.87,0,0,1,6.35-5.1c2.78-1.84,5.85-3.72,9.1-5.71,10.29-6.3,22-13.45,28.43-21.76l1.79,1.39c-6.73,8.64-18.58,15.9-29,22.3-3.24,2-6.29,3.85-9,5.67a56.48,56.48,0,0,0-6.09,4.91c-3,2.64-6.09,5.37-9.69,7-5.46,2.46-12.08,3.19-18.47,3.89-2,.22-3.86.43-5.66.69-34,4.84-69-12.91-94.48-25.87l-3.84-1.94c-11.91-6-24.2-12.2-34.21-21.7-9-8.52-10.71-16.8-13.13-28.24l-.12-.53c-2.46-11.65-4.5-22.31-4.39-34.82.1-12.32,4.07-22.77,8.26-33.84l1.29-3.42c8.14-21.7,19.43-39.49,31.38-58.33l1.13-1.78Z" transform="translate(254.99 1167.93)"/><path class="cls-8" d="M1085.38,369.83c-5.21,12.27-11.34,24.71-17.27,36.75-8,16.18-16.21,32.9-22.56,49.81-8.84,23.56-4.81,58,9.38,80.05,19.08,29.68,40.21,47.16,70.66,58.46,26.51,9.85,59.44,14.6,92.71,13.39,31.91-1.15,54.6-23.48,76.92-48.25l1.69,1.52c-22.67,25.14-45.73,47.81-78.53,49-33.56,1.22-66.79-3.59-93.58-13.53-30.94-11.48-52.41-29.24-71.77-59.36-14.55-22.63-18.68-57.91-9.61-82.07,6.39-17,14.66-33.8,22.65-50,5.92-12,12-24.43,17.22-36.64Z" transform="translate(254.99 1167.93)"/><path class="cls-8" d="M1078.08,358.25c-1.08,4.91-4.76,9.41-8.33,13.76-1.5,1.84-2.93,3.58-4.13,5.31-5.16,7.43-9.27,15.86-13.25,24-.84,1.72-1.67,3.43-2.51,5.12-1.13,2.28-2.29,4.57-3.45,6.85-7.5,14.82-15.26,30.15-17.17,46.54-.67,5.66-2.42,10.64-4.12,15.45-.9,2.54-1.82,5.17-2.58,7.87-2.32,8.28-2,20.27-1.68,26.68,1.51,26.56,21.33,50.3,29.78,59.27,6.17,6.55,13.76,11.53,21.1,16.33q2.58,1.69,5.15,3.4c3.61,2.44,7.08,5.17,10.43,7.82,5.34,4.21,10.86,8.57,17,11.66,17.87,9,37,10.46,51.59,10.7a192.47,192.47,0,0,0,23.73-1.57c10.39-1.11,21.13-2.26,31.92-1.07,11.07,1.22,20.1,1.47,30.88-1.06,8.58-2,14.84-7.23,21.47-12.76,2.63-2.19,5.35-4.46,8.22-6.51,4.42-3.16,8.84-7.55,13.12-11.79,6.43-6.39,13.08-13,20.25-16l.88,2.09c-6.77,2.86-13.26,9.3-19.53,15.54-4.34,4.31-8.83,8.76-13.4,12-2.81,2-5.49,4.23-8.08,6.4-6.55,5.45-13.31,11.09-22.41,13.23-11.06,2.59-20.65,2.32-31.65,1.1-10.54-1.16-21.16,0-31.43,1.08a194,194,0,0,1-24,1.57c-14.87-.24-34.29-1.7-52.57-10.94-6.32-3.19-11.94-7.62-17.37-11.91-3.31-2.61-6.74-5.32-10.29-7.71-1.69-1.14-3.41-2.26-5.12-3.38-7.45-4.88-15.15-9.93-21.51-16.68-8.62-9.15-28.84-33.39-30.4-60.7-.37-6.55-.64-18.82,1.77-27.41.77-2.77,1.71-5.43,2.62-8,1.73-4.91,3.37-9.55,4-15,2-16.8,9.82-32.3,17.41-47.3,1.15-2.28,2.31-4.56,3.44-6.84.83-1.69,1.67-3.39,2.5-5.1,4-8.23,8.17-16.74,13.43-24.31,1.25-1.81,2.77-3.67,4.24-5.46,3.39-4.14,6.9-8.43,7.87-12.81Z" transform="translate(254.99 1167.93)"/></g></g></svg>