<svg id="Layer_1" data-name="Layer 1" xmlns="http://www.w3.org/2000/svg" xmlns:xlink="http://www.w3.org/1999/xlink" viewBox="0 0 514.67 336.44"><defs><style>.cls-1{fill:#01255b;}.cls-2{clip-path:url(#clip-path);}.cls-3{fill:#ffb300;}</style><clipPath id="clip-path" transform="translate(0 13.33)"><rect class="cls-1" width="504" height="288"/></clipPath></defs><rect class="cls-1" y="13.33" width="504" height="288"/><g class="cls-2"><path class="cls-3" d="M513,69a3.23,3.23,0,0,1,.37-.94c.45-1,.74-1.52,1.26-1.57V64.44l-.12.15c-.09-.14-.27-.28-.26-.4a1.73,1.73,0,0,1,.29-.53l.09,0V12.12a18.7,18.7,0,0,0-1.73,1.08.92.92,0,0,1-.91-.15,1.06,1.06,0,0,1-.13-1c.17-.37.54-.88.86-.91a3.69,3.69,0,0,0,1.91-.75V6.82L514.3,7a1.3,1.3,0,0,1,.37-1.79V-13.33H193q-.45.55-.87,1.14c-1-.36-1.19-.64-.91-1.14H175.8c0,.66.15,1.38-.49,1.8-.81.53-1.58,1-1.82,2a2.52,2.52,0,0,1-.71,1.08c-1,1-2.31,1.52-3.1,2.74-.16.25-.77.2-1.19.27,0,1.63-1.13,2.83-1.66,4.25s-1.76,1.82-3.1,2c-.61.08-1-.47-1-1.2,0-.26.5-.51.06-.82-.53.45-1.44.52-1.39,1.39a2.22,2.22,0,0,1-1.53,2.42,1.68,1.68,0,0,0-.66.73c-.55,1-1.07,2-1.59,3a20.2,20.2,0,0,1-1,1.84c-.5.74-1.28,1.45-2.14,1.1s-1.18.15-1.45.56a15.85,15.85,0,0,0-1,2.29l-1.59.63c-.06.15-.13.23-.12.3.25,2-1.43,3.13-2.26,4.62,0,.1-.32.06-.48.11-1.12.32-1.16.33-1.19,1.68,0,.6-.39.83-.76,1.1l.1-1.21-2.14.34c-1,1.57-1.86,3.07-2.82,4.52a18.33,18.33,0,0,1-1.89,2.49,15.78,15.78,0,0,1-2.69,2.48c-1.6,1.07-2.25,2.82-3.35,4.24-.08.1,0,.29,0,.45a1.47,1.47,0,0,1,.41,0c.19,1.34.6,2.67-.41,3.92a4.49,4.49,0,0,0-.68,1.67,54.79,54.79,0,0,1-3.85,10.15c-.51,1.07-1.08,2.12-1.63,3.17,1-.13,1.34-1,1.74-1.75.82-1.63,1.71-3.23,2.62-4.82.07-.13.45-.14.67-.11s.25.26.27.4c.14,1.45.25,2.91.36,4.33l1.33.26a3.56,3.56,0,0,1-.78,3.45,2.42,2.42,0,0,0-.58,2.61c1,.35,1.52-.14,1.85-1,.83-2,1.89-4,2.82-6h0c.16-.48.88-.69.57-1.48-.18-.45,0-1.42.29-1.6,1-.56.64-.84.13-1.52-.64-.85-.42-1.18.73-2,.1-.07.11-.27.16-.43l-1.45-.78.54-2.46.08,0-.63-.42.47-.17a2.37,2.37,0,0,0-.2-.46,2,2,0,0,1,.22-2.82,5.19,5.19,0,0,0,.92-1.56c.36-.87.93-.83,1.63-.59.06.78-.53,1.45.08,2.26a6.8,6.8,0,0,1,.59,2.27c.4-.24,1-.39,1-.66.26-1.11,1.16-1.7,1.8-2.48.5-.6,1-1.18,1.55-1.74a2.13,2.13,0,0,1,.66-.32l1.74,1.32a17.63,17.63,0,0,1-.63,1.66c-.29.59-.66,1.15-1,1.8l2,1.29c0,.53.07,1,.1,1.47.95-.82,1.9-1.66,2.86-2.47.27-.23.57-.4.89-.06.24,1.4-.63,2.45-1.2,3.6.42.24,1,.38,1.13.68.29,1.06,1.2,1.42,1.92,2a1.9,1.9,0,0,1,.37.6c.83-.46,1.64-.93,2.49-1.34a4.1,4.1,0,0,1,1.21-.08,36.72,36.72,0,0,0-2.85,5.78c-.73,1.89-1.86,3.6-2.48,5.55h0a19.63,19.63,0,0,0-1.9,2.6C150.12,59,149,60,149,61.5A9.87,9.87,0,0,0,151.68,58c.76.81.35,1.48,0,2.07-1.13,2.14-2.32,4.26-3.49,6.38l-1.18-.08c-.9,1.46-2.21,2.81-1.42,4.81l-1.13.42L143,75.16a2.21,2.21,0,0,1-.07,2.32,13.23,13.23,0,0,0-.83,1.88c-.64,1.43-1.34,2.83-1.92,4.27-.37.93-.68,1.77-1.84,2-.33.06-.64.56-.84.92-.59,1.07-1.13,2.17-1.66,3.27-.06.11,0,.3.06.45l1.05.34c-.69,1.57-1.31,3.1-2,4.59-1.57,3.3-3.19,6.58-4.78,9.88-1.77,3.69-2.95,7.66-5.17,11.14a3.86,3.86,0,0,0-.36.7c-.88,2.47-1.79,4.92-2.61,7.41a3.88,3.88,0,0,0-.44,2.46l2.83-2.39c.68-1.45,1-3.27,2.22-4.68a4.53,4.53,0,0,0,.67-1.42c.57-1.54,1-3.13,1.69-4.62a69.49,69.49,0,0,1,3.67-6.86c.38-.64.92-1.23.79-2.06l-1.55,1.86c-.52-.29-.79-.69-.54-1.28a17.53,17.53,0,0,1,1-2.11,12.56,12.56,0,0,0,1.44-3.32,4.88,4.88,0,0,1,2-2.54.86.86,0,0,1,.2,1.23c-.61,1.25-1.22,2.49-1.8,3.74a5.33,5.33,0,0,0-.28,1.06,5.35,5.35,0,0,0,1.1-1.19c.8-1.43,1.52-2.9,2.23-4.38,1.2-2.51,2.42-5,3.54-7.57a44.58,44.58,0,0,1,5-9.16A1.63,1.63,0,0,0,146,79.4c-.06-.16.35-.51.56-.8,1.44,1.07,1.28,2.37.69,3.6a8.43,8.43,0,0,1-1.6,2c-1.8,1.9-2.45,4.4-3.61,6.63a.43.43,0,0,0-.05.25c.33,2.32-.67,4.44-1,6.66a2.86,2.86,0,0,1-.3,1.23,13.12,13.12,0,0,0-1.64,3.83,10.2,10.2,0,0,1-1.21,3.43c-1.12,1.45-1.4,3.14-2,4.75a15,15,0,0,1-3.59,6,7.46,7.46,0,0,1,.23,2.53,32.27,32.27,0,0,1-2.41,6.34,22.21,22.21,0,0,0-2.35,6.87,6.12,6.12,0,0,1-.77,2.48,5.89,5.89,0,0,0-1.05,3.13,22.44,22.44,0,0,1-1,3.79c-.11.41-.45.82-.43,1.22.08,2-.91,3.7-2,5.3a1.82,1.82,0,0,0-.41,1.68,2.73,2.73,0,0,1-.18,1.78,5,5,0,0,0-.27,1.8,7.41,7.41,0,0,1-1.18,4.3c.19.95.34,1.76.5,2.56,1-1.14,1.07-2.68,1.65-4a12.49,12.49,0,0,0,1.19-4.43,7.33,7.33,0,0,1,1.2-4,11.58,11.58,0,0,0,2-5,2.54,2.54,0,0,1,1.38-1.92c.56.68.63,1.39.17,1.8-.62.56-.54,1.26-.71,1.91s-.24,1.38-.46,2c-.91,2.63-1.84,5.25-2.82,7.85a9.29,9.29,0,0,0-.68,4.35l0-.07a5.46,5.46,0,0,0,1.07-1.08c.44-.82.37-1.87,1.24-2.51.14-.1.09-.48.09-.74a6.92,6.92,0,0,1,1.9-4.84c.11-1.2.15-2.4,1.35-3.18.23-.14.19-.71.33-1.3.77,1.41.84,2.18.21,3a19.39,19.39,0,0,1-1.58,1.69c.69.65.15,1.5.35,2.24s.33,1.15,1,1.41a4.31,4.31,0,0,1,.83.58,10.42,10.42,0,0,1-.92,3.08c-.59,1.36-1.12,2.75-1.62,4.15a17.55,17.55,0,0,0-.54,4,24.89,24.89,0,0,0,1.92-3.45,20.57,20.57,0,0,1,2.76-5.55,3.68,3.68,0,0,0,.58-1.66c.3-1.58.06-3.31,1.27-4.68.3-.33.24-1,.29-1.52.08-1,.08-1.92.2-2.87a1.66,1.66,0,0,1,.55-1.08c.28-.16.77,0,1.1.06a5.91,5.91,0,0,1,.38-2,4.17,4.17,0,0,0,.56-2.76c-.19-2.27.92-4.22,1.57-6.28a4.71,4.71,0,0,1,1.49-2.09,1.41,1.41,0,0,0,.48-.89,5.65,5.65,0,0,1,1.53-3.5,13.3,13.3,0,0,0,1.14-2.61,25.86,25.86,0,0,1,1.72-3.78,43.9,43.9,0,0,0,2.86-4.38c.2-.41.69-.68,1.09-1.06a2.47,2.47,0,0,1,.35,2.6c-.69,1.79-1.29,3.64-2.15,5.35a64.25,64.25,0,0,0-4.36,9.5,63.6,63.6,0,0,0-2.19,6.68,36,36,0,0,1-1.53,4.45c-.24.72-.45,1.46-.69,2.21l-1.9.72a7.18,7.18,0,0,1,.06.79c-.1,1.47-.45,2.93.09,4.39a.88.88,0,0,1-.21.71c-.32.35-.49.62-.19,1.12a2.06,2.06,0,0,1,.26,1.24,4.91,4.91,0,0,0,.49,2.53,2.6,2.6,0,0,1,.06,1l-1.1.57c.16.76.55,1.5.37,2.06a5,5,0,0,0,.07,2.59l.49-1.54,1.24-.39a9.78,9.78,0,0,1,.69-4.46c.33-1,.49-2,.77-3,.06-.21.28-.38.42-.57l0,0c.18-.83.84-.72,1.44-.75,1.14-.06,1.32-.17,1.31-1.05-.07-3.42.92-6.66,1.5-9.83a4.89,4.89,0,0,1,.75-.61,2.63,2.63,0,0,0,1.59-2.75,2.91,2.91,0,0,1,.17-1.28c1-2.22,2-4.41,3-6.56,1.25,0,2.15-.22,2.41-1.52.12-.59.49-1.13.62-1.71.23-1.11,1-1.26,1.93-1.32a2.09,2.09,0,0,1,.17.41c.91.09,1.28-.42,1.39-1.23h0c.86-1.25,1-2.9,2.26-4,.16-.13.1-.49.18-.74a10.56,10.56,0,0,1,1.93-3.19,1.92,1.92,0,0,1,.14,2.55,40.09,40.09,0,0,0-1.94,4.82,17.84,17.84,0,0,1-.73,1.93c-1.12,2.25-2.3,4.48-3.45,6.72a3.29,3.29,0,0,0-.39,1,12.91,12.91,0,0,1-2.92,6,4.07,4.07,0,0,0-1.07,2.33,9.51,9.51,0,0,1-1.59,4.35c-.33.61-.7,1.2-1,1.83a87.39,87.39,0,0,0-3.14,8.45c-.25.81-.59,1.59-.89,2.38l1,.1a14,14,0,0,0,.46,2c.24.66-.6,1.54.5,2.15.21-1,.41-1.92.58-2.82s.3-1.88.5-2.81a14.33,14.33,0,0,1,.75-3c.42-.94,0-1.83.16-2.73a1.13,1.13,0,0,1,.19-.38c.71.15,1,.7,1.2,1.29.23-.09.53-.13.62-.3a19.45,19.45,0,0,0,1.16-2.33,48.16,48.16,0,0,1,4.18-8.68,9.62,9.62,0,0,0,1.79-3.71c.06-.46.33-.88.86-.75.27.06.53.39.69.65a4.11,4.11,0,0,1,.33,1c1.18-.19,1.76-.8,1.66-1.95,0-.18-.07-.38,0-.52s.3-.5.46-.5a3,3,0,0,1,.93.31c.46-1,.92-2,1.41-3a7.48,7.48,0,0,1,3.49-3.66c.19,1.14.39,2.14.53,3.15a3.21,3.21,0,0,1-.34,2.49c-.5.76-.43,3-.25,4.2.13-.07.33-.11.39-.22.69-1.3,1.38-2.61,2-3.94a27,27,0,0,1,2.08-3.85,3.73,3.73,0,0,1,.28-.38c.37.18.21.38,0,.58a2.09,2.09,0,0,1-.45,2.16c-1.87,2.5-2.6,5.42-3.18,8.4a4.47,4.47,0,0,0,1.62-.51c1.5-1.17,2.9-2.46,4.49-3.83a3.06,3.06,0,0,0,3.46-1.86,2.5,2.5,0,0,1,1.2-1c1-.48,2-1.11,2.93-1.67,1.31-.74,2.59-1.84,4.32-1.33.27,1-.9.84-1.15,1.42,0,.4.82.53.4,1.1l-1.21.6c.35.85,1.59.78,1.44,1.92-.69.54-1.85.49-2.26,1.55a5.53,5.53,0,0,1-4.38,3.58.86.86,0,0,0-.71,1c0,.58.38.59.88.59.32,0,.64.4.9.58l1.36-1.11c.51,1.29,1.71,1.94,1.69,3.35a2.84,2.84,0,0,0,1.83,3c.12.69.18,1.2.3,1.69,0,.08.27.12.43.14s.18-.08.18-.13a7.08,7.08,0,0,0,0-1c-.34-2.25,0-2.86,2-3.94a1.75,1.75,0,0,1,.53-.09l.51.86c-.09.94-1.32,1-.82,2.11a2.34,2.34,0,0,1,2.49,1.22c.08.16.37.21.6.28-.11-.64-.24-1.28-.31-1.92a2.33,2.33,0,0,1,.94-2.3,19.19,19.19,0,0,1,3-1.59,1.42,1.42,0,0,1,1.82.63,1.09,1.09,0,0,1-.31,1.41,2.8,2.8,0,0,0-.71,2.12,9.74,9.74,0,0,1-1,2.38,1.9,1.9,0,0,0,0,.78c.13,1.46.12,1.42-1.24,2s-2.82,1.7-4.48,2a11.5,11.5,0,0,1-4.88,2.42c-1.84.57-3.44,1.61-5.26,2.24s-3.59,2.06-5.53,2.85a1.11,1.11,0,0,0-.22,1.94c1.29,1.12,2.27,1.17,3.74.2a5.78,5.78,0,0,1,1.12-.66c.88-.34,1.24-1.12,1.67-1.93.46,0,.89.06,1.32.12.58.08.62-.53,1-.73a1.31,1.31,0,0,1,.76-.1,2.41,2.41,0,0,0,2.3-1,5.8,5.8,0,0,1,3.55-1.78,5.71,5.71,0,0,0,1.81-.8c.33.27.69.81,1,.78a9.8,9.8,0,0,1,3.58.34c1.34-.65,2.76-.12,4.27-.3a3.21,3.21,0,0,0,2,2.54,2.55,2.55,0,0,1,1.6,2.48c-.72.38-1.4.75-2.09,1.09-2.35,1.15-4.69,2.33-7.06,3.44a14.51,14.51,0,0,1-4.42,1.44h0a1.89,1.89,0,0,0-2.18,0c-1.29.66-2.74.88-4,1.72-1.49,1-3.5,1.1-4.81,2.52-.15.17-.49.17-.75.22a4.91,4.91,0,0,0-4,3.93,1.25,1.25,0,0,0,1.72-.11,13.13,13.13,0,0,1,3.66-1.94,12.41,12.41,0,0,0,1.64-.79,3.17,3.17,0,0,1,3.52-.34c1.7-2.66,4.14-2.13,6.47-1.62.47.16-.17,1,.65.87.07,0,.19-.09.21-.15.55-2.19,1.57-3.87,4.17-3.82a1.32,1.32,0,0,0,.26,0,1.72,1.72,0,0,0,1.47-1,2.71,2.71,0,0,1,2.27-1.55,19.91,19.91,0,0,0,2-.62c1.41-.46,2.81-1,4.23-1.38.62-.17,1.33-.48,2.06.34l-4,2.21,3.67-.15c.49-.39.79-.81,1.14-.86.73-.1.75.59.82,1.07a8.06,8.06,0,0,1,0,1.3l0-.06c.34.19.9-.12,1.08.53a3.63,3.63,0,0,1-2.8,2c-1.9.23-3.27,1.68-5.12,1.89-.23,0-.44.28-.63.46a9,9,0,0,1-4.17,2,2.54,2.54,0,0,0-1.38.6c-.71.93-1.79,1.05-2.73,1.44-1.26.54-2.75.48-3.81,1.55a.61.61,0,0,1-.5,0c-.62-.19-1,.17-1.33.57a4.63,4.63,0,0,1-1.21.94c-.84.45-1.73.8-2.58,1.23a1.6,1.6,0,0,0-1,1.92c.3,1.23,0,2.63,1,3.69.18.18,0,.73-.05,1.34,2.5-1.44,4.54-3.55,7.53-3.26.05.29.16.55.09.6-.58.51-1.19,1-1.79,1.47-1.17-.39-1.62.72-2.38,1.17a26.71,26.71,0,0,1-5.23,2.9c-.72.23-1,.7-.84,1.09s.68.47,1.11.52a1.29,1.29,0,0,0,.52,0,3.28,3.28,0,0,1,2.5,0,2.67,2.67,0,0,0,2.44-.6c1.19-.87,2.45-1.66,3.72-2.43a4.1,4.1,0,0,1,3.23-.85c-.14.53-.25.93-.35,1.33l.14.12c.87-.38,1.75-.74,2.61-1.14a3.28,3.28,0,0,0,1.51-.89,3.91,3.91,0,0,1,4.29-1.64l.65-1.29,1.56,1.29a3.2,3.2,0,0,0-1.32,2.48c0,.3-.38.56-.56.84,0,.06,0,.15,0,.12l1.36.34c0,.55,0,1,.05,1.41s.15,1,.25,1.59a5.52,5.52,0,0,1-1.34.73,4,4,0,0,0-2.74,2,6.43,6.43,0,0,0,1.17-.27c1.63-.63,3.24-1.3,4.87-1.94a1,1,0,0,1,1.39.48c-.34.23-.69.45-1,.71a5.71,5.71,0,0,0-1.54,1.37,3.54,3.54,0,0,1-2.38,1.7c-.83-.56-.83-.56-1.67-.24,1,1.32,2.36,1.15,3.76.68.49-.17,1-.39,1.47-.54a.49.49,0,0,1,.42.2.59.59,0,0,1,0,.47,2.64,2.64,0,0,1-1.65,1.21,13.74,13.74,0,0,0-4.13,2.69c.79,1,1.63.44,2.47.29a4.47,4.47,0,0,1,.69-1.34,3.09,3.09,0,0,1,1.41-.64,6.86,6.86,0,0,1,1.81-.16,2.05,2.05,0,0,0,1.92-.56c.61-.88,1.32-.58,1.88-.48l2.7,3.62c.26.35.59.66.35,1.23a3.76,3.76,0,0,1-.55.43,40.35,40.35,0,0,0-5.95,3.24,36.69,36.69,0,0,1-4,2.35l-.33.21c0-.12.07-.25.11-.37-.32-.75.17-1.28.47-1.87,1,.4,1.73.1,2.15-1.17-1.16.25-2.17.43-3.16.72a.91.91,0,0,0-.59,1c0,.1-.19.22-.29.32l-1.72-.44-.59,1c.49.13.52.34.11.61l2.56.95c.16,1.06.14,1-.16,1.3-.8.71-2,.71-2.75,1.48.4-.07.84-.23,1.15-.08a2.17,2.17,0,0,0,2.41-.37,8.13,8.13,0,0,0,1.93-1.7c1.1-1.61,2.86-2.47,4.16-3.85a1.46,1.46,0,0,1,2.08-.18c.94.14,1.2.4,1,1-.09.24-.25.46-.34.7s-.63.41-.08.94c.48-.23,1-.49,1.53-.73a5.49,5.49,0,0,1,1.19-.48c.19,0,.47.15.65.31a.54.54,0,0,1,.06.48c-.25.52-.55,1-.9,1.65a4.43,4.43,0,0,0,1.09.43c.82,0,.92.65,1.12,1.23,0,.12.27.19.48.32l2-.92c-.09.49,0,.85-.17.92-.82.45-1.68.84-2.44,1.21-.09,2.53.11,2.76,2.3,2.87a7.17,7.17,0,0,1,.85.15l1.4,2.32,4.23,1.11c.07-1.9,1.48-2.24,2.83-2.66.25-.08.51-.14.76-.2,1.15-.28,1.15-.28,1.82,1.12a1.9,1.9,0,0,1-1.86,1.13c-.08,0-.19.24-.36.45.24.65.5,1.34.77,2-.31.21-.52.47-.74.48-1,.05-2.09-.08-3.11.07s-1.81.73-2.74.81c-1.27.1-1.58,1.28-2.45,1.79a3.76,3.76,0,0,1-1.41.62,5.36,5.36,0,0,0-2.83,1.27c-.53.41-1.41.4-1.58,1.25l-1.88.44a1.38,1.38,0,0,0-.22.1,1.86,1.86,0,0,0-2.31-.48c-.8.31-1.57.69-2.46,1.08a2.4,2.4,0,0,1-2.29,2.31,1.35,1.35,0,0,0-.45.25c-.26.16-.29.8,0,.9.47.16,1,.2,1.46.34.12,0,.19.23.31.4a4.57,4.57,0,0,0-.31.67,4.12,4.12,0,0,0,0,.7,1.62,1.62,0,0,0,2,0c.37-.33,1-.83.91-1.15-.22-1.17.63-1.78,1.14-2.53a2.75,2.75,0,0,1,2.69-1.22A6.29,6.29,0,0,0,216,235c1.15-.4,2.22-1,3.33-1.5l6.15-2.87a4.32,4.32,0,0,1,.71-.17c.37.53-.24.52-.32.78-.13.41-.23.82-.38,1.35a7.36,7.36,0,0,0,3.13.08,5.36,5.36,0,0,1,1.54-.29,6.35,6.35,0,0,0,4.51-.72c.32-.21.86-.11,1.29-.17a12.82,12.82,0,0,0,2.06-.33,4.6,4.6,0,0,0,1.31-.77.51.51,0,0,0-.18-.85,12.32,12.32,0,0,0-1.49-.26c1.49-1,2.74-1.71,4.28-1.61.25,0,.49.34.73.56,2.08-.1,2.68-.3,3.63-1.2-.37-.49-.84.79-1.24-.19a14.46,14.46,0,0,1,3.52-2.08,96.41,96.41,0,0,0,9.26-4.5,19.1,19.1,0,0,1,4.07-1.66c1.11-.35,2.56,0,3.39-1.24.14-.21.65-.16,1-.26a20.26,20.26,0,0,0,3-.93c1.09-.49,2.26-.84,3.36-1.35s2.45-.91,3.6.27c.35.36.8,0,1.13-.3l0,0,.5-.69,0,0c-.06-.81.5-1.05,1.11-1.22a10.7,10.7,0,0,0,2.26-.59,14.18,14.18,0,0,1,4.81-1.16,2.18,2.18,0,0,1,2.68,1.54l.24.71c.84.15,1.69.26,2.51.46a.81.81,0,0,1,.31,1.3,2.12,2.12,0,0,1-.61.47,1.88,1.88,0,0,0-1.19,1.55c-.16.89-1,1.19-1.85.64-1-.67-1.76-.31-2.65.07.11.48.19.86.34,1.51a12,12,0,0,0-2.17-.89c-.89-.19-1,0-1.89,1.57a11.89,11.89,0,0,1,1.5-.81c.16-.06.41.15.62.24-.08.15-.12.38-.24.43a6.63,6.63,0,0,1-1,.24,2.53,2.53,0,0,0-1.71,1.34,1.4,1.4,0,0,0,1.93.37,51,51,0,0,1,10.72-4c3.62-1,6.84.3,10,1.84.15.08.23.28.38.36a2.06,2.06,0,0,0,.72.25,27.54,27.54,0,0,0,3.39.14,3,3,0,0,0,1.94-.64c1-1.1,2.37-1.5,3.41-2.4a6.8,6.8,0,0,1,3.72-1.74c.41-.05,1-.25,1.13-.54.53-1.48,1.81-1.92,3-2.55.89-.47,1.47-1.52,2.71-1.33a.81.81,0,0,0,.66-.36c.64-1.13,1.88-1.41,2.82-2.1h.08c-.13-.09-.35-.17-.37-.29a4.2,4.2,0,0,1,0-.87c.37,0,.81-.09.84.47,1.43-.65,2.49-2.07,4.23-2.11.62-1.1,2-1.39,2.64-2.4a4.14,4.14,0,0,1,2-1.52,9,9,0,0,0,1.6-.83,11,11,0,0,1,2-1c1.38-.62,3-.8,4-2.15h0c.8.67,1.64.18,2.37-.11a31,31,0,0,0,3.19-1.64l-.52-1.25c-.71,0-1.57.3-2.07-.74a4.67,4.67,0,0,1,.22-.9c.25-.56.59-1.07.83-1.63a.91.91,0,0,0,0-.74,3.26,3.26,0,0,0-.82-.47c-.19-.12-.36-.27-.68-.5l2.25-1.87c.58.55,0,1.61.95,2.07a10.67,10.67,0,0,1,2,1.66c.12-.47.31-.79.22-.91a8,8,0,0,0-1.08-1.09,1.08,1.08,0,0,1-.28-1.41c.32-.56.85-.48,1.37-.26a7.21,7.21,0,0,0,.72.21c.36-.51.61-1.23,1.06-1.4A7.06,7.06,0,0,0,356,186a5.9,5.9,0,0,1,1.78-.52c-.66-.7-1.26-.33-1.81-.32s-1.41.32-1.87-.67c.52-.3,1.11-.93,1.53-.83,1.32.31,1.83-.71,2.59-1.31a12.48,12.48,0,0,0,1.23-1.26c1.7,1.59,2.27-.79,3.54-1l1.3.61c0-.78.05-1.36.12-1.95,0-.11.22-.2.33-.29a1.57,1.57,0,0,1,.26.33c.35.77.77.91,1.24.37-.13-.38-.27-.77-.4-1.17.9-1.29,2.22-.46,3.37-.91-.1.44-.15.66-.21.94l.73-.12v-2.25c2-.5,4-.18,5.58-1.52.17-.15.63.06,1,.08a1.22,1.22,0,0,0,1.46-1.14l.09,0c-.45-.12-.48-.32-.15-.59l.36-.57c.07.15.13.31.19.46,1.5-.08,2.92-.33,3.91-1.67a1.46,1.46,0,0,1,.9-.47c2.1-.35,3.88-1.53,5.83-2.25.95-.35,1.76-1,2.78-1.26a14.38,14.38,0,0,0,2.64-1.24l1.23-1.69c.36.4.59.63.78.88s.41.79,1,.71c.12-.16.44-.39.4-.54-.21-.82-.07-1.44.86-1.51.69-.06.79-.54,1-1,.09-.18.43-.22.62-.31,1,.75.44,1.79.62,2.81a7.34,7.34,0,0,1,1.18-.34,10.68,10.68,0,0,1,1.4,0,10.72,10.72,0,0,1-.05-1.08c0-.65.37-1,1-1,.25,0,.52.22.75.18s1-.2,1.07-.44c.18-.61-.43-.61-.84-.64-.75,0-1.5,0-2.41-.07.1-.38.09-.83.29-.95.65-.4,1.42-.56,1.94-1.25.33-.43,1.3-.61,1.36-1,.17-1.06,1-.76,1.54-1.05.2-.1.29-.56.3-.86,0-.82-.28-1.63.47-2.37.26-.26.1-1,.12-1.35-.5-.42-1.23-.09-1.41-1,.65-.37,1.34-.8,2.08-1.15a6.23,6.23,0,0,1,1.32-.32c.05.61.09,1,.12,1.45l.13.07a12.28,12.28,0,0,0,1.31-.65,8.66,8.66,0,0,0,1-1c.08.72.12,1.11.18,1.66l-2.47.46.41,1.45c1-1,1-1,2.27-1.15,1-.13,1.14-.25,1.42-1.36-1.3-.58-1.37-.79-.63-1.7.37-.45.74-.91,1.14-1.33a1.76,1.76,0,0,1,2.05-.55,3.24,3.24,0,0,0,1,.06c.26-.18.4-.18.26.19s-.07,1,0,1.52a.84.84,0,0,0,.34.6.8.8,0,0,0,.71.07,21.42,21.42,0,0,0,1.68-1.62c.36-.37.62-.91,1.05-1.13a7.49,7.49,0,0,1,2-.37c-.65-.38-.91-.65-1.19-.67s-.62.26-.94.27a.88.88,0,0,1-.56-.38c.11-.29.3-.72.5-.75a6.85,6.85,0,0,1,2.3-.05c.56.12.71-.09,1-.42A2.52,2.52,0,0,1,429,144c.55-1.93,2.8-1.13,3.82-2.36a1.66,1.66,0,0,1,1.22-.37,3.88,3.88,0,0,1,1.24.52c1-1.2,2.85-1.21,3.73-2.68.15-.24.61-.34.95-.41a27.12,27.12,0,0,1,3.1-.53,1.5,1.5,0,0,1,1.11.5c.34.44.11,1-.17,1.45-.39.71-1.66.25-1.73,1.37,0,.09-.49.08-.68.22-1,.72-1.76-.19-2.84-.31-.28,1-1.54,1.08-2,2.2a2,2,0,0,1-1.94,1.08,5.29,5.29,0,0,0-2,.39,1.65,1.65,0,0,0-1.12,2.16c.52-.27,1-.5,1.39-.74a12.24,12.24,0,0,1,2.75-1.43,6.59,6.59,0,0,0,3.31-1.38,2.14,2.14,0,0,1,1.2-.44c2.52-.18,4.54-1.73,6.84-2.48a1.68,1.68,0,0,0,.65-.43,9.91,9.91,0,0,1,3.5-2.12,16.57,16.57,0,0,0,1.61-.86l.32-.61c.11.09.34.22.32.25a3.11,3.11,0,0,1-.32.56c.49.26,1.19.42,1.24-.22a1.78,1.78,0,0,1,1.38-1.68,3.4,3.4,0,0,0,2.4-2,5.51,5.51,0,0,0-3.22,1.2,2.55,2.55,0,0,1-2.14.72c-.22,0-.48.14-.73.22l-4.36,1.45a1.11,1.11,0,0,1,1-1.24c.55-.14,1.17-.19,1.29-1.09-1,.36-1.86.68-2.73,1s-2.12-.06-2.94.81c-3.16.28-6.14,1.65-9.35,1.66-.42-.92,1.22-.66.82-1.69a19.33,19.33,0,0,1-2.3,1.1,11.62,11.62,0,0,1-2.78.61,1.78,1.78,0,0,1-1.67-1.06c-.36-.61-.48-1.08,0-1.63l2.53-.68c.18-.37.31-.69.48-1a10.11,10.11,0,0,1,.6-.84l2,1.53c.24-2.25.29-2.35,2.35-2.7a13.2,13.2,0,0,1,2.35-.15,3.67,3.67,0,0,1,1,.37,11.35,11.35,0,0,0-1.15,1,10.39,10.39,0,0,0-.9,1.27c-.06.09,0,.25,0,.38l1.51-.24c.47-.59.71-1.18,1.1-1.3a2.1,2.1,0,0,1,1.44.33,3,3,0,0,1,.81.95c.24.33.45.68.85,1.31.51-1.9,2.15-2.42,3.15-3.61-.8-.32-1.25.07-1.79.4-.92.55-1.15.41-2.06-.89.66-.94.81-2.25,2-2.87-.13-.19-.26-.38-.35-.53a7.82,7.82,0,0,1-2.54.46c-1.05-.17-1.33,1.05-2.39.94-.34-.89-.32-2.07-1.4-2.58-1.26.4-1.26.4-2.19-.3a17.2,17.2,0,0,0,4.28-4.23,1.51,1.51,0,0,1,1.85-.55A4.49,4.49,0,0,0,443,126c1.46-.56,1.46-.56,1.24-2.22a1.84,1.84,0,0,1-1.52-.37c.72-.73,1.07-1.79,2.32-1.88l1.73,1.6c.73-.51,1.38-.93,2-1.42.21-.18.28-.55.51-1l-2,.18c-.84-.74-.42-1.57-.08-2.35a.89.89,0,0,1,.64-.37,3.25,3.25,0,0,1,1,.13c1.18.29,2.33.74,3.47-.25.38-.34,1.05.07,1.46.71.79,1.21.78,1.2,1.75-.1.06-.09.31,0,.51,0,.15.18.32.37.47.58a6.82,6.82,0,0,1,.4.59c.76-.17.68-1,1.51-1.3,1.94-.59,2.75-2.81,4.64-3.62.41-.18.65-.78.94-1.21a4.69,4.69,0,0,0,.33-.72,4,4,0,0,1,.26-.45,1.07,1.07,0,0,1,1.42-.09,14.11,14.11,0,0,1,1,1.08c2.13-1.14,3.94-2.59,6.36-2.5a13.38,13.38,0,0,0-.17-1.65,1.16,1.16,0,0,0-1.17-.92c-.68.59-1.23,1.14-1.84,1.6-.27.2-.66.24-.89-.36a9.52,9.52,0,0,1,1.32-1.76,14,14,0,0,1,2.19-1.29c1.32-.78,2.33-1.74,2.2-3.46,0-.29.29-.6.44-.91,1.1.24,2.13.54,2.61-.85.29-.86,1.06-.74,1.76-.76.92,0,1.12.69,1.41,1.51.4-2.29.58-2.43,2.49-2.78a18.35,18.35,0,0,0,2.37-.8c.26.57.44,1,.71,1.59.56-1.06,1-1.88,1.39-2.64l-.79-1.06,1.5-.42.8,1.41,3.87-.62c.16-.54.31-1,.47-1.55a14,14,0,0,0,1.59.19.74.74,0,0,0,.56-.41.83.83,0,0,0-.19-.68c-.14-.16-.62-.19-.63-.3-.09-1-.77-1.27-1.65-1.23-.43,0-.87.08-1.3.08-.12,0-.24-.17-.37-.27.06-.53.13-1.08.21-1.79-.83.27-1.47.5-2.13.68-.5.13-.94-.33-.67-.74a1.22,1.22,0,0,0-.19-1.84c-.68.82-1.07,1.93-2.29,2.3a2,2,0,0,1,.6-2.39l2.27-1.83a5.5,5.5,0,0,0,.55.54c1.16.87,2.1.74,2.86-.41a4.17,4.17,0,0,0,.5-1.19c.17-.67.28-1.35.4-2,.86-.51,1.65-1,2.51-1.46a3.78,3.78,0,0,1,1.74-.49c2.48.13,4.74-1.15,7.2-1,.67-.51,1.34-.21,2,0a13.87,13.87,0,0,1,1.5.78c.4-1.74,2.3-1.57,3.11-2.88l-.92-1-2.12,1-.55-.18-.71-.27c-1.47,1.05-1.47,1.05-2.61.2a9.75,9.75,0,0,1-1.6,1.23c-.58.28-1.28.49-1.8-.17a8.05,8.05,0,0,1-3.91,1.18.72.72,0,0,1-.55-.41c0-.19.22-.61.32-.61,1.76.12,2.57-1.7,4.1-2,.59.23.36.73.42,1.13l.1.07c1.08-1.95,1.08-1.95,3.44-2.1v0c.28.12.6.32.82.24a16.12,16.12,0,0,1,3.58-.52c.67-.07,1.33-.26,2.06-.41.07-.68.13-1.24.19-1.76-1.41-.92-1.41-1-2.4-.85-.63.08-1.3.17-1.69-.34-.27-.35-.21-1-.34-1.43-.07-.24-.26-.45-.35-.69-.17-.5.07-.78.68-1,.36.59.62,1.45,1.61,1.26.7-1.66,1.16-1.9,2.63-1.1a1.93,1.93,0,0,0,1.19.28.85.85,0,0,0,.82-1l-1.23.38A2.73,2.73,0,0,1,513,69Zm1.1-54.38.17.13-.35.51h0c-.05-.05-.1-.1-.09-.12A5.12,5.12,0,0,1,514.14,14.66Zm-380.25,34a.74.74,0,0,1-.45-.48.8.8,0,0,1,.49-1c.22-.06.52.2.69.27C134.73,48.22,134.38,48.72,133.89,48.62Zm2.66,1.48c.3-.26.34-.09.34.14Zm.69-10.55-.32-.22C137.31,39.13,137.26,39.36,137.24,39.55Zm3.95-9.72c-.15.05-.39-.13-.59-.21.14-.27.27-.54.49-1,.25.35.48.53.47.69A.73.73,0,0,1,141.19,29.83Zm10.06,7.26c-.09,0-.27-.16-.38-.27a.27.27,0,0,1-.09-.23,2.56,2.56,0,0,1,.27-.45,3.72,3.72,0,0,1,2.58-1.29C153.55,36.74,152.25,36.74,151.25,37.09Zm-21.2,104a.75.75,0,0,1-.47-.48c-.1-.46.06-.93.55-1,.22,0,.49.35.61.45C130.84,140.69,130.47,141.15,130.05,141.05Zm8.26,15.16c-1.07-.75-.74-1.43-.46-2.11C138.44,154.53,138.44,154.53,138.31,156.21Zm13-44.57c-.3.8-.72,1.54-1.32,2.78a4.14,4.14,0,0,1,.25-3.37c.09-.2.56-.23.85-.33C151.15,111,151.38,111.4,151.29,111.64Zm.76-46.06c-.39-.35-.72-.52-.76-.74-.12-.58.19-.88,1.07-.92C152.24,64.53,152.17,64.92,152.05,65.58Zm.49-2.43c-.12.06-.31,0-.47,0,.07-.15.1-.34.21-.43s.26,0,.4.06C152.63,62.88,152.63,63.11,152.54,63.15Zm.39-6.45c-.06-.49-.13-1-.19-1.47C153.55,55.77,153.58,56.09,152.93,56.7Zm3.73-.13a.56.56,0,0,1-.47.1c-.12-.05-.28-.26-.26-.37.1-.56.25-1.11.38-1.67C157.26,55.31,157.24,56,156.66,56.57Zm2.16-2.75a.72.72,0,0,1-.58-.38.71.71,0,0,1,.27-.63,3.4,3.4,0,0,1,1-.18C159.69,53.37,159.48,53.78,158.82,53.82ZM146.21,159.39A2.82,2.82,0,0,1,146,159s.1-.13.15-.19a1.59,1.59,0,0,1,.21.41S146.26,159.32,146.21,159.39ZM162.16,3.06a.65.65,0,0,1,.13,1.07c-1,.16-1.66-.46-2.43-1.11A2.24,2.24,0,0,1,162.16,3.06Zm2.43,21.62c-1.39.09-2.83.57-4.12-.39,0-.16,0-.4.13-.47a4.92,4.92,0,0,1,3.93-.81,1.14,1.14,0,0,1,.66.68A.75.75,0,0,1,164.59,24.68Zm9.3,109.55a.84.84,0,0,1-.57.37c-.26,0-.37-.54-.17-.89a2.44,2.44,0,0,1,.32-.4,4.39,4.39,0,0,1,.4-.33l.37.13A6.64,6.64,0,0,1,173.89,134.23ZM174.76-.51a1.4,1.4,0,0,1-.49.78c-.26.15-.88-.5-.77-.84s.4-.48.55-.64C174.6-1.13,174.89-.94,174.76-.51Zm19,159.29a2.22,2.22,0,0,1-.37-.09,2.18,2.18,0,0,1,.31-.22s.1.08.16.13S193.78,158.78,193.75,158.78Zm.69,28.5a3.73,3.73,0,0,1,3.46-1.67A6.43,6.43,0,0,1,194.44,187.28Zm5.36-5.79a9.43,9.43,0,0,0-3.76,1.73,1.34,1.34,0,0,1-.44.27c-2.56.85-4.84,2.3-7.28,3.38a5.5,5.5,0,0,1-4.18.47c.25-.4.36-.76.6-.92,1.72-1.14,3.39-2.41,5.58-2.6a1.92,1.92,0,0,0,1-.68,4.81,4.81,0,0,1,2.46-1.4,5.22,5.22,0,0,0,1.7-.65c1.63-1.09,3.54-1.39,5.44-2.16l.8,1.22A3.21,3.21,0,0,1,199.8,181.49Zm7.36,14.7c-.19,0-.39-.16-.58-.26.13-.1.25-.29.38-.29a7.13,7.13,0,0,1,1.15.12A3.85,3.85,0,0,1,207.16,196.19Zm11.93-3.74-.38.3a3.78,3.78,0,0,1-.46-.1c-.05,0-.07-.11-.1-.17a2.91,2.91,0,0,1,.62-.29C218.86,192.17,219,192.36,219.09,192.45Zm-4-201.06a2,2,0,0,1,.79.13c.22.68-.12,1.35-.65,1.35a1,1,0,0,1-.75-.51A.73.73,0,0,1,215.07-8.61ZM199.68,98.7c1.19-1.15,2.43-2.23,3.71-3.28a1.61,1.61,0,0,0,.52-1.08,3.37,3.37,0,0,1,1.63-2.49c.9-.51,1.56-1.34,2.53-1.82.46-.24,1.25-.64,1.29-1.5,0-.13.55-.34.82-.32a.76.76,0,0,1,.74.91c-.3,1.37-.74,2.73-2.12,3.4a2.17,2.17,0,0,0-1.16,1.29,7.73,7.73,0,0,1-2.93,3.61,1.75,1.75,0,0,1-.17.47c-.44.61-.52.59-.93-.18a37.1,37.1,0,0,1-5.63,4.43c-.13.09-.44-.1-.68-.16A7.82,7.82,0,0,1,199.68,98.7ZM184.42-8.52A8.22,8.22,0,0,1,188-12c.11,1.64.07,2.78-1.22,3.49-.34.19-.51.68-.77,1s-.69.68-1.08.38-.36-.73-.51-1.12A.31.31,0,0,1,184.42-8.52Zm3.21,123.94a1.77,1.77,0,0,1-1.18,1.53,1.17,1.17,0,0,1-.91-.24.74.74,0,0,1-.1-.71,2.32,2.32,0,0,1,.84-.89A.94.94,0,0,1,187.63,115.42Zm-6.45-128a.9.9,0,0,1,1.17-.26c.13.06.22.23.32.35a1.39,1.39,0,0,1-1.46,1.41c-.14,0-.37-.22-.36-.31A3,3,0,0,1,181.18-12.62Zm-2.4,3.87a2,2,0,0,1,.34.2l-.27.29a4,4,0,0,1-.22-.34S178.75-8.77,178.78-8.75Zm-2.46,141.24c0-.13-.18-.35-.14-.39a1.7,1.7,0,0,1,.57-.37s.17.21.36.45Zm1.44-48.83c-.5.46-1.07,1-1.82.37.58-1.88,2.09-3.08,3.42-4.33a9.4,9.4,0,0,0,1.95-2.32,2,2,0,0,1,2.78-.85,10.21,10.21,0,0,1-2.4,4.12.38.38,0,0,1-.22.13C179.61,81,178.91,82.59,177.76,83.66Zm6.87,44.57a5.31,5.31,0,0,0-2.32,1.9c-.16.18-.59.11-1.21.21.38-.84.64-1.44.91-2,.67-.31,1.33-.64,2-.9a.76.76,0,0,1,.68.18C184.81,127.71,184.73,128.2,184.63,128.23Zm1.32-3.16a10.53,10.53,0,0,1-2.68,2c-.5.18-.85.75-1.25,1.17-2.36-1-2.7-2-1.42-4.15.6-1,1.35-2,2.15-3.16l1.29,2.77c.82-.07,1.58-.94,2.45-.18A1.3,1.3,0,0,1,186,125.07Zm1.87-5.76a5.64,5.64,0,0,0,2.21-2.15c.51-.78,1.3-1.27,1.69-2.24a5.41,5.41,0,0,1,3.05-3,1.34,1.34,0,0,1-.07,1.65c-.87,1.17-1.77,2.32-2.65,3.48a17.89,17.89,0,0,0-1.38,1.89,9.26,9.26,0,0,1-3,2.82C186.81,120.29,186.78,119.84,187.82,119.31Zm-.25,13.05c-.1-.2-.28-.39-.28-.59s.31-.2.49-.3a2.83,2.83,0,0,1,.25.6C188,132.13,187.78,132.24,187.57,132.36Zm1.65,4.09a.54.54,0,0,1-.87.12c-.19-.19-.36-.65-.26-.83a4,4,0,0,1,1-1.11c.12-.09.45.1.87.2A17.65,17.65,0,0,1,189.22,136.45Zm6-5.13a5.42,5.42,0,0,1-.64.42c-.31.16-.64.27-.94.45-.52.31-1,.65-1.46.94l-2.44-.4c.37-.34.56-.64.83-.75a14.85,14.85,0,0,0,3.86-1.93c.18-.14.67,0,.95.13S195.58,131.06,195.26,131.32Zm.46-3.14c-.28,0-.54-.37-.9-.62a11.54,11.54,0,0,1-1,1.52,5.46,5.46,0,0,1-1.57,1.27,10.4,10.4,0,0,1-2,.51c-.79-.44-1.94-.51-1.85-2l2.14-.35c-.05.06.09,0,.18-.18.23-.35.35-.88.67-1a15.58,15.58,0,0,0,4.51-3.08c.25-.28.77-.33,1.24-.52l.83,1.35,1.72-.16a4.17,4.17,0,0,1-.36,1c-.32.41-.81.7-1.07,1.14A2.49,2.49,0,0,1,195.72,128.18Zm4.91-1c.45-.62.69-1.39,1.54-1.53a1,1,0,0,1,.86.27,1,1,0,0,1-.1.92c-.94,1-1.93,1.92-2.94,2.83-.61.54-1.25.33-2-.11.16-.38.33-.76.48-1.14C198.91,127.47,200.17,127.87,200.63,127.22Zm2.69,14a2.25,2.25,0,0,0-1.34,1.63c-.49,1.49-2,2.07-3.1,3a1,1,0,0,1-1.57-.77,6.69,6.69,0,0,1,.62-3.24c.19-.66.87-.78,1.41-1,1.9-.95,1.9-.95,4.29-.67C203.53,140.52,203.54,141.16,203.32,141.24Zm-1.21-21.86c-.6,0-1.21,0-1.81.06l0,0c0,.08-.06.2-.12.23a13.72,13.72,0,0,0-4.61,3.32l-1.35-1.24c1.79-3.49,2.74-3.56,6.39-4.32,0-.45,0-.94,0-1.43,0-.69-.34-1-1.06-1.22a1.39,1.39,0,0,1-.49-2.44c.66-.58,1.36-1.08,2.07-1.64-.05-.54-.09-1-.14-1.61-.92-.14-1.83,1-2.85-.2a5.07,5.07,0,0,1,.33-2.51,8.53,8.53,0,0,1,2.19-2.17,8.68,8.68,0,0,1,2-.79,8.82,8.82,0,0,0,.71,1.5,13.14,13.14,0,0,0,1.06,1.05c.1.1.06.33.08.5l0-.05,1.77-1.64,1.45,1.58,1.86-.56c-.22,1.07-.72,1.91.09,2.8a1.78,1.78,0,0,1,.08,1.72c-.67,1-.16,1.79.09,2.66a8.7,8.7,0,0,1-3,2.91,6,6,0,0,0-2.27,2.09A2.81,2.81,0,0,1,202.11,119.38Zm3.23,15.81c-.64-.4-.47-.9-.11-1.08,1.41-.74,2.73-1.79,4.85-1.61A19.71,19.71,0,0,1,205.34,135.19Zm7-17.26a3.39,3.39,0,0,0-3,1.38c-.58.55-1.16,1.33-2.49.94a8.75,8.75,0,0,1,3.58-3.56,5.36,5.36,0,0,0,2.53-2,3.49,3.49,0,0,1,1.64-1.2,1.56,1.56,0,0,1,1.94.24c.16.17.66.13,1,0s.77-.39,1.29-.16c-.1.29-.1.63-.26.73q-2.6,1.72-5.25,3.38A2.34,2.34,0,0,1,212.39,117.93Zm2.72,87.31c-.08.11-.28.14-.43.2,0-.22-.15-.49-.06-.64a2.79,2.79,0,0,1,.64-.59l.24.19A8,8,0,0,1,215.11,205.24Zm.28-11.21c1-.66,1-.66,1.89-.5C216.66,193.62,216.52,194.84,215.39,194Zm1.08,4.56c-.85-1.11-.46-2-.17-3,2-.48,2-.48,2.28,1.68Zm3.78,14.83a.88.88,0,0,1-1.06.56.78.78,0,0,1-.56-.41c-.1-.31-.18-.8,0-1a12.36,12.36,0,0,1,1.81-1.25A14.16,14.16,0,0,1,220.25,213.42Zm46.36-108.26.22.45-.27.34-.49-.46ZM230.31-6.72c.13.06.32.08.38.18s-.06.26-.1.39c-.12-.06-.3-.09-.35-.18S230.28-6.59,230.31-6.72Zm.33,194.8c-1,.17-1.8.9-2.84.43C229,187.27,229.22,187.21,230.64,188.08Zm-4.3,3.2c-1,1.46-1.12,1.52-3.32,1.36C224.14,191.48,225,190.75,226.34,191.28Zm.93,27c.44-.87,1-1.16,1.79-.83C228.61,217.94,228.29,218.68,227.27,218.27Zm-1.63-17.54a22.29,22.29,0,0,1-3.06,0c-.05,0-.09-.29-.17-.56,2.32-.76,4.72-1.18,7.07-1.81C228.08,199.88,227,200.56,225.64,200.73Zm4.89-10.07a.93.93,0,0,1-1.18-.52c2.07-1.42,4.56-2,6.63-3.5-.18-.48-.55-.18-.8-.17-.44,0-.87.13-1.3.15a8.87,8.87,0,0,1-1.22-.12c.26-.45.35-.79.57-1,.61-.49,1.28-.9,1.91-1.36a2.86,2.86,0,0,0,.77-.64c1.19-1.73,1.23-1.77,3.37-2.07-.2.37-.37.7-.54,1a6.6,6.6,0,0,0,1.34-.35c1.17-.56,2.29-1.25,3.48-1.76a7.05,7.05,0,0,0,3-2,2.54,2.54,0,0,1,1.54-.9,4.33,4.33,0,0,0,1.45-.56,4.73,4.73,0,0,1,3.91-.49l.52,1.65c.13,0,.31.08.44,0,.32-.13.6-.36.93-.47a2,2,0,0,1,2.51,1.19,25.14,25.14,0,0,1,.73,2.57,7,7,0,0,1-1.52.37,5.5,5.5,0,0,0-3.47.83,2.71,2.71,0,0,1-1.21.43,14.69,14.69,0,0,0-5.7,1.76c.25.41,1.23.33,1.1,1.09a8,8,0,0,1-.9,1.82c3.64-1.68,7-3,10.2-4.84a16.3,16.3,0,0,1,3.43-1.23,1.67,1.67,0,0,1,1.2.25c.5.35-.15.83-.1,1,.31,1.29-.22,1.86-1.37,2.31a24.93,24.93,0,0,0-2.13,1.44,21.2,21.2,0,0,1-4.2,2,30.75,30.75,0,0,0-4.72,2.15c-1.89.9-3.76,1.85-5.66,2.72-2.2,1-4.48,1.85-6.63,2.72-.75-.7,0-1.08,0-1.54s-.3-.56-.66-.61c-.14.28-.27.56-.54.09l-1.83,1c-.5.28-1,.16-1.74-.12a8.44,8.44,0,0,1,2.12-1.28,6.65,6.65,0,0,0,3.67-2.17c2,.51,2.15.46,2.58-.91-.93.2-1.82.4-2.72.57-.15,0-.32-.12-.63-.25a5,5,0,0,1,.56-.79c.39-.33,1.31-.14,1.07-1.11,0-.06.24-.28.38-.28,1.61,0,2.53-1.2,3.73-2.12-1.46-.43-1.49-.5-2.24-.21-2.59,1-5.16,2.08-7.74,3.12C232.13,190,231.34,190.37,230.53,190.66Zm3.84,6.78-.38.24c-.09-.1-.18-.19-.26-.29.12-.07.24-.19.36-.2S234.28,197.35,234.37,197.44Zm-3.58-.88c-.15-.47.26-.52.57-.53a3.25,3.25,0,0,1,.8.26,3.81,3.81,0,0,1-.88.63C231.16,197,230.85,196.73,230.79,196.56Zm2.1.92c-.14.21-.2.42-.29.43a4,4,0,0,1-.69-.06c.08-.12.13-.3.23-.33A3.46,3.46,0,0,1,232.89,197.48ZM231.22,213a8.74,8.74,0,0,1,.77-.95c.26-.22.57-.55.85-.55,1.75,0,3-1.9,5-1.19a1.9,1.9,0,0,1-1.63,1.74C234.61,212.22,233.25,213.49,231.22,213Zm.95,10.37c-.26-.53-.22-1.06.41-1.19a2.39,2.39,0,0,1,2.33.45C234,222.86,233.32,224,232.17,223.37Zm43.49-16.83c-3.86,1.79-7.51,4-11.26,6a7.93,7.93,0,0,1-4.08,1.37c-.67,0-1.09.44-1.6.79-1,.64-2,1.26-3.1.34l0,0c-.06.33,0,.78-.19,1-.36.35-.93.83-1.29.75-1.39-.35-2.49.4-3.68.76A40.38,40.38,0,0,0,245,219.9c-2.51,1.16-4.62,3.14-7.46,3.64-.47.09-.84.62-1.3.84a6.49,6.49,0,0,1-1.4.34l.71-1.66a.47.47,0,0,1-.6-.41l.54-.07a5,5,0,0,1,1-.81c2.54-1.11,5.08-2.2,7.64-3.23a4.47,4.47,0,0,0,1.76-1.41,2,2,0,0,0,2-1.32,1.71,1.71,0,0,1,1.8-1.23,2.69,2.69,0,0,0,1.66-.52,11.15,11.15,0,0,1,4.33-1.82,3.87,3.87,0,0,0,1.26-.35,32.3,32.3,0,0,1,5.61-2.15,8.25,8.25,0,0,0,1.57-.9l-.05.07,1.38-.68c.39-.18.92-.26,1.13-.57,1.06-1.56,2.68-1.77,4.42-2,.2.45.39.88.62,1.43a14.32,14.32,0,0,1,2.06-1,17.64,17.64,0,0,1,2.53-.44C276,206,275.89,206.44,275.66,206.54Zm-4.78-6.33c.43-.22.89-.37,1.34-.55a2.66,2.66,0,0,0,.26,1.9c.35.68.06,1.07-.66,1.41-2.88,1.35-6,2.17-8.8,3.71a1.87,1.87,0,0,1-1,.27,4.43,4.43,0,0,0-2.91.91A2.89,2.89,0,0,1,256,208c.17-.19.32-.45.54-.53.71-.27,1.67-.27,2.14-.76a4.85,4.85,0,0,1,2-1.15,3.89,3.89,0,0,0,1.4-.68,4.3,4.3,0,0,1,3.75-1,4.62,4.62,0,0,1,3.71-2.87C270,200.93,270.42,200.44,270.88,200.21Zm-.62-3.3c.06-.21.15-.41.23-.65a2.75,2.75,0,0,1,.36.33,3.72,3.72,0,0,1-.42.47S270.26,196.94,270.26,196.91Zm-2.41,1.77c-2.12.81-4,2.16-6,3.06a32.71,32.71,0,0,0-3.24,1.63,25.8,25.8,0,0,1-3.56,1.57q-4.36,1.69-8.75,3.32a2.11,2.11,0,0,1-.71,0c-.17-.75.44-.66.77-.83,4.23-2.18,8.45-4.39,12.83-6.27.32-.13.74-.15,1-.37,1.56-1.55,3.75-1.74,5.6-2.68a9,9,0,0,1,2.48-.51C268.33,198,268.33,198.5,267.85,198.68ZM256,208.36c-.34-.11-.16-.2,0-.28A2.74,2.74,0,0,0,256,208.36Zm17-13.49a.88.88,0,0,1-.51,0c-.22-.12-.5-.28-.55-.47a.71.71,0,0,1,.26-.65c.7-.36,1.45-.62,2.16-1a8.67,8.67,0,0,0,1.05-.75c-.22-.12-.32-.21-.37-.19-1.49.7-3,1.31-4.45,2.15a49.53,49.53,0,0,1-8.7,4.22c-2.55.9-5,2-7.54,3-.56.22-1.16.35-1.73.56-.82.3-1.31-.2-1.9-.79-1.91.93-3.86,1.88-5.81,2.81a37.89,37.89,0,0,1-9.86,3.45,4,4,0,0,0-1.66.64,2.39,2.39,0,0,1-2.16.65c-.06-.18-.21-.41-.15-.49,1.06-1.47,2-3,3.88-3.71,1.44-.57,2.8-1.36,4.3-1.84,1.12-.35,2.34-.59,3.14-1.71.29-.4,1.12-.39,1.64-.68.23-.13.31-.52.45-.8a4.23,4.23,0,0,0-2.68.58,7.12,7.12,0,0,1-2.54.51c-2.5,1.48-5,3.34-8.38,2.3,0-1,.93-1.17,1.56-1.49a16.85,16.85,0,0,1,2.43-.91,9.32,9.32,0,0,0,2.43-1.42,12.54,12.54,0,0,1,3.8-1.69,9.88,9.88,0,0,0,3.6-1.95,26.2,26.2,0,0,1,4.13-2.61c2.4-1.38,4.83-2.71,7.26-4.05.37-.2.8-.31,1.19-.5,2.05-1,4.21-1.68,6.05-3.09,1.14-.87,2.64-.84,4-1a2.2,2.2,0,0,1,1.18.48c.66.4,1.28.86,2.07,1.4a4.46,4.46,0,0,1-.78,1.11c-.83.62-1.78,1.07-2.6,1.7-1,.78-2,1.68-3.17,2.73-1.66.69-3.88.85-5.95,2.24.54.11.79.24,1,.19,2.85-.82,5.79-1.41,8.09-3.5a9.93,9.93,0,0,1,1.33-.83,13.9,13.9,0,0,1,2.35-1.53,7.92,7.92,0,0,1,2.54-.35,1,1,0,0,1,.78.48c.13.38-.17.57-.61.56-.17,0-.35.2-.63.38a4.85,4.85,0,0,0,3.09-.63c1.84-.77,1.84-.78,3.91.16.09.29.2.62.3.95a2.08,2.08,0,0,1-1,2.69A24.52,24.52,0,0,1,273,194.87Zm7.21,15.89a1.17,1.17,0,0,1-.87-1.37,5,5,0,0,0-.2-1.38c.57-.26,1-.48,1.52-.72.18.25.4.42.45.63.16.73.25,1.48.37,2.19C281.17,210.6,280.82,211,280.22,210.76Zm2.13-122.58a.69.69,0,0,1-.91.59c-.17-.08-.38-.45-.32-.58a.76.76,0,0,1,1-.38,1.55,1.55,0,0,1,.22.12A1.9,1.9,0,0,1,282.35,88.18Zm9.72,128.88c-.05,0-.32-.24-.31-.27.12-.19.28-.36.42-.54l.4.42A2.66,2.66,0,0,1,292.07,217.06Zm9.14-147c-.06,0-.18-.1-.18-.14a2.51,2.51,0,0,1,.08-.45c.1.08.27.16.27.24S301.28,69.91,301.21,70Zm7.36,82.24a2.28,2.28,0,0,1-.45.2c-.29-.77-.29-.77,1.34-1C308.93,152,308.76,152.13,308.57,152.27ZM326,203.65l.76-.77.18.34Zm9.37-7.92.18.14c-.05.12-.1.24-.16.36-.06,0-.19-.1-.18-.12S335.34,195.85,335.39,195.73Zm-.05,4c0,.07-.08.18-.14.2s-.59.17-.62.11c-.24-.46.24-.41.45-.56.09-.35.37-.59.63-.34S335.6,199.61,335.34,199.73Zm7.09-2.47a13.43,13.43,0,0,1-2.19.18c1-.48,1.54-1.51,2.66-1.33C343.32,196.72,342.94,197.13,342.43,197.26Zm2.22.73.16-.36.2.11Zm-.2-2.1c-.1,0-.32-.14-.37-.26a.48.48,0,0,1,.12-.43c.47-.42,1-.63,1.92.1C345.36,195.58,344.91,195.76,344.45,195.89Zm4.91-7.7c-.07-.38-.13-.75-.17-1,.41-.63.86-.24,1.26-.31l1.26-1.71,1.15,1.41Zm16.73-12c-.06,0-.34-.18-.33-.21.07-.21.15-.49.32-.58s.41,0,.9.11A10.23,10.23,0,0,1,366.09,176.23Zm18.47-13.14c.05.06.14.11.15.17s0,.4,0,.59a2.61,2.61,0,0,1-.38-.44S384.49,163.2,384.56,163.09Zm-3.91,5-1.3.93a1.25,1.25,0,0,1,0-.38C379.41,168,379.77,167.86,380.65,168.1Zm4.07.32c-1.14.88-5.64,2.21-7.27,2.4a4.8,4.8,0,0,1,.61-.82c.41-.32.87-.57,1.31-.86a.43.43,0,0,1,0,0l2.21.27L384,166a8.77,8.77,0,0,1,1.31.44c.44.21,1.07.17,1.27.94C386.32,168.21,385.3,168,384.72,168.42Zm2.72-7.22a1.48,1.48,0,0,1,.49-.45,1.7,1.7,0,0,1,.64,0,2.19,2.19,0,0,1-.41.56,1.44,1.44,0,0,1-.64.11S387.42,161.22,387.44,161.2Zm1,5.1a2.86,2.86,0,0,1-.47.22h0c-.09-1-.44-2,0-3a3,3,0,0,1-.33-.23c.2-.35.32-.15.43.08.72.29.7.93.68,1.53S389,165.92,388.41,166.3Zm1.85-3.31a3.29,3.29,0,0,1-.17-.39s.09-.12.13-.18a2,2,0,0,1,.18.4S390.31,162.94,390.26,163Zm1.51,2.93s-.1-.12-.15-.18a1.72,1.72,0,0,1,.38-.2s.11.11.16.17C392,165.78,391.91,165.86,391.77,165.92Zm1-4.31a4,4,0,0,1-.22-.34s.09-.1.14-.16l.24.33A1.29,1.29,0,0,1,392.78,161.61Zm2.22-.94a.64.64,0,0,1-.56-.27.71.71,0,0,1,.2-.64,9,9,0,0,1,1.63-.13A8.88,8.88,0,0,1,395,160.67Zm1.39-19.35c-.11,0-.24-.29-.36-.45a8.58,8.58,0,0,1,.82-.37s.16.24.34.51A3.36,3.36,0,0,1,396.39,141.32Zm1.2,18c-.36,0-.68-.13-.64-.57,0-.12.23-.33.27-.31a6,6,0,0,1,.78.42C397.78,159.16,397.68,159.36,397.59,159.36Zm3.87-12.28-.55-.35.48-.42.28.38Zm1.7,6.29s-.1-.11-.15-.18a1.93,1.93,0,0,1,.36-.22s.11.1.17.16A2.66,2.66,0,0,1,403.16,153.37Zm1-151.51a2.71,2.71,0,0,1,0-.4s.17-.12.18-.11.17.25.25.38Zm10.24,125.45c.06.15.18.31.16.44s-.22.2-.33.29c-.06-.14-.19-.29-.16-.41S414.32,127.41,414.44,127.31Zm-.57,9.81a3.23,3.23,0,0,1-.58.24s-.21-.32-.17-.36a2.43,2.43,0,0,1,.48-.34C413.68,136.79,413.76,136.92,413.87,137.12Zm-7.3.37a1.73,1.73,0,0,1-1-1.65c0-.21.54-.61.68-.55a15.42,15.42,0,0,1,1.82,1C407.77,137.33,407.24,137.58,406.57,137.49Zm1.56-1.72c.32-1.94,1.59-2.54,2.91-3.31l1.13.92.79-1c.61,0,.63.44.57.71s-.25.92-.55,1.09A13.66,13.66,0,0,1,408.13,135.77Zm4.93,13.33c-.3.08-.6.16-.9.21-.05,0-.11-.1-.16-.15s.09-.2.14-.2c.31,0,.63,0,.94,0C413.07,149,413.08,149.1,413.06,149.1Zm-.2-6.65a.72.72,0,0,1,.35-1.06c.84-.32.87.42,1.16.82C413.84,142.82,413.33,143.12,412.86,142.45Zm1.36,4.45c-.21,0-.44-.15-.66-.23l.49-1c.37.16.66.19.79.36S414.67,146.84,414.22,146.9Zm1.72-21.46c.1-.12.51-.09.7,0a.79.79,0,0,1,.39,1.1c-.18.33-.58.53-1,.9a4.89,4.89,0,0,1-.39-1.13A1.44,1.44,0,0,1,415.94,125.44Zm1.3,5a4.49,4.49,0,0,1-.59.82c-.24-.3-.48-.45-.48-.61a.54.54,0,0,1,.62-.6C417,130.1,417.26,130.4,417.24,130.46ZM416,146.57l-.39-.45.56-.46.33.43Zm.49-5c-.24.05-.54-.18-.71-.24-.23-1,.13-1.71.79-1.74a.86.86,0,0,1,.91.7A1.24,1.24,0,0,1,416.51,141.6Zm28.74-3.06a5.29,5.29,0,0,1,2.44-1.2l-1,2.22h-1.94C445,139.08,445,138.7,445.25,138.54Zm-4.89-31.35.31.29-.44.42c-.07-.14-.22-.29-.2-.4S440.24,107.29,440.36,107.19Zm.72,2.09c-.47.35-.9.69-1.36,1-.19.14-.21.11-1.16-.55C440.29,108.68,440.29,108.68,441.08,109.28Zm-16.63,13.08c.16.14.49.29.6.55a.73.73,0,0,1-.49,1,.65.65,0,0,1-.89-.28C423.43,123.21,423.75,122.59,424.45,122.36Zm-.74-1.59c-.73,1.73-.84,1.79-3.33,1.89A4.33,4.33,0,0,1,423.71,120.77Zm-.61,10.31a.56.56,0,0,1-.68.6,11.75,11.75,0,0,1-1.33-.4c.34-1.07.91-1.25,1.55-1A1.06,1.06,0,0,1,423.1,131.08ZM420,128.24c.11-.1.39,0,.81,0-.27.31-.38.52-.56.62s-.3,0-.45,0C419.89,128.64,419.89,128.35,420,128.24Zm.4,19.1c-.05,0-.25-.05-.37-.08a1.36,1.36,0,0,1,.13-.43s.25.06.38.09A1,1,0,0,1,420.43,147.34ZM423,144c0-1.11,0-1.11,1.1-1.49Zm2.93-5.2c-.5,0-1,.57-1.48.91a6.44,6.44,0,0,1,.83.82.6.6,0,0,1-.37,1,2.35,2.35,0,0,1-2.58-1.15c-1.08,1.28-2,2.71-3.91,2.91-.38-.55-.77-1.19.13-1.83.59.54,1-.21,1.52-.24l0,0a2.18,2.18,0,0,1,.86-2.34l1.86-.05c.25-.51.52-1,.77-1.53.94-.49,2.08-.05,3-.78.18-.16.77.18,1.12.28a1.52,1.52,0,0,1-.27,1.75C426.93,139,426.44,138.79,425.94,138.82Zm.7,3.24c.65-1,.65-1,3.26-1.22C428.65,141.54,427.92,142.41,426.64,142.06Zm2.84-2.4c-.17.15-.38.44-.65.53-.51.18-1-.14-.95-.52a.94.94,0,0,1,.47-.55A.8.8,0,0,1,429.48,139.66Zm-1.5-20c.29-.66.57-1.33.87-2a4.87,4.87,0,0,1,1,.34.66.66,0,0,1,0,1.19C429.23,119.37,428.6,119.5,428,119.66Zm4.49,11.71c-.45,1.1-1.23,1.61-2.87,1.73a7.9,7.9,0,0,1,1-1.32,2.11,2.11,0,0,0,.93-2c0-.27.44-.58.71-.91C433.15,129.76,432.81,130.54,432.47,131.37Zm-1.11-4.23c.13-1.16.16-1.17,1.52-1.19C432.87,127,431.92,126.83,431.36,127.14Zm1.26-4.07c-.17-.1-.35-.49-.28-.63s.42-.62.68-.66a8.23,8.23,0,0,1,1.75.15,7.47,7.47,0,0,1-1.21,1.32C433.36,123.38,432.9,123.22,432.62,123.07Zm2.06,8.87a1.93,1.93,0,0,1-.61-.06c-.13-.07-.31-.28-.28-.36s.32-.54.4-.51a3.12,3.12,0,0,1,.81.46Zm-.8-1.68c-.33-.8.18-1.16.67-1.52.29.13.58.27.86.42.07,0,.11.13.24.29C435.35,130.34,434.64,130.36,433.88,130.26Zm.68-1.56a2.47,2.47,0,0,0-.11-.47c-.17-.46-.55-1,0-1.34.34-.2.89,0,1.56,0C435.69,127.85,435.72,128.77,434.56,128.7Zm.77-7.76c-.62-.35-.5-.72-.2-1.08.59-.69.59-.7,2-.27Zm2.05-9.14c-.23-.11-.43-.14-.49-.25s.3-.76.56-.65.28.27.25.38A1.66,1.66,0,0,1,437.38,111.8Zm2.1,6.34c-.43.24-.58-.11-.71-.45-.25-.66-.51-1.3.47-1.9a16.48,16.48,0,0,1,.49,1.72A.72.72,0,0,1,439.48,118.14Zm.78,3.33a.74.74,0,0,1-.49-.44c-.15-.58.23-1.15.73-1.07a2.55,2.55,0,0,1,.85.52A.93.93,0,0,1,440.26,121.47Zm2.78-5.73c-.11,0-.45-.17-.48-.32s.16-.37.31-.67c.23.2.52.33.52.47A.68.68,0,0,1,443,115.74Zm5-.36c0-.12,0-.24,0-.35C448.48,115.19,448.21,115.28,448.05,115.38Zm1.47-1-.39-.55.42-.23c.08.15.16.3.23.45Zm6.39,1.5c-.09-.69,0-1.15,1-1.33C456.85,115.3,456.67,115.75,455.91,115.9Zm-1.16-2.29c-.72-.19-1.58.64-2.18-.3l-1.71.13a1,1,0,0,1,0-1.6c.86-1,1.35-2.57,3.18-2,0,.1.09.21.06.27-.73,1.45-.73,1.45.7,1.63a8.3,8.3,0,0,0,1,.1c.8,0,.8,0,1.37,1.3A3.17,3.17,0,0,1,454.75,113.61Zm13-4.94-2,.32a9.78,9.78,0,0,0-1.21,1.43c-.91,1.61-2.56,2.28-4,3.24a.8.8,0,0,1-1.2-.32l2.08-2.65-.83-1.11c-.88,1.12-1.65,2.19-3.23,2.13-.05-.33-.26-.75-.13-1,.76-1.24,1.55-2.47,2.43-3.63a2.09,2.09,0,0,1,2.72-.89c.26.12.74-.25,1.12-.42.3-.88.89-.28,1.37-.23-.09-.56,0-1.15.7-1a2.49,2.49,0,0,0,1.74.06,1.71,1.71,0,0,1,0-.51c0-.11.2-.16.31-.24a1.27,1.27,0,0,1,.09.42,1.9,1.9,0,0,1-.2.47C467.65,106.07,468.12,107.31,467.79,108.67Zm2.81-2a2.26,2.26,0,0,1-.08-.44s.1-.09.15-.14l.24.41Zm-.19-3c-.05,0-.23-.28-.2-.35a3.26,3.26,0,0,1,.5-.59c.13.31.21.51.3.71A2.75,2.75,0,0,1,470.41,103.63Zm1.87.7a.37.37,0,0,1-.22-.1c-.27-.32-.05-.84.53-1.27a1.91,1.91,0,0,1,.38-.13c.11.24.17.32.16.39C473.12,103.86,472.77,104.32,472.28,104.33Zm5.92-10.74a.89.89,0,0,1-1.32.19,2.08,2.08,0,0,1-.27-.37,5,5,0,0,1,.51-.31c.38-.2.79-.33,1.14,0C478.33,93.21,478.29,93.48,478.2,93.59Zm15.4.72-2.52.23C491.84,93.36,491.84,93.36,493.6,94.31Zm11.88-78a7,7,0,0,1-1.26,3.09c-.24-.74-.47-1.06-.42-1.32C504,17.17,504.16,17,505.48,16.28Zm-3.59,3.62c.17-.1.46,0,.69,0a1.8,1.8,0,0,1,0,.47.94.94,0,0,1-1,.58A.81.81,0,0,1,501.89,19.9Zm-5.84,47.84c.87,1,.87,1,.22,3.3-.27-.3-.65-.54-.63-.74C495.7,69.49,495.89,68.68,496.05,67.74Zm-4.8.2a1.31,1.31,0,0,1,1.53-.62.52.52,0,0,1,.29.37,1.7,1.7,0,0,1-1.53,1.8c-.13-.1-.46-.23-.47-.38A2,2,0,0,1,491.25,67.94ZM484,81.2a1.59,1.59,0,0,1,.21-.15c.16,0,.36-.07.47,0a1.58,1.58,0,0,1,.68,1.57.47.47,0,0,1-.3.34c-.5.09-.79-.2-1-.61S483.57,81.6,484,81.2Zm-1.49,3.7c.09-.05.26,0,.39,0l-.17.39-.4-.08C482.35,85.13,482.38,85,482.47,84.9Zm2.4,4.33c-1.06.09-1.36,1-2.15,1.41l-1.58-.8a3,3,0,0,1-.5.51c-.06.05-.25-.09-.38-.15,0-.06.07-.16.12-.19.23-.09.47-.15.7-.23a1.74,1.74,0,0,1,0-.51c.14-.41.32-.81.49-1.24l1.55.1c.13-.45.24-.84.36-1.3.78-.3,1.59-.62,2.4-.92a2.12,2.12,0,0,1,.66,0c0,.29.12.61.15.94C486.83,88.84,486.76,89.07,484.87,89.23ZM487.54,79c-1.15-.09-.74.89-1,1.4-1,0-1.4-.39-1-1a11.8,11.8,0,0,1,3.58-3.66c.15-.1.46,0,.89.1-.85,1-1.88,1.71-2.05,3C487.94,78.88,487.67,79,487.54,79Zm1.6,6.64c-.06-.15-.17-.3-.15-.43a.43.43,0,0,1,.31-.26c.07,0,.17.18.32.34Zm.82-6.1a.69.69,0,0,1-.65.13.72.72,0,0,1-.25-.65A1.37,1.37,0,0,1,490.37,78C490.93,78.65,490.15,79,490,79.54Zm1,5.68c-.07,0-.2-.21-.31-.33a3.29,3.29,0,0,1,.54-.38s.19.2.36.38A2.71,2.71,0,0,1,490.91,85.22Zm0-5.62c1.07-2.07,1.07-2.07,2.45-2.9.13.8.25,1.54.37,2.3C492.75,79.15,492.06,80.52,490.88,79.6Zm1.73-5.81-1.41-.93a9.55,9.55,0,0,1,2.18-2.73C494.17,71.7,493.68,72.74,492.61,73.79ZM494,75.12a15.54,15.54,0,0,1,.6-1.91,1.71,1.71,0,0,1,2.27-.58.86.86,0,0,1,.31.65.83.83,0,0,1-.31.65C496.08,74.3,495.27,74.59,494,75.12ZM496.09,79a1.31,1.31,0,0,1-.8-.4,2.91,2.91,0,0,1-.41-.8l.75-.46a5.28,5.28,0,0,1,.63.62C496.55,78.36,496.44,79,496.09,79Zm-.43-1.74c0-.45.08-.9.12-1.33,2.64-.14,2.64-.14,3.27.69A8.84,8.84,0,0,1,495.66,77.3Zm9.94-5c-.25.82-.61,1.61-.93,2.42-.67.28-1.3.58-1.95.8a.83.83,0,0,1-.71-.11c-.32-.3-.07-.58.14-.88a3,3,0,0,0,.27-.86,1.26,1.26,0,0,1-1.49-.62,1.49,1.49,0,0,1,.28-1.9c1.7.82,1.7.82,3.66-.24A1,1,0,0,1,505.6,72.28Zm.23,4.44c.05-.12.09-.24.13-.36l.21.08Zm2-7.38c-.19-.14-.46-.25-.54-.44s.12-.38.2-.58l.62.35Zm1.67-52.65a.44.44,0,0,1,.44-.08c.17.14.41.46.36.54a6.53,6.53,0,0,1-.78.9l-.41-.26C509.28,17.42,509.38,17,509.54,16.69Zm1,43.23c-.26.26-.59.1-1.1-.54.28-.41.57-.89,1.17-.6C511,58.93,510.89,59.62,510.58,59.92Zm.85-40.67c-.17,0-.32-.28-.48-.43l.54-.53.48.6C511.79,19,511.6,19.26,511.43,19.25Zm1,48.13c-.08-.13-.22-.26-.24-.4s.09-.29.14-.44l.38.35Z" transform="translate(0 13.33)"/><path class="cls-3" d="M145.2,21c-.06.06-.16.06-.24.08s.09-.24.17-.27a1,1,0,0,1,.34-.1A2.5,2.5,0,0,1,145.2,21Z" transform="translate(0 13.33)"/><path class="cls-3" d="M147.86,152.81s.09,0,.12,0a.1.1,0,0,1,0,.05Z" transform="translate(0 13.33)"/><path class="cls-3" d="M195,111.63c0,.05,0,.13,0,.15s-.06,0-.09,0Z" transform="translate(0 13.33)"/><path class="cls-3" d="M272.41,199.5l.16-.21a.52.52,0,0,1-.1.18Z" transform="translate(0 13.33)"/><path class="cls-3" d="M268.4,197.46l-.1,0,.09-.2C268.39,197.36,268.42,197.43,268.4,197.46Z" transform="translate(0 13.33)"/><path class="cls-3" d="M388.74,160.52l-.05,0,0-.17S388.76,160.5,388.74,160.52Z" transform="translate(0 13.33)"/><path class="cls-3" d="M381.64,163.85l.08.06a.74.74,0,0,0-.21.07s0,.09,0,.14Z" transform="translate(0 13.33)"/><path class="cls-3" d="M225.67,197.93l.28-.26-.28.3-.13.08Z" transform="translate(0 13.33)"/><path class="cls-3" d="M220.19,194.09l.09-.2-.19-.08-.09.34Z" transform="translate(0 13.33)"/><path class="cls-3" d="M229.24,197.05l0,.17.4-.07a.91.91,0,0,0,0-.16C229.5,197,229.37,197,229.24,197.05Z" transform="translate(0 13.33)"/><path class="cls-3" d="M382.92,153.49l.07.22.3-.16c-.06-.05-.11-.14-.17-.15S383,153.46,382.92,153.49Z" transform="translate(0 13.33)"/><path class="cls-3" d="M270.9,195.13c0-.13.08-.25.13-.37a1.12,1.12,0,0,0-.19,0,2.26,2.26,0,0,0-.11.37Z" transform="translate(0 13.33)"/><path class="cls-3" d="M173.88,23.87l-.3,0s0,.12.07.12S173.76,23.92,173.88,23.87Z" transform="translate(0 13.33)"/><path class="cls-3" d="M146.19,69.7a2.72,2.72,0,0,0-.16.35.31.31,0,0,0,.18.11s.16-.11.15-.13A2.06,2.06,0,0,0,146.19,69.7Z" transform="translate(0 13.33)"/><path class="cls-3" d="M308.8,61.21l-.06.22h.35c0-.07,0-.16-.07-.2S308.88,61.21,308.8,61.21Z" transform="translate(0 13.33)"/><polygon class="cls-3" points="477.38 90.94 477.27 90.76 477.23 90.97 477.38 90.94"/><polygon class="cls-3" points="444.09 117.84 443.93 117.94 444.11 117.99 444.09 117.84"/><polygon class="cls-3" points="437.99 128.05 437.92 128.21 438.06 128.22 437.99 128.05"/><polygon class="cls-3" points="467.59 125.38 467.59 125.25 467.43 125.32 467.59 125.38"/><polygon class="cls-3" points="390.7 178.41 390.62 178.27 390.58 178.43 390.7 178.41"/><path class="cls-3" d="M359.84,179.44c0-.05-.07-.16-.09-.16a1.09,1.09,0,0,0-.23.09c0,.06.07.16.09.16A1.09,1.09,0,0,0,359.84,179.44Z" transform="translate(0 13.33)"/><path class="cls-3" d="M273.8,204.9a.63.63,0,0,0-.19,0s0,.09,0,.14a1.23,1.23,0,0,0,.19,0S273.79,204.94,273.8,204.9Z" transform="translate(0 13.33)"/><polygon class="cls-3" points="338.34 210.65 338.16 210.67 338.27 210.86 338.34 210.65"/><polygon class="cls-3" points="277.41 222.45 277.56 222.51 277.57 222.38 277.41 222.45"/><polygon class="cls-3" points="207.23 117.6 207.1 117.54 207.1 117.67 207.23 117.6"/><polygon class="cls-3" points="211.85 126.88 211.79 127.01 211.92 127.01 211.85 126.88"/><polygon class="cls-3" points="445.47 125.69 445.6 125.74 445.59 125.61 445.47 125.69"/><path class="cls-3" d="M423.22,125l-.17-.14c-.05.06-.13.12-.13.17s.1.09.16.14Z" transform="translate(0 13.33)"/><polygon class="cls-3" points="425.56 143.86 425.63 143.71 425.49 143.71 425.56 143.86"/><path class="cls-3" d="M398.37,140.32l.15-.17c-.06-.05-.12-.14-.17-.14s-.1.11-.15.16Z" transform="translate(0 13.33)"/><path class="cls-3" d="M417.56,143.62l.16-.2c-.07,0-.14-.15-.2-.14s-.1.12-.16.18Z" transform="translate(0 13.33)"/><path class="cls-3" d="M403.16,146.24c-.05,0-.12-.07-.15-.05s-.1.11-.14.17l.31,0Z" transform="translate(0 13.33)"/><polygon class="cls-3" points="438.59 156.07 438.77 156.14 438.76 155.97 438.59 156.07"/><polygon class="cls-3" points="390.95 173.76 390.89 173.89 391.02 173.88 390.95 173.76"/><polygon class="cls-3" points="382.52 178.37 382.67 178.44 382.67 178.29 382.52 178.37"/><path class="cls-3" d="M220.35,192.2c-.06,0-.11-.12-.16-.11s-.09.09-.13.14.11.12.15.12S220.3,192.25,220.35,192.2Z" transform="translate(0 13.33)"/><path class="cls-3" d="M254.93,227.44a25,25,0,0,0,7.28-1.9,7.34,7.34,0,0,1,2.55-.57c.36.66.62,1.26.19,1.94l-.06-.09.11,0a5.48,5.48,0,0,1-1.87,1.34c-5.21,1.76-10.42,3.53-15.6,5.35-3.22,1.13-6.42,2.3-9.59,3.54a29.42,29.42,0,0,0-2.95,1.64,5.56,5.56,0,0,1-1.67.72,16.08,16.08,0,0,0-5.31,2.08,3.88,3.88,0,0,1-2.69.49l-.87-1.6c-2.22-.11-4.08-1.25-6-2.25-.09,0,0-.44,0-.62.51-.24.77.06,1,.28a5.82,5.82,0,0,0,4.1,1.31,5.12,5.12,0,0,0,4-1.61,3.82,3.82,0,0,1,3.24-1.34,6.46,6.46,0,0,0,4.81-1.59,2.91,2.91,0,0,1,1.46-.42c.48-.08.81.36.65.87a5.31,5.31,0,0,1-.54,1c.82-.13,1.7,0,2.13-.4,1.14-1,2.91-.77,3.86-2.08a.48.48,0,0,1,.44-.09c.93.37,1.45-.29,2-.76l.13-.07-.15.12c-.71-.28-1-.8-.68-1.2a2.71,2.71,0,0,1,1.72-1,16.22,16.22,0,0,0,3.48-.75c1.72-.68,3.46-1.46,4.22-3.53l.5,1.14,0,.21Z" transform="translate(0 13.33)"/><path class="cls-3" d="M128.93,30.3a1.36,1.36,0,0,1,.11,1.42c-.67,1.31-1.21,2.7-1.85,4a2.17,2.17,0,0,0-.07,2.24,1,1,0,0,1,.09.72c-.68,2-.86,4.28-2.14,6.14a21.8,21.8,0,0,0-1.43,2.76h0c-.48,0-.93.15-.73.74s.57.85.21,1.43c-.56.86-.74,2-1.85,2.42a1.78,1.78,0,0,0-1.24,1.13c-.49,1.11-1.13,2.15-1.71,3.21-.17.3-.28.75-.54.86-1.48.65-1.54,2.26-2.31,3.37a16.37,16.37,0,0,0-1.36,3.33c-.16.41-.17.41-1.43.45.22-1.26,0-2.51.55-3.75a33.08,33.08,0,0,0,1-3.47A12.74,12.74,0,0,1,115.51,54c1.26-1.82,1.43-4,2.49-5.93s1.87-3.73,2.83-5.58c.24-.46.66-.82.92-1.27a5.64,5.64,0,0,0,.74-1.62c.21-1,.34-1.83,1.43-2.28.4-.16.61-.8.87-1.25.88-1.5,1.7-3,2.63-4.52.34-.56.72-1.25,1.6-1.15Z" transform="translate(0 13.33)"/><path class="cls-3" d="M381,209.49c2.41-.85,2.41-.85,4.05-.5.76-.69,1.56-1.47,2.42-2.18a2.89,2.89,0,0,1,1.34-.76c1.62-.17,2.95-1,4.41-1.63a6.06,6.06,0,0,0,4.07-.15,2.13,2.13,0,0,1,1.25-.18,3,3,0,0,0,2.65-.69,6.38,6.38,0,0,0,2.82-2.94c.41-1.11,1.53-1.33,2.54-1.54.23,0,.63.24.8.48a3.4,3.4,0,0,1,.3,1.09l-6.22,3.75a1.8,1.8,0,0,1-.73.27c-2.71.2-4.84,1.82-7.14,3-1.28.66-2.35,1.76-4,1.37-.26.93-.56.37-1,.1a1.16,1.16,0,0,0-1,.14,37.14,37.14,0,0,0-3.26,2.12c-.66.5-1.55.53-2.07.95a3.08,3.08,0,0,1-1.91.55,3.57,3.57,0,0,0-2.12.91,2.48,2.48,0,0,1-.86.55.78.78,0,0,1-.7-.14.7.7,0,0,1,.07-.67c1.07-.75,2.15-1.49,3.27-2.14A1.52,1.52,0,0,0,381,209.49Z" transform="translate(0 13.33)"/><path class="cls-3" d="M134,174.42c-.75.8-.45,1.83-.56,2.75a6.2,6.2,0,0,1-1.07,2.62.5.5,0,0,1-.46.15,2.13,2.13,0,0,1-.58-.43.31.31,0,0,1-.07-.24c.18-1.89.35-3.79.57-5.68.07-.65.51-.76,1.13-.7a.92.92,0,0,0,1-1,19.36,19.36,0,0,0,0-4.17,47.58,47.58,0,0,1-.39-7.54,7.13,7.13,0,0,0-.19-2.68l1.19,1.27a14.32,14.32,0,0,0-.09,5.22l2.27.41-.1-.08a7.11,7.11,0,0,1-.26,2,8.08,8.08,0,0,0-.42,4.85,4,4,0,0,1-.12,2,14.69,14.69,0,0,0-.35,8.41,8.61,8.61,0,0,1,.06,1,6,6,0,0,1-.74-1.4c-.19-1-.27-2.06-.39-3.1l-.48-3.87c.12-.1.31-.18.36-.31s-.06-.29-.1-.44c-.08.1-.21.18-.23.29A2.26,2.26,0,0,0,134,174.42Zm1.11-8.1c-.05.06-.13.12-.13.17s.1.09.16.14.13-.12.12-.17S135.14,166.37,135.09,166.32Z" transform="translate(0 13.33)"/><path class="cls-3" d="M511.51,83.82a3.26,3.26,0,0,1-2.74,2.06c-.35.06-.71.26-.5.67.06.11.58,0,.89,0a2.06,2.06,0,0,1,.26,0c.34.72.67,1.45,1,2.17-1.48.64-2.68-.17-3.92-.77a10.77,10.77,0,0,0-3.87,1.94,1.32,1.32,0,0,1-1.69,0,2.66,2.66,0,0,0-2.24-.27l.05.08-.73-.54.07,0c-.26-.88-1.1,0-1.49-.48a3.64,3.64,0,0,1,3.4-1.9A2.93,2.93,0,0,0,502.88,85c2.35-.91,5-.79,7.12-2.42l1.59,1.26ZM503,88.71c-.06,0-.13-.14-.17-.13a1.48,1.48,0,0,0-.35.19c.05,0,.13.15.16.14A3.24,3.24,0,0,0,503,88.71Z" transform="translate(0 13.33)"/><path class="cls-3" d="M345.2,227.78c-.07-.69-.11-1.1-.17-1.64a11.8,11.8,0,0,0,1.11-.62,1.18,1.18,0,0,0,.61-1.29A1.46,1.46,0,0,1,347,223c1.55-1.21,3-2.61,5.15-2.78a4.09,4.09,0,0,1,3.23,1.06c1.31-.54.51-1.54.69-2.49,1.11-.34,1.76-1.74,3.3-1.66.16,1.2,1.4,2.13.82,3.55-.54.3-1.11.64-1.71.94a1.71,1.71,0,0,1-.95.26c-2.05-.43-3.31,1.07-4.84,1.92-.35.2-.6.6-1,.75-1.77.7-3.57,1.32-5.33,2C346,226.8,345.73,227.27,345.2,227.78Zm3.05-4c.07-.15.25-.39.2-.44-.28-.32-.41,0-.55.18l-.13.56Zm9.21-3.18c.79-.51,1.76-.73,2.29-1.73-.39-.18-.77-.49-.95-.4A1.87,1.87,0,0,0,357.46,220.57Z" transform="translate(0 13.33)"/><path class="cls-3" d="M206.69,273a9.65,9.65,0,0,1,.94-1.84c.36-.44,1-1.34,1.33.14a.86.86,0,0,0,.68.1c.85-.51,1.63-1.15,1.42-2.27a1.94,1.94,0,0,1,.41-1.68c.8-1.13,1.41-2.42,3-2.74.29-.06.49-.46.76-.67.53-.41,1.09-.8,1.57-1.16.65.33.75.83.48,1.17-1.92,2.36-3,5.27-5,7.55.21.3.33.52.49.7a.84.84,0,0,1-.13,1.36c-1,.7-2,1.32-3,1.93-1.15-.46-.08-1.34-.69-2a2.92,2.92,0,0,0-1,.19,22.85,22.85,0,0,0-1.94,1.32,1.51,1.51,0,0,1-.27-2c.32-.58.71-.3,1.09-.15l.13.08Z" transform="translate(0 13.33)"/><path class="cls-3" d="M428.35,190.52l-1.36-.7c0-.3,0-.53.09-.61,1.11-1,2.2-2,3.37-2.86a7.12,7.12,0,0,0,2.16-2.21,2.64,2.64,0,0,1,.9-.89,2.54,2.54,0,0,0,1.22-1.63c.13-.64.76-1,1.12-.85.85.48,1.63-.38,2.41.07a.32.32,0,0,1,.12.22c0,1-1.23.82-1.6,1.52-.15.3-.7.53-.67.74.18,1.4-1.67,1.36-1.73,2.54-1.06.13-1.32,1.28-2.12,1.69A16.37,16.37,0,0,0,428.35,190.52Z" transform="translate(0 13.33)"/><path class="cls-3" d="M284.11,250.63l-1.48-1.41c.14-.78.83-.9,1.39-1a10.46,10.46,0,0,0,7-5c.09-.14.15-.31.23-.46a3,3,0,0,1,.29-.27,6.16,6.16,0,0,0,3.69-.66,4.2,4.2,0,0,1,1.7-.1c.46.71.19,1.2-.37,1.33a3.32,3.32,0,0,0-2.42,1.39,5.39,5.39,0,0,1-3.16,2.16,26.45,26.45,0,0,0-4.07,1.73,6.41,6.41,0,0,1-1.68.57C284.2,249.1,284.19,249.08,284.11,250.63Z" transform="translate(0 13.33)"/><path class="cls-3" d="M264,251.42a1.89,1.89,0,0,1,.87,1.79c0,.49,0,1,0,1.68l-1.22.68a6.58,6.58,0,0,0-.66-.77c-1-.84-1.52-.86-2.08.15a3.62,3.62,0,0,1-2.66,1.88,6.9,6.9,0,0,0-3.33,1.43,1.31,1.31,0,0,1-1.79,0c.69-.77,1.23-1.64,2.32-1.92,2.22-.57,3.71-2.18,5.24-3.72.17-.16.2-.46.31-.68.56-1.19,1-1.3,2.09-.65a3.5,3.5,0,0,0,.94.23ZM262.23,253c.15-.19.35-.35.39-.55s-.24-.28-.37-.42a3.05,3.05,0,0,0-.34.61C261.89,252.65,262.08,252.79,262.23,253Z" transform="translate(0 13.33)"/><path class="cls-3" d="M143.87,160.39a5.38,5.38,0,0,1-.1,3.34,12.23,12.23,0,0,0-.37,1.91c-1.49.44-1.87,1.62-1.79,3.17a13,13,0,0,1-1.51,7.11c-.17-.34-.35-.53-.35-.73a11.83,11.83,0,0,0,0-2.06c-.47-2.07.48-3.93.83-5.87.06-.36.53-.65.83-1a3.67,3.67,0,0,0,1.09-3.06c-.16-2.31-.11-4.64-.15-7.16.83,1.71,0,3.44.76,5.16l.83-.79Z" transform="translate(0 13.33)"/><path class="cls-3" d="M514.67,97.86a11.7,11.7,0,0,0-2.76.53c-2.16.68-4.29,1.43-6.52,1.93a20.94,20.94,0,0,0-4.29,1.84c-.24.11-.35.51-.74,1.13,2.73-.37,5-.71,6.66-2.63,2.34.57,4.44.67,5.55-2.06.37.49.66.88.92,1.21a1.52,1.52,0,0,0,.36,0,6.84,6.84,0,0,1,.82-.16Z" transform="translate(0 13.33)"/><path class="cls-3" d="M514.67,91.17a6.25,6.25,0,0,1-.62-.16,7.29,7.29,0,0,0-5.86.21,5.74,5.74,0,0,1-1.52.38,13.7,13.7,0,0,0-4.62,1.72,12.94,12.94,0,0,1,2-.13c1.29.15,2.59-.15,3.83-.09a17.61,17.61,0,0,0,4.08-.54,2.79,2.79,0,0,1,1.76.23,3.73,3.73,0,0,0,1,.31Z" transform="translate(0 13.33)"/><path class="cls-3" d="M227.9,254.69a4.2,4.2,0,0,1,2.12-1.84c1.24-.61,2.46-1.26,3.68-1.9,1.46-.76,2.92-1.51,4.36-2.29,1.29-.71,2.58-1.42,3.83-2.19a8.09,8.09,0,0,1,4-1.65l-.08,0-.09,1.46a7.61,7.61,0,0,0-4.62,1.95,9.14,9.14,0,0,1-1.81,1c-3.2,1.73-6.36,3.56-9.72,5a11.31,11.31,0,0,1-1.76.43Z" transform="translate(0 13.33)"/><path class="cls-3" d="M393.37,197.26a10.15,10.15,0,0,1-4.72,2.63c-2.51.79-4.8,2-7.22,3l-1.33.56c-.82-.58-.64-1.45-.17-1.6,1.05-.34,1.75-1.42,3-1.28a2.1,2.1,0,0,0,1.88-.67,2.39,2.39,0,0,1,2.46-.47,1.58,1.58,0,0,0,1.46-.19A21.54,21.54,0,0,1,393.37,197.26Z" transform="translate(0 13.33)"/><path class="cls-3" d="M455.06,126.5c-.87-.34-1.28.21-1.7,1-.38-.16-.75-.34-1.14-.47s-.81-.25-1.22-.36-1-.08-1.22-.35c-.5-.6-.63.31-1,.12-.09-.57-.18-1.16-.29-1.84.46-.14,1-.26,1.43-.45s.91-.46,1.5-.76a5.14,5.14,0,0,0,2.76,1.7c.46.1.86.56,1.29.85l.08-.08-.52.71Z" transform="translate(0 13.33)"/><path class="cls-3" d="M200.91,199.85a10.61,10.61,0,0,1-1,1.14c-.38.33-1,.47-1.23.86s-1.39.47-.85,1.33c.39.63.93-.21,1.4,0,.13.06.23.22.41.4-.59.34-1.17.64-1.71,1s-1.09.55-1.09,1.3a.57.57,0,0,1-.29.4,1.94,1.94,0,0,1-2.19-.16c-.32-.38.13-1,1.06-1.49.31-.16.64-.26,1.12-.45l-.68-1.23c1.34-1.57,2.67-3.16,5.07-3Z" transform="translate(0 13.33)"/><path class="cls-3" d="M351.57,195.48c.06-.57,0-1.06.18-1.3a4.18,4.18,0,0,1,1.44-1.06c2.49-1,5-2,7.51-3a3.22,3.22,0,0,1,.93,0,2.3,2.3,0,0,1-2.19,1.46c-.45,0-.84,0-1.16.38a8,8,0,0,1-4.86,2.78A11.21,11.21,0,0,0,351.57,195.48Z" transform="translate(0 13.33)"/><path class="cls-3" d="M477.2,151.56c-.12.21-.2.5-.39.63-1.64,1.12-3.29,2.21-4.95,3.29a1.1,1.1,0,0,1-.73.2.87.87,0,0,1-.57-.42c-.07-.18,0-.63.1-.65,1-.3,1.28-1.36,2-2,1.27-1.19,2.61-2,4.43-1.27C477.1,151.37,477.13,151.47,477.2,151.56Z" transform="translate(0 13.33)"/><path class="cls-3" d="M422.24,181.15a23.74,23.74,0,0,1-1.82,2.93c-.62.77-1.22,1.63-2.55,1.56-.77,0-1.58.56-2.45.9a1.16,1.16,0,0,1,.72-1.56,6.37,6.37,0,0,0,2.23-1.72,17.91,17.91,0,0,1,2.93-2.14C421.47,181,421.79,181.13,422.24,181.15Z" transform="translate(0 13.33)"/><path class="cls-3" d="M451.65,171.34c.08-1,.15-2,.24-3.22a11.07,11.07,0,0,1,1.83-.78,2.48,2.48,0,0,0,1.87-1.64,3.1,3.1,0,0,1,.36-1c.32-.37.75-.85,1.16-.87s.78.49,1.16.76a11.88,11.88,0,0,0-1.66,1.46,7.49,7.49,0,0,1-2.69,2.4,2.68,2.68,0,0,0-1.38,1.82c-.11.39-.25.77-.38,1.16Z" transform="translate(0 13.33)"/><path class="cls-3" d="M514.67,85.2l-.1-.37.1,0V82.9a6.28,6.28,0,0,0-2.47.2c-.23.05-.39.44-.57.72.67,0,1.28.13,1.44,1.05l-1.34,1.4a3.75,3.75,0,0,1,.66.07c.48.17,1,.37,1.42.56a1.08,1.08,0,0,0,.86,0Z" transform="translate(0 13.33)"/><path class="cls-3" d="M247.5,244.09c.07-.15.1-.38.21-.43,1.59-.8,2.92-2.06,4.67-2.58a10.83,10.83,0,0,0,1.59-.81,14.33,14.33,0,0,1,4.29-1.64l-.08-.06a6,6,0,0,1-2.74,2.07c-1.92.84-4,1.52-5.34,3.34l-2.64.07Z" transform="translate(0 13.33)"/><path class="cls-3" d="M440.73,180.88a5.25,5.25,0,0,1,1.75-3.62c.66-.13,1.32-.31,2-.4.3,0,.79,0,.89.18a1.43,1.43,0,0,1,0,1,1.14,1.14,0,0,1-.46.6c-1.06.7-2.14,1.37-3.23,2A3.93,3.93,0,0,1,440.73,180.88Z" transform="translate(0 13.33)"/><path class="cls-3" d="M278.66,222.57c-.93.44-1.83,1-2.8,1.32-1.36.49-2.89.31-4.27.94.42-.24.81-.64,1.25-.7,1.72-.21,2.35-1.28,2.51-2.83,0-.07.11-.13.23-.26l1.25-.29c-.19.72-.34,1.27-.49,1.88.85.19,1.57-.56,2.3,0Z" transform="translate(0 13.33)"/><path class="cls-3" d="M312.76,241.8c2.43-.06,4.5-1.32,6.59-2.53.28-.16.29-.15,1.18,0a5.58,5.58,0,0,1-2.17,1.73,1.87,1.87,0,0,1-.74.26,37.8,37.8,0,0,0-4.41,1.31C312.83,242.7,312.55,242.43,312.76,241.8Z" transform="translate(0 13.33)"/><path class="cls-3" d="M465.8,120.49a6.64,6.64,0,0,1,.18.89,1.07,1.07,0,0,1-.09.34c-1,.5-1.91,1-2.82,1.41-1.17.57-2.34,1.13-3.53,1.65-.2.09-.49,0-.9-.11Z" transform="translate(0 13.33)"/><path class="cls-3" d="M499.72,103c-.12.26-.16.56-.32.66-.52.3-1.21.4-1.61.8a4.82,4.82,0,0,1-3.64,1.21C496.65,103.26,497,103.12,499.72,103Z" transform="translate(0 13.33)"/><path class="cls-3" d="M168.49-5.45l-.94.39-1,.45c-.67-1.53,1.28-2.58.14-4a8.9,8.9,0,0,1,1.36-.21c.87,0,1.28.52.8,1-.74.79-.44,1.59-.4,2.42Z" transform="translate(0 13.33)"/><path class="cls-3" d="M418.49,196.41l0-1.07-1.48,0c.71-1.47,2.1-1.78,3.35-2.26.16-.06.49.32.68.46-.07.32-.06.54-.16.63-.8.76-1.63,1.49-2.45,2.23Z" transform="translate(0 13.33)"/><path class="cls-3" d="M255.58,225.1c0-.51,0-1,0-1.65,1.4-.65,2.7-1.49,4.32-1.43.11,0,.21.24.4.47l-4.68,2.56Z" transform="translate(0 13.33)"/><path class="cls-3" d="M419.35,155.38c-.2-.77-.4-1.52-.58-2.2.83-1.51,2.49-1.11,3.52-1.88.57.36.46.77.37,1.2s-.1.81-.15,1.21L421,152.35C419.37,152.82,420,154.41,419.35,155.38Z" transform="translate(0 13.33)"/><path class="cls-3" d="M135.7,184.2a3.36,3.36,0,0,1,.36,3.33c-.38.91-.3,2-1.11,2.84-.16-.24-.34-.39-.31-.49a8.63,8.63,0,0,0,.48-3.33A7.42,7.42,0,0,1,135.7,184.2Z" transform="translate(0 13.33)"/><path class="cls-3" d="M473.59,157.43l2,.66c-1.22,1.16-2.16,2.66-4.32,2.34.2-.3.29-.65.51-.77A3.7,3.7,0,0,0,473.59,157.43Z" transform="translate(0 13.33)"/><path class="cls-3" d="M248.76,226.5c2.36-1.66,2.36-1.66,4.77-1.82.12.83-.47,1.19-1.05,1.54A24.62,24.62,0,0,1,248.76,226.5Z" transform="translate(0 13.33)"/><path class="cls-3" d="M190.4,223.26c0-.31,0-.73,0-1.15a6.1,6.1,0,0,1,.47-2.13,6.18,6.18,0,0,0,.62,1.64c.26.28.82.29,1.15.55a1.35,1.35,0,0,1,.39.88c0,.14-.33.4-.54.44C191.86,223.64,191.17,223.93,190.4,223.26Z" transform="translate(0 13.33)"/><path class="cls-3" d="M411.54,159.13l-.48-1.21c.4-.28.74-.73,1.09-.74,1.41,0,1.77-.8,1.7-2a6,6,0,0,1,.09-.9c.26.56.41.85.53,1.16.32.86,0,2-.77,2.06C412.56,157.52,412.49,158.58,411.54,159.13Z" transform="translate(0 13.33)"/><path class="cls-3" d="M263.2,235.69c1.75-1.52,4-2.15,5.91-3.41-.45,1.26-1.57,1.74-2.51,2.36a16.22,16.22,0,0,1-2.8,1.3c-.12.05-.37-.2-.55-.32Z" transform="translate(0 13.33)"/><path class="cls-3" d="M470.91,132.26c-1.65,1.68-3.76.36-5.12,1.63-.64-.83-.36-1.19.17-1.44a2,2,0,0,1,.76-.15C468,132.27,469.29,132.27,470.91,132.26Z" transform="translate(0 13.33)"/><path class="cls-3" d="M294.77,222.79l2-1a1.33,1.33,0,0,1,0,2.14,1.73,1.73,0,0,1-1.17.31c-.14,0-.23-.56-.38-.84A5.75,5.75,0,0,0,294.77,222.79Z" transform="translate(0 13.33)"/><path class="cls-3" d="M198.56,249.5a1,1,0,0,1-1,.76,8.63,8.63,0,0,1-2-.2,1,1,0,0,1-.61-.68,1.17,1.17,0,0,1,.32-.91c.2-.17.83-.21.88-.11C196.65,249.38,197.89,248.87,198.56,249.5Z" transform="translate(0 13.33)"/><path class="cls-3" d="M373.67,205.16c1.33-.76,2.13-1.25,3-1.68a2.12,2.12,0,0,1,1-.2.83.83,0,0,1,.62.34.64.64,0,0,1-.23.62c-1,.5-2,1-3.05,1.37C374.72,205.69,374.37,205.43,373.67,205.16Z" transform="translate(0 13.33)"/><path class="cls-3" d="M483.06,107.9c.56-.59.95-1.24,1.52-1.52a6.24,6.24,0,0,1,2.05-.22c.43.54.32,1-.32,1.42C485.34,108.21,484.3,108,483.06,107.9Z" transform="translate(0 13.33)"/><path class="cls-3" d="M399.29,193.76c1.82-.54,3.74-.81,5.09-2.29.58.42.24.8,0,1.1a2.44,2.44,0,0,1-.81.61,27,27,0,0,1-2.63,1A1.35,1.35,0,0,1,399.29,193.76Z" transform="translate(0 13.33)"/><path class="cls-3" d="M504,128.18c1.47-1.65,3.09-2,5.1-2.29-.3.42-.4.72-.61.84A12.36,12.36,0,0,1,504,128.18Z" transform="translate(0 13.33)"/><path class="cls-3" d="M469.25,120.36c1.47-2.11,1.47-2.11,2.92-2.07a3,3,0,0,1-1.32,2.29Z" transform="translate(0 13.33)"/><path class="cls-3" d="M347.39,217.92c.44,1.25-.52,1.77-.75,2.7l-1.43-.35A2.32,2.32,0,0,1,347.39,217.92Z" transform="translate(0 13.33)"/><path class="cls-3" d="M222.66,242.39c-.74.44-.26,1.78-1.43,1.89-.07-.05-.17-.08-.21-.14-.4-.55-1.12-1.23-.7-1.81C220.94,241.48,221.87,241.83,222.66,242.39Z" transform="translate(0 13.33)"/><path class="cls-3" d="M119.16,132.55a25.78,25.78,0,0,1-.67,2.92,2.58,2.58,0,0,1-2.27,1.76l.06,0a1.09,1.09,0,0,1,.53-1.09,2.36,2.36,0,0,0,1.09-2.55l1.34-1Z" transform="translate(0 13.33)"/><path class="cls-3" d="M266.44,250.34c1.51.16,2.24.69,2.49,2l-1.77.28C267,252,266.77,251.38,266.44,250.34Z" transform="translate(0 13.33)"/><path class="cls-3" d="M270.64,222.72c0,.08,0,.21-.08.24-1.34.73-2.68,1.46-4,2.17a.53.53,0,0,1-.46-.12c0-.21-.06-.58.06-.66a8.51,8.51,0,0,1,4.57-1.59Z" transform="translate(0 13.33)"/><path class="cls-3" d="M429.52,148.69a5.15,5.15,0,0,1-1-.46c-.18-.13-.25-.41-.44-.74l2.06-1.27C431,147.39,430.21,148,429.52,148.69Z" transform="translate(0 13.33)"/><path class="cls-3" d="M459.38,164.21c-.27-.37-.47-.51-.46-.64.11-1,1.2-1.27,1.62-2.08.08-.14.61,0,.94,0,.14,1-.68,1-1,1.39S459.82,163.63,459.38,164.21Z" transform="translate(0 13.33)"/><path class="cls-3" d="M426.42,190.85c-.44.77-.57,1.35-.84,1.42a9.42,9.42,0,0,0-3,1.88c-.42-.28-.49-.68-.19-.88C423.54,192.52,424.73,191.86,426.42,190.85Z" transform="translate(0 13.33)"/><path class="cls-3" d="M481.48,126.2l4.19-1.13c.05,0,.12.1.18.16C484.62,126.25,484.62,126.25,481.48,126.2Z" transform="translate(0 13.33)"/><path class="cls-3" d="M178.17,183.25a5.89,5.89,0,0,1-.21-1.47c0-.29.32-.79.5-.79a1.71,1.71,0,0,1,1.14.43c.34.37.16.82-.26,1.11S178.67,182.94,178.17,183.25Z" transform="translate(0 13.33)"/><path class="cls-3" d="M116.22,137.23a3.2,3.2,0,0,1-1,3.84c-.11.09-.33,0-.51.06l.08.05c.5-1.31,1-2.61,1.51-3.92Z" transform="translate(0 13.33)"/><path class="cls-3" d="M334,216.18c-.53-1.63-1.78-2.35-1.29-3.69C334.09,214.49,334.11,214.5,334,216.18Z" transform="translate(0 13.33)"/><path class="cls-3" d="M390.46,210.86c.38.44.37.81,0,.95-.78.31-1.59.52-2.31.75-.55-.42-.31-.74,0-.87C388.92,211.36,389.73,211.12,390.46,210.86Z" transform="translate(0 13.33)"/><path class="cls-3" d="M121.49,126.8c-.1,1.88-.39,3.69-1.85,5.07l0,0c0-.59-.14-1.37.17-1.74.84-1,.48-2.56,1.68-3.33Z" transform="translate(0 13.33)"/><path class="cls-3" d="M214.53,269.91c1-1.09,2.6-.51,3.47-1.67C216.55,270.15,215.73,270.51,214.53,269.91Z" transform="translate(0 13.33)"/><path class="cls-3" d="M365.89,210.33l2.25-2.54c.14.24.32.41.29.53a3.68,3.68,0,0,1-2,2.47C366.39,210.83,366.12,210.52,365.89,210.33Z" transform="translate(0 13.33)"/><path class="cls-3" d="M194.69,194a1.41,1.41,0,0,1-.93,1.12c-.64.25-1.3.45-1.93.72s-1,.53-1.59.85c0-.31,0-.55,0-.58,1.41-.76,2.84-1.49,4.26-2.23Z" transform="translate(0 13.33)"/><path class="cls-3" d="M357.51,187.35l.47.81-1.76,1c-.18-.3-.31-.5-.45-.72C356.14,187.69,356.87,187.65,357.51,187.35Z" transform="translate(0 13.33)"/><path class="cls-3" d="M454.55,122.32c-.22-.65-.59-1.19-.47-1.55.25-.72.93-.9,1.79-.59C455.46,120.86,455.07,121.49,454.55,122.32Z" transform="translate(0 13.33)"/><path class="cls-3" d="M154.63,128.76a2.17,2.17,0,0,1-.11,2.66c-.51.05-.67-.23-.57-.61C154.09,130.23,154.32,129.67,154.63,128.76Z" transform="translate(0 13.33)"/><path class="cls-3" d="M458,121.26a1.73,1.73,0,0,1,2.33-.18c.23.17.16.74.21,1.1-.21.08-.31.16-.37.13C459.55,122,459,121.74,458,121.26Z" transform="translate(0 13.33)"/><path class="cls-3" d="M85.1,112.45c0-.74,0-1.49,0-2.5C86,111.44,86,111.44,85.1,112.45Z" transform="translate(0 13.33)"/><path class="cls-3" d="M361.43,220.54c.43-1.19.63-1.94,1.52-2.36l.75,1.16Z" transform="translate(0 13.33)"/><path class="cls-3" d="M194.89,208.43c.45.24,1,.48,1.43.79a.68.68,0,0,1-.13.57c-.48.39-.94.11-1.34-.19S194.41,208.93,194.89,208.43Z" transform="translate(0 13.33)"/><path class="cls-3" d="M466.54,163.4c-.54.63-1.08,1.25-1.63,1.87-.66-.54-.07-.9.15-1.26S465.75,163,466.54,163.4Z" transform="translate(0 13.33)"/><path class="cls-3" d="M336.68,233.48a2,2,0,0,1-2.11.47C335,232.79,335,232.79,336.68,233.48Z" transform="translate(0 13.33)"/><path class="cls-3" d="M264.91,246.42c0,1.25.06,1.28-.39,1.56a.76.76,0,0,1-.69,0,.55.55,0,0,1-.07-.9A6.93,6.93,0,0,1,264.91,246.42Z" transform="translate(0 13.33)"/><path class="cls-3" d="M222.4,245.2c.11.09.31.16.35.29a1.11,1.11,0,0,1-.77,1.36c-.15,0-.54-.21-.55-.35A1.36,1.36,0,0,1,222.4,245.2Z" transform="translate(0 13.33)"/><path class="cls-3" d="M318,237.75l2.59-1.56C320.23,237.5,320,237.65,318,237.75Z" transform="translate(0 13.33)"/><path class="cls-3" d="M194.49,221.26c2-1.21,2-1.21,2.42-.75C195.42,221.45,195.41,221.43,194.49,221.26Z" transform="translate(0 13.33)"/><path class="cls-3" d="M261.26,237.09a2.52,2.52,0,0,1-2.12,1.17,3.26,3.26,0,0,0-1,.31l.08.06c.61-1.29,1.77-1.46,3-1.51Z" transform="translate(0 13.33)"/><path class="cls-3" d="M454.92,152.39l2.42-1C457.11,152.75,457.11,152.75,454.92,152.39Z" transform="translate(0 13.33)"/><path class="cls-3" d="M457.51,125.62c-.53,1-1.62,1.14-2.48,2,0-.63,0-.89,0-1.15l-.05.06.52-.71-.08.08,2.11-.27Z" transform="translate(0 13.33)"/><path class="cls-3" d="M481.33,109.4l-1.36-.26c-.22-.87.32-1,.82-1C481.55,108.16,481.47,108.73,481.33,109.4Z" transform="translate(0 13.33)"/><path class="cls-3" d="M190.65,154.36c0-.07.08-.2.14-.21a13.36,13.36,0,0,1,2-.4C191.61,154.4,191.61,154.4,190.65,154.36Z" transform="translate(0 13.33)"/><path class="cls-3" d="M144.75,3.21a2.08,2.08,0,0,1-.63,2.33c-.51-.16-.43-.54-.3-.8a16,16,0,0,1,1-1.51Z" transform="translate(0 13.33)"/><path class="cls-3" d="M281.62,213.46c.57-1.17,1.44-.51,2.29-.82-.21.7-.7.52-1,.61S282,213.39,281.62,213.46Z" transform="translate(0 13.33)"/><path class="cls-3" d="M293.57,239.3c-.45,1-1.22.9-2.27.75.68-1.22,1.48-1,2.31-.72Z" transform="translate(0 13.33)"/><path class="cls-3" d="M170.58-11.07c-.11-.69.44-.79.68-1.12s.36-.46.8-1C171.89-11.93,171.58-11.29,170.58-11.07Z" transform="translate(0 13.33)"/><path class="cls-3" d="M124.85,161.42c.49.76.5.76-.25,2A3.16,3.16,0,0,1,124.85,161.42Z" transform="translate(0 13.33)"/><path class="cls-3" d="M137.14,64.59c.21-.74.42-1.48.69-2.45a2.39,2.39,0,0,1-.75,2.39Z" transform="translate(0 13.33)"/><path class="cls-3" d="M383.22,176.74c.53-1.19,1.32-.79,2-1.1C384.93,176.79,384.06,176.42,383.22,176.74Z" transform="translate(0 13.33)"/><path class="cls-3" d="M270.69,222.76c.59-1,1.57-.57,2.39-.76a2.22,2.22,0,0,1-2.44.72Z" transform="translate(0 13.33)"/><path class="cls-3" d="M255.08,252.06c.1,1.12.1,1.12-.75,1.4-.35-.37,0-.59.2-.84A3.58,3.58,0,0,1,255.08,252.06Z" transform="translate(0 13.33)"/><path class="cls-3" d="M129.83,29l1.5-1.77c.52.35.39.66,0,1a1.82,1.82,0,0,1-1.6.7Z" transform="translate(0 13.33)"/><path class="cls-3" d="M186.86,197.22l.65.5a3.32,3.32,0,0,1-.61.63c-.09.05-.52-.27-.5-.32A3.85,3.85,0,0,1,186.86,197.22Z" transform="translate(0 13.33)"/><path class="cls-3" d="M470.3,136.27l-1.92.31C468.93,135.75,469.66,136.2,470.3,136.27Z" transform="translate(0 13.33)"/><path class="cls-3" d="M295.53,238.43c.12.47,0,.82-.52.88a11.55,11.55,0,0,1-1.44,0l0,0c.19-.22.34-.55.57-.63a8.13,8.13,0,0,1,1.41-.22Z" transform="translate(0 13.33)"/><path class="cls-3" d="M480,127.17l-2.24.36C478.49,127,478.49,127,480,127.17Z" transform="translate(0 13.33)"/><path class="cls-3" d="M489,100.62c-.08.63-.13,1.07-.18,1.52C488.57,101.42,488.57,101.42,489,100.62Z" transform="translate(0 13.33)"/><path class="cls-3" d="M495.7,100.2a8.43,8.43,0,0,1-.67-.67s.18-.31.26-.3a6.07,6.07,0,0,1,.91.23Z" transform="translate(0 13.33)"/><path class="cls-3" d="M417,187.57l-.92,1.11c-.48-.48-.12-.73.06-1a2.64,2.64,0,0,1,.58-.45Z" transform="translate(0 13.33)"/><path class="cls-3" d="M439.42,182.42c.12.78.47,1.42-.4,1.88C438.57,183.6,439.08,183.12,439.42,182.42Z" transform="translate(0 13.33)"/><path class="cls-3" d="M499.92,85.64c-.44-.55-.36-.92,0-1.25a.52.52,0,0,1,.45-.09.42.42,0,0,1,.19.38A9.14,9.14,0,0,1,499.92,85.64Z" transform="translate(0 13.33)"/><path class="cls-3" d="M411.68,155.29l-1.73.9-.12-.35,1.91-.5Z" transform="translate(0 13.33)"/><path class="cls-3" d="M411.74,155.34a4.8,4.8,0,0,1,.32-.85,2.64,2.64,0,0,1,.61.19c-.08.19-.12.48-.26.55a1.74,1.74,0,0,1-.73.06Z" transform="translate(0 13.33)"/><path class="cls-3" d="M348,228.12c.27.13.57.18.67.34.27.42-.17.56-.43.66a.59.59,0,0,1-.48-.3C347.7,228.61,347.87,228.39,348,228.12Z" transform="translate(0 13.33)"/><path class="cls-3" d="M298,237.74a3.26,3.26,0,0,1-.16.67,4.15,4.15,0,0,1-.42.52c-.19-.16-.5-.3-.52-.47s.21-.44.39-.6S297.57,237.8,298,237.74Z" transform="translate(0 13.33)"/><path class="cls-3" d="M138.52,76.13l0-1.81c.49.89.38,1.35-.05,1.77Z" transform="translate(0 13.33)"/><path class="cls-3" d="M259.93,250.38c-.41.38-.58.65-.72.64a.63.63,0,0,1-.44-.43c0-.13.2-.43.34-.46S259.55,250.25,259.93,250.38Z" transform="translate(0 13.33)"/><path class="cls-3" d="M219.16,265.09a6.3,6.3,0,0,1-.54-.84c0-.07.23-.37.27-.35a5.7,5.7,0,0,1,.76.43Z" transform="translate(0 13.33)"/><path class="cls-3" d="M430.05,137l1.75-.17C431.07,137.19,430.69,137.42,430.05,137Z" transform="translate(0 13.33)"/><path class="cls-3" d="M140.1,181.46c.26.24.43.4.59.57s0,.15,0,.22c-.15,0-.4.06-.42,0A3.66,3.66,0,0,1,140.1,181.46Z" transform="translate(0 13.33)"/><path class="cls-3" d="M502.24,122.52a3.83,3.83,0,0,1-.79.18c-.13,0-.26-.17-.45-.31a4.57,4.57,0,0,1,.75-.1C501.9,122.29,502,122.41,502.24,122.52Z" transform="translate(0 13.33)"/><path class="cls-3" d="M446.29,127.89c.51.13,1,.25.81,1-.67-.07-.74-.55-.75-1.07Z" transform="translate(0 13.33)"/><path class="cls-3" d="M84.75,122.49a7.93,7.93,0,0,1,.76.88c0,.07-.1.25-.16.38-.12-.07-.31-.11-.36-.22A6.29,6.29,0,0,1,84.75,122.49Z" transform="translate(0 13.33)"/><path class="cls-3" d="M463.52,160.52l-.33-.27a4.36,4.36,0,0,1,.44-.51,1.92,1.92,0,0,1,.31.23Z" transform="translate(0 13.33)"/><path class="cls-3" d="M427.11,148.17c-.1.18-.17.41-.23.4a4.24,4.24,0,0,1-.79-.15c.11-.11.2-.3.33-.32A2.88,2.88,0,0,1,427.11,148.17Z" transform="translate(0 13.33)"/><path class="cls-3" d="M148.23,41c-.11.49-.21,1-.31,1.47a.92.92,0,0,1,.39-1.42Z" transform="translate(0 13.33)"/><path class="cls-3" d="M417.23,155.27a3.84,3.84,0,0,1-.83.33c-.13,0-.27-.11-.41-.18.12-.09.24-.25.37-.27A4.59,4.59,0,0,1,417.23,155.27Z" transform="translate(0 13.33)"/><path class="cls-3" d="M150.82,50.77a3.13,3.13,0,0,1,0,.75c0,.11-.27.16-.41.24,0-.13-.08-.29,0-.37a4.35,4.35,0,0,1,.49-.57Z" transform="translate(0 13.33)"/><path class="cls-3" d="M470.3,161.06c.07.13.23.3.2.38s-.25.17-.38.25c-.08-.13-.23-.29-.2-.39S470.16,161.14,470.3,161.06Z" transform="translate(0 13.33)"/><path class="cls-3" d="M370.94,187.56c.17-.17.33-.35.51-.51s.14,0,.22.06a1.21,1.21,0,0,1-.16.44,1,1,0,0,1-.4.22S371,187.66,370.94,187.56Z" transform="translate(0 13.33)"/><path class="cls-3" d="M200.12,218.08c-.27.77-.86.69-1.8.47l1.84-.42Z" transform="translate(0 13.33)"/><path class="cls-3" d="M395.27,196.37l.38.24a3.61,3.61,0,0,1-.46.56c-.07.06-.27,0-.42-.06a.92.92,0,0,1,.09-.23Z" transform="translate(0 13.33)"/><path class="cls-3" d="M482.69,101.59c0-.08,0-.21.05-.24a1.91,1.91,0,0,1,.59-.29c.05,0,.16.24.25.37a1.35,1.35,0,0,1-.43.22A1.49,1.49,0,0,1,482.69,101.59Z" transform="translate(0 13.33)"/><path class="cls-3" d="M202.58,238.83c.14-.07.29-.21.4-.18s.17.23.24.35c-.13.07-.29.23-.38.2S202.66,239,202.58,238.83Z" transform="translate(0 13.33)"/><path class="cls-3" d="M214.57,236.94c.13-.07.3-.23.39-.2s.18.25.27.38c-.13.07-.29.23-.39.2S214.66,237.07,214.57,236.94Z" transform="translate(0 13.33)"/><path class="cls-3" d="M230.81,234.82a1.71,1.71,0,0,1,.22-.4,2.24,2.24,0,0,1,.39-.27c.05.13.18.34.14.39a1.94,1.94,0,0,1-.54.38S230.88,234.85,230.81,234.82Z" transform="translate(0 13.33)"/><path class="cls-3" d="M464.57,131.1a4.58,4.58,0,0,1-.87.31,1.52,1.52,0,0,1-.46-.1,1.39,1.39,0,0,1,.39-.22A5.64,5.64,0,0,1,464.57,131.1Z" transform="translate(0 13.33)"/><path class="cls-3" d="M341.83,226.06l-1,.15C341.07,225.47,341.34,225.27,341.83,226.06Z" transform="translate(0 13.33)"/><path class="cls-3" d="M291,238.1a6.06,6.06,0,0,1-.55.49s-.14-.05-.21-.08a4.59,4.59,0,0,1,.33-.62A2.35,2.35,0,0,1,291,238.1Z" transform="translate(0 13.33)"/><path class="cls-3" d="M341.17,231.64c-.21.15-.4.4-.58.39s-.31-.3-.46-.46a3.62,3.62,0,0,1,.7-.24C340.91,231.32,341,231.5,341.17,231.64Z" transform="translate(0 13.33)"/><path class="cls-3" d="M193.64,149.91c0,.31.08.46,0,.55a1.91,1.91,0,0,1-.36.33c-.06-.07-.17-.17-.15-.2A7.83,7.83,0,0,1,193.64,149.91Z" transform="translate(0 13.33)"/><path class="cls-3" d="M281.93,249.39a5.73,5.73,0,0,1-.75.68c-.1.06-.3,0-.45-.07.07-.15.1-.38.22-.43A4.16,4.16,0,0,1,281.93,249.39Z" transform="translate(0 13.33)"/><path class="cls-3" d="M476.86,109.39c.08-.12.15-.24.23-.35.11.1.22.2.32.31s-.1.17-.15.16A3,3,0,0,1,476.86,109.39Z" transform="translate(0 13.33)"/><path class="cls-3" d="M124.59,165.28a3.3,3.3,0,0,1-.26-.39c0-.06,0-.15,0-.23s.28,0,.36.08a1.65,1.65,0,0,1,.27.4v0l-.46.1Z" transform="translate(0 13.33)"/><path class="cls-3" d="M191,151.92l1.12-.18,0,0-.62,1.24c-.18-.54-.27-.83-.37-1.12Z" transform="translate(0 13.33)"/><path class="cls-3" d="M122.62,34.43a1.58,1.58,0,0,1,.31-.41c.08-.06.24,0,.37,0-.06.06-.1.14-.17.18s-.32.13-.48.2Z" transform="translate(0 13.33)"/><path class="cls-3" d="M151.34,50.05a3.76,3.76,0,0,1,.29-.68c.05-.09.24-.08.36-.12,0,.15,0,.36,0,.43a3.39,3.39,0,0,1-.66.33Z" transform="translate(0 13.33)"/><path class="cls-3" d="M452.28,119.78,452,120c0-.07-.12-.14-.11-.19a1.82,1.82,0,0,1,.14-.39C452.13,119.53,452.2,119.66,452.28,119.78Z" transform="translate(0 13.33)"/><path class="cls-3" d="M114.69,141.13c0,.44.07.88.11,1.45-.72-.6-.18-1,0-1.4Z" transform="translate(0 13.33)"/><path class="cls-3" d="M426.34,149.76c.42.69.38.8-.43,1.14l0,0c.14-.38.29-.77.44-1.16Z" transform="translate(0 13.33)"/><path class="cls-3" d="M501.68,136.06l-.56.38c-.06-.15-.19-.31-.16-.43a.52.52,0,0,1,.37-.24C501.42,135.76,501.52,135.92,501.68,136.06Z" transform="translate(0 13.33)"/><path class="cls-3" d="M417.4,149.58a3,3,0,0,1,0-.34l.12,0A3.22,3.22,0,0,0,417.4,149.58Z" transform="translate(0 13.33)"/><path class="cls-3" d="M391.29,169a1.66,1.66,0,0,1-.34-.22s0-.21,0-.22a2.26,2.26,0,0,1,.37,0C391.34,168.74,391.31,168.89,391.29,169Z" transform="translate(0 13.33)"/><path class="cls-3" d="M114,143.62l0,.23-.33-.07c0-.07,0-.17.1-.21S114,143.6,114,143.62Z" transform="translate(0 13.33)"/><path class="cls-3" d="M465,159.16l.2.08a2.44,2.44,0,0,1-.22.31s-.11-.06-.17-.09S464.92,159.26,465,159.16Z" transform="translate(0 13.33)"/><path class="cls-3" d="M382.11,177.21l-.17.16a1.87,1.87,0,0,1-.13-.4s.1-.09.16-.14Z" transform="translate(0 13.33)"/><path class="cls-3" d="M466.73,136.86c0,.45-.25.56-.6.62a.34.34,0,0,1-.2-.08c0-.12.05-.32.13-.35a5.9,5.9,0,0,1,.73-.15Z" transform="translate(0 13.33)"/><path class="cls-3" d="M493.71,89.64c-.08-.14-.24-.31-.2-.42s.26-.18.39-.27c.07.13.23.29.19.37S493.84,89.54,493.71,89.64Z" transform="translate(0 13.33)"/><path class="cls-3" d="M498.7,89.63l-.74.42c0-.29.09-.57.13-.86l-.07,0,.73.54Z" transform="translate(0 13.33)"/><path class="cls-3" d="M134.94,157c0-.06-.09-.13-.07-.16s.11-.11.17-.15.11.14.09.19S135,156.91,134.94,157Z" transform="translate(0 13.33)"/><path class="cls-3" d="M418.41,196.38l-.31.16.39-.13Z" transform="translate(0 13.33)"/><path class="cls-3" d="M149.28,154.23a6,6,0,0,1,.11.72c0,.08-.15.16-.22.24,0-.08-.07-.16,0-.23.07-.23.15-.46.23-.69Z" transform="translate(0 13.33)"/><path class="cls-3" d="M440.44,126.32a2,2,0,0,1,.22.05,3.42,3.42,0,0,1,0,.45l-.36-.1Z" transform="translate(0 13.33)"/><path class="cls-3" d="M354.26,216.11c0,.15-.05.3-.08.45l-.41-.08a1.35,1.35,0,0,1,.12-.43C353.92,216,354.13,216.09,354.26,216.11Z" transform="translate(0 13.33)"/><path class="cls-3" d="M349.64,218.65l-.21,0c0-.11,0-.22,0-.32s.17,0,.2.09S349.64,218.58,349.64,218.65Z" transform="translate(0 13.33)"/><path class="cls-3" d="M373.31,214.47c.14,0,.28-.05.42-.06l0,.12-.41.08Z" transform="translate(0 13.33)"/><path class="cls-3" d="M368.51,216.31c-.08.11-.16.3-.24.3a2.42,2.42,0,0,1-.55-.16c.12-.09.23-.24.36-.27S368.36,216.26,368.51,216.31Z" transform="translate(0 13.33)"/><path class="cls-3" d="M245.89,244.82l1.61-.73,0,0c-.31.8-1.13.41-1.65.73Z" transform="translate(0 13.33)"/><path class="cls-3" d="M121,160.85l-.12,1.71,0,0,.18-1.69Z" transform="translate(0 13.33)"/><path class="cls-3" d="M309.13,239.18c0,.06,0,.14,0,.17a.77.77,0,0,1-.21.14l0-.31Z" transform="translate(0 13.33)"/><path class="cls-3" d="M267.12,247.4l1.27-.12c-.59.46-.92.39-1.22,0Z" transform="translate(0 13.33)"/><path class="cls-3" d="M226,256.39c-.06-.13-.19-.29-.16-.37s.24-.22.36-.33c.07.15.23.31.19.44S226.12,256.3,226,256.39Z" transform="translate(0 13.33)"/><path class="cls-3" d="M478.74,111.64l.22.07c-.07.11-.13.28-.22.3s-.26-.08-.38-.13Z" transform="translate(0 13.33)"/><path class="cls-3" d="M132.72,33.89a1.29,1.29,0,0,1-.22.42c-.05,0-.24-.08-.37-.13.07,0,.12-.13.19-.15a4,4,0,0,1,.48-.07Z" transform="translate(0 13.33)"/><path class="cls-3" d="M113.23,51.92a1.72,1.72,0,0,1,0-.45c0-.09.14-.16.22-.24,0,.14.11.29.07.39s-.22.17-.34.25Z" transform="translate(0 13.33)"/><path class="cls-3" d="M110.86,57.19l-.11.45-.23-.23.42-.16Z" transform="translate(0 13.33)"/><polygon class="cls-3" points="148.16 70.08 148 70.14 148.01 70.02 148.16 70.08"/><polygon class="cls-3" points="106.97 79.97 106.94 79.81 107.17 79.85 106.97 79.97"/><path class="cls-3" d="M148.33,62.28l0,.44c0-.06,0-.12,0-.17a1.48,1.48,0,0,1,.13-.21Z" transform="translate(0 13.33)"/><path class="cls-3" d="M133.72,103.49c0,.42.15.89-.34,1.16l.06,0c-.08-.44-.12-.86.36-1.12Z" transform="translate(0 13.33)"/><path class="cls-3" d="M151.1,132.86l-.17.09.07-.31Z" transform="translate(0 13.33)"/><path class="cls-3" d="M495.1,87.49l-.22-.26a1.9,1.9,0,0,1,.4-.14c.05,0,.12.1.18.15Z" transform="translate(0 13.33)"/><polygon class="cls-3" points="169 157.26 169.21 157.18 169.19 157.35 169 157.26"/><path class="cls-3" d="M177.56,148l-.19,0a1.1,1.1,0,0,1,.2-.23s.11.09.17.13Z" transform="translate(0 13.33)"/><path class="cls-3" d="M129,172.57l.06-.44c0,.06,0,.13,0,.18a1,1,0,0,1-.17.19Z" transform="translate(0 13.33)"/><path class="cls-3" d="M478.27,116l-.16.07.07-.25Z" transform="translate(0 13.33)"/><path class="cls-3" d="M128.85,172.5a3.88,3.88,0,0,1,0,.48c0,.06-.08.1-.13.16-.05-.13-.18-.32-.14-.37s.27-.14.41-.2Z" transform="translate(0 13.33)"/><polygon class="cls-3" points="450.43 135.73 450.38 135.89 450.3 135.73 450.43 135.73"/><path class="cls-3" d="M445.38,129c.06.12.12.25.2.44-.07-.22-.13-.37-.18-.51Z" transform="translate(0 13.33)"/><path class="cls-3" d="M462.11,127.52c-.2.8-.6.53-1,.18l-.06.08,1.14-.22Z" transform="translate(0 13.33)"/><path class="cls-3" d="M456,130.93a4.36,4.36,0,0,1,.42-.23s.13.1.19.16a2,2,0,0,1-.41.22S456.06,131,456,130.93Z" transform="translate(0 13.33)"/><path class="cls-3" d="M447.3,134.46l-.15.14-.19-.24a.86.86,0,0,1,.21,0C447.22,134.34,447.26,134.41,447.3,134.46Z" transform="translate(0 13.33)"/><path class="cls-3" d="M415.32,154.19c0-.16,0-.31,0-.47l0,.44Z" transform="translate(0 13.33)"/><polygon class="cls-3" points="453.77 165.85 453.97 165.92 453.78 166.03 453.77 165.85"/><path class="cls-3" d="M200.16,208l.24.35c-.05-.05-.12-.08-.14-.14a1.11,1.11,0,0,1,0-.25Z" transform="translate(0 13.33)"/><path class="cls-3" d="M211.44,206.36l.21-.13.11.28a.7.7,0,0,1-.25,0S211.46,206.41,211.44,206.36Z" transform="translate(0 13.33)"/><path class="cls-3" d="M359.85,184.42l-.22-.31a.57.57,0,0,1,.11.16.86.86,0,0,1,.05.23Z" transform="translate(0 13.33)"/><path class="cls-3" d="M379.94,181.91l.07.15-.25-.06Z" transform="translate(0 13.33)"/><path class="cls-3" d="M375.62,185.4c-.05,0-.1.1-.16.1s-.1-.05-.15-.08.1-.09.16-.09S375.57,185.38,375.62,185.4Z" transform="translate(0 13.33)"/><path class="cls-3" d="M373.88,186.23l.05-.16.17.19Z" transform="translate(0 13.33)"/><path class="cls-3" d="M350,192.39c-.13-.08-.27-.15-.39-.24s0-.14.06-.21l.28.52Z" transform="translate(0 13.33)"/><path class="cls-3" d="M369.58,188.35c0,.06,0,.14,0,.17a.66.66,0,0,1-.19.09l0-.3Z" transform="translate(0 13.33)"/><polygon class="cls-3" points="214.32 230.03 214.29 229.88 214.5 229.91 214.32 230.03"/><path class="cls-3" d="M279.43,213.93l.23.06-.26.26-.15-.16Z" transform="translate(0 13.33)"/><path class="cls-3" d="M398.16,195.66l.15,0-.19.15Z" transform="translate(0 13.33)"/><polygon class="cls-3" points="280.49 233.21 280.31 233.28 280.32 233.15 280.49 233.21"/><path class="cls-3" d="M370.26,207c-.06,0-.13.11-.19.11s-.12-.07-.18-.11Z" transform="translate(0 13.33)"/><path class="cls-3" d="M242.33,228.89c-.06.13-.09.32-.19.38s-.26-.07-.4-.11c.06-.06.1-.15.17-.17a3.54,3.54,0,0,1,.47-.07Z" transform="translate(0 13.33)"/><polygon class="cls-3" points="270.27 238.55 270.06 238.65 270.06 238.48 270.27 238.55"/><path class="cls-3" d="M356.48,215.47l-.36.18a.81.81,0,0,0,.22,0,.88.88,0,0,0,.17-.12Z" transform="translate(0 13.33)"/><path class="cls-3" d="M334.92,227.89c0,.1-.05.2-.08.3s.15-.06.16-.11-.05-.12-.08-.19Z" transform="translate(0 13.33)"/><path class="cls-3" d="M342.52,227.52c.06,0,.14,0,.16,0a.74.74,0,0,1,.07.21h-.26Z" transform="translate(0 13.33)"/><path class="cls-3" d="M338.2,229.17l.18-.1.09.24a.72.72,0,0,1-.21,0S338.22,229.21,338.2,229.17Z" transform="translate(0 13.33)"/><path class="cls-3" d="M230.4,251l-.2-.12h.4Z" transform="translate(0 13.33)"/><path class="cls-3" d="M227.81,254.62c0,.16,0,.35-.09.46s-.26,0-.41.06c0-.11,0-.28.11-.33a1.88,1.88,0,0,1,.48-.12Z" transform="translate(0 13.33)"/><path class="cls-3" d="M252.46,254.14c0,.05,0,.14,0,.16a.54.54,0,0,1-.21.08l0-.28Z" transform="translate(0 13.33)"/><path class="cls-3" d="M264,257.28c-.14,0-.33,0-.42-.13s0-.26,0-.4a.61.61,0,0,1,.16.16c.07.14.12.29.18.44Z" transform="translate(0 13.33)"/><path class="cls-3" d="M224.47,266.11c0,.06,0,.16-.06.17a.9.9,0,0,1-.23,0c0-.06,0-.18,0-.18A.51.51,0,0,1,224.47,266.11Z" transform="translate(0 13.33)"/><polygon class="cls-3" points="135.64 35.05 135.67 34.92 135.57 35 135.64 35.05"/><path class="cls-3" d="M135.16,22.31l.48-.6-.07,0-.48.58Z" transform="translate(0 13.33)"/><path class="cls-3" d="M134.65,22.89l.51-.58-.07-.06-.44.6Z" transform="translate(0 13.33)"/><path class="cls-3" d="M134.65,22.85l-.15.12.15-.08Z" transform="translate(0 13.33)"/><path class="cls-3" d="M129.78,28.94l-.45.63.09.06.41-.65Z" transform="translate(0 13.33)"/><path class="cls-3" d="M129.33,29.57c-.14.24-.27.49-.4.73l.09.07.4-.74Z" transform="translate(0 13.33)"/><path class="cls-3" d="M122.65,34.4a2.39,2.39,0,0,0-.13.21l.18,0-.08-.16Z" transform="translate(0 13.33)"/><path class="cls-3" d="M137.82,39.47a1.78,1.78,0,0,1,.19.36c0,.05-.08.12-.12.19l.08,0-.09-.62Z" transform="translate(0 13.33)"/><polygon class="cls-3" points="114.88 62.32 115 62.22 114.88 62.27 114.88 62.32"/><path class="cls-3" d="M114.88,48.94l-.12.14.12-.09Z" transform="translate(0 13.33)"/><path class="cls-3" d="M123.64,47.61l.1.16-.07-.17Z" transform="translate(0 13.33)"/><path class="cls-3" d="M113.16,51.87l.07.05Z" transform="translate(0 13.33)"/><path class="cls-3" d="M153.81,45.91c.17-.2.34-.39.5-.59l-.05,0-.47.58Z" transform="translate(0 13.33)"/><path class="cls-3" d="M153.79,45.85l-.1.13.12-.07Z" transform="translate(0 13.33)"/><path class="cls-3" d="M112.48,53.7l.15-.33c0,.06,0,.15,0,.18a.88.88,0,0,1-.22.1Z" transform="translate(0 13.33)"/><path class="cls-3" d="M112.42,53.65l-.07.23.13-.18Z" transform="translate(0 13.33)"/><path class="cls-3" d="M126.64,52.84l-.14.14.1-.07Z" transform="translate(0 13.33)"/><polygon class="cls-3" points="110.94 70.58 110.92 70.37 110.86 70.52 110.94 70.58"/><path class="cls-3" d="M150.86,50.82l.48-.77-.05,0c-.37.12-.59.33-.47.76Z" transform="translate(0 13.33)"/><polygon class="cls-3" points="139.04 72.56 139.21 72.47 139.21 72.64 139.04 72.56"/><path class="cls-3" d="M148.41,62.34l.54-.69-.07-.06-.55.69Z" transform="translate(0 13.33)"/><path class="cls-3" d="M136.57,65.26l.07,0Z" transform="translate(0 13.33)"/><path class="cls-3" d="M138.45,76.09l-.49.58,0,0,.59-.58Z" transform="translate(0 13.33)"/><path class="cls-3" d="M138,76.67l-.17.11.14-.07Z" transform="translate(0 13.33)"/><polygon class="cls-3" points="136.59 93.75 136.71 93.68 136.72 93.81 136.59 93.75"/><path class="cls-3" d="M135.07,91.61l.06-.24-.12.19Z" transform="translate(0 13.33)"/><path class="cls-3" d="M135,91.56l-.47.51,0,.07.56-.53Z" transform="translate(0 13.33)"/><path class="cls-3" d="M134.54,92.07l-.14.14.11-.07Z" transform="translate(0 13.33)"/><path class="cls-3" d="M119.24,132.61l.45-.7,0,0-.48.68Z" transform="translate(0 13.33)"/><path class="cls-3" d="M155.17,127.22l-.14.13.16-.1Z" transform="translate(0 13.33)"/><path class="cls-3" d="M502.33,79l-.54.54.1,0,.34-.66Z" transform="translate(0 13.33)"/><path class="cls-3" d="M167.9,143.33l.07,0Z" transform="translate(0 13.33)"/><path class="cls-3" d="M140.24,154.19l.22.11,0-.17-.16.09Z" transform="translate(0 13.33)"/><path class="cls-3" d="M124,159.3l-.12.14.09-.07Z" transform="translate(0 13.33)"/><path class="cls-3" d="M120.89,162.56l-.12.13.14-.09Z" transform="translate(0 13.33)"/><path class="cls-3" d="M192.14,151.74l.15-.26c0,.05,0,.12,0,.14a.64.64,0,0,1-.19.08Z" transform="translate(0 13.33)"/><polygon class="cls-3" points="124.52 178.56 124.44 178.63 124.59 178.62 124.52 178.56"/><path class="cls-3" d="M125,165.14l.11.13-.1-.15Z" transform="translate(0 13.33)"/><polygon class="cls-3" points="457.56 138.99 457.62 138.86 457.51 138.95 457.56 138.99"/><polygon class="cls-3" points="446.35 141.15 446.12 141.2 446.29 141.22 446.35 141.15"/><polygon class="cls-3" points="475.4 136.29 475.54 136.23 475.53 136.36 475.4 136.29"/><path class="cls-3" d="M461.1,127.7c-.25-.16,0,.11-.06.08Z" transform="translate(0 13.33)"/><polygon class="cls-3" points="462.18 140.9 462.17 140.78 462.11 140.85 462.18 140.9"/><path class="cls-3" d="M209.17,171.74l-.15.13.12-.07Z" transform="translate(0 13.33)"/><path class="cls-3" d="M466.79,136.9l-.06,0Z" transform="translate(0 13.33)"/><path class="cls-3" d="M429,144l.12.12-.06-.11Z" transform="translate(0 13.33)"/><polygon class="cls-3" points="415.36 164.51 415.4 164.31 415.35 164.44 415.36 164.51"/><path class="cls-3" d="M411.22,152.2c-.44-.08-.54-.25-.14-.54l.13.07a.66.66,0,0,1,0,.5Z" transform="translate(0 13.33)"/><path class="cls-3" d="M426.39,149.76l-.11-.17.06.17Z" transform="translate(0 13.33)"/><path class="cls-3" d="M425.91,150.9c-.07.09-.13.19-.2.29,0-.06,0-.16,0-.19a.78.78,0,0,1,.23-.08Z" transform="translate(0 13.33)"/><path class="cls-3" d="M415.29,154.16l-.12.12.15-.09Z" transform="translate(0 13.33)"/><path class="cls-3" d="M378.21,172.39c-.16.22-.31.45-.46.67l.09,0-.11-.62-.07.08.61-.09Z" transform="translate(0 13.33)"/><polygon class="cls-3" points="200.55 215.84 200.44 215.68 200.62 215.66 200.55 215.84"/><path class="cls-3" d="M477.39,159.65l.11-.13-.08.09Z" transform="translate(0 13.33)"/><path class="cls-3" d="M477.42,159.61l-.16.11.13-.07Z" transform="translate(0 13.33)"/><polygon class="cls-3" points="200.21 221.28 200.06 221.26 200.16 221.32 200.21 221.28"/><polygon class="cls-3" points="382.54 193.91 382.39 193.97 382.4 193.83 382.54 193.91"/><polygon class="cls-3" points="359.79 197.83 359.99 197.83 359.85 197.76 359.79 197.83"/><path class="cls-3" d="M200.58,214.34l-.12-.59v0c0,.21.06.42.1.63Z" transform="translate(0 13.33)"/><polygon class="cls-3" points="211.96 225.22 211.9 225.37 212 225.25 211.96 225.22"/><polygon class="cls-3" points="349.95 205.79 350.13 205.83 350 205.73 349.95 205.79"/><path class="cls-3" d="M277.87,214.12a2.25,2.25,0,0,0-.14.44s.12.1.19.15l0,0-.09-.6Z" transform="translate(0 13.33)"/><path class="cls-3" d="M277.92,214.71l-.55,0,0,0,.59-.09Z" transform="translate(0 13.33)"/><path class="cls-3" d="M288.91,213.39l.07.05Z" transform="translate(0 13.33)"/><path class="cls-3" d="M328,208.17l-.51.67h.08c.32-.09.55-.25.45-.64Z" transform="translate(0 13.33)"/><path class="cls-3" d="M255.58,225.05l-.12.11.12-.06Z" transform="translate(0 13.33)"/><path class="cls-3" d="M278.64,222.6l.14-.2-.18,0,.06.15Z" transform="translate(0 13.33)"/><path class="cls-3" d="M242.71,228.19c-.13.23-.26.46-.38.7l0,0c.13-.22.26-.45.4-.67Z" transform="translate(0 13.33)"/><path class="cls-3" d="M356.39,214.65l-.16-.07.15.12Z" transform="translate(0 13.33)"/><path class="cls-3" d="M356.51,215.52l-.12-.87v0c0,.26.07.52.1.77Z" transform="translate(0 13.33)"/><path class="cls-3" d="M263.25,235.62l-.05.07Z" transform="translate(0 13.33)"/><path class="cls-3" d="M261.26,237.12l.18-.08-.18.05Z" transform="translate(0 13.33)"/><polygon class="cls-3" points="343.38 239.16 343.31 239.03 343.44 239.03 343.38 239.16"/><path class="cls-3" d="M334.92,227.89h.2l-.24-.18,0,.19Z" transform="translate(0 13.33)"/><polygon class="cls-3" points="295.59 251.82 295.68 251.71 295.53 251.77 295.59 251.82"/><path class="cls-3" d="M267.17,247.32c-.25-.16,0,.11-.05.08Z" transform="translate(0 13.33)"/><path class="cls-3" d="M264,251.48a1.07,1.07,0,0,1,.16-.14s.07,0,.11,0l-.34,0Z" transform="translate(0 13.33)"/><path class="cls-3" d="M264,257.35l.12.52,0,0c0-.2-.07-.41-.11-.61Z" transform="translate(0 13.33)"/><polygon class="cls-3" points="264.11 271.21 264.04 271.36 264.15 271.22 264.11 271.21"/><polygon class="cls-3" points="169.31 336.44 169.22 336.3 169.37 336.29 169.31 336.44"/><path class="cls-3" d="M136.64,65.31l.5-.72-.06-.06-.51.73Z" transform="translate(0 13.33)"/><path class="cls-3" d="M245.77,200.66a14.14,14.14,0,0,1-1.61,1.08c-.18.09-.54-.19-1.31-.48l2.94-.57Z" transform="translate(0 13.33)"/><path class="cls-3" d="M244.53,199.26a1.73,1.73,0,0,1,2-.68c.07,0,.09.27.17.52l-2.18.13Z" transform="translate(0 13.33)"/><path class="cls-3" d="M256.61,194.7a3.32,3.32,0,0,1-2.37.73c.88-.56,1.43-1.24,2.36-.68Z" transform="translate(0 13.33)"/><path class="cls-3" d="M264.79,193.65a.5.5,0,0,1,0,.21.88.88,0,0,1-.12.21.91.91,0,0,1-.05-.27C264.64,193.74,264.74,193.7,264.79,193.65Z" transform="translate(0 13.33)"/><path class="cls-3" d="M250,197.11a3.22,3.22,0,0,1-.49.54s-.22-.09-.34-.14a2,2,0,0,1,.39-.52C249.64,196.94,249.84,197.06,250,197.11Z" transform="translate(0 13.33)"/><path class="cls-3" d="M270.69,190.89l-.36.29c0-.13-.15-.29-.11-.39s.21-.23.32-.34Z" transform="translate(0 13.33)"/><path class="cls-3" d="M252.44,196.16c0-.06,0-.15.06-.15a.5.5,0,0,1,.21,0c0,.06,0,.16,0,.17A.91.91,0,0,1,252.44,196.16Z" transform="translate(0 13.33)"/><path class="cls-3" d="M252.41,200.41a1.36,1.36,0,0,1-.27.11s-.06-.09-.09-.13Z" transform="translate(0 13.33)"/><path class="cls-3" d="M256.6,194.75l.18-.11-.17.06Z" transform="translate(0 13.33)"/><path class="cls-3" d="M245.79,200.69l.14-.14-.16.11Z" transform="translate(0 13.33)"/><path class="cls-3" d="M251.28,188.06c.22-.23.4-.55.67-.68,1.85-.93,3.71-1.84,5.6-2.69.85-.38,1.77-.61,2.65-.91.3.59-.16.57-.42.69-2.1,1-4.19,2-6.32,3a15.11,15.11,0,0,1-2.22.59Z" transform="translate(0 13.33)"/><path class="cls-3" d="M251.24,188c-.46,1-1.38,1-2.25,1.12.49-1,1.48-.84,2.29-1.08Z" transform="translate(0 13.33)"/><path class="cls-3" d="M245.21,188.38l-.4-.16c.12-.09.24-.23.37-.25s.27.1.41.15Z" transform="translate(0 13.33)"/><path class="cls-3" d="M238.62,182.53a4.08,4.08,0,0,1-.17.42s-.13,0-.2,0l.44-.35Z" transform="translate(0 13.33)"/><path class="cls-3" d="M244,185.8a.71.71,0,0,1-.18.08s0-.08-.06-.12a.51.51,0,0,1,.17-.07S244,185.76,244,185.8Z" transform="translate(0 13.33)"/><path class="cls-3" d="M236.31,194.19l-.62.09Z" transform="translate(0 13.33)"/><path class="cls-3" d="M204.58,106.46l-.15.14.13-.09Z" transform="translate(0 13.33)"/><path class="cls-3" d="M200.35,119.48l-.12-.18.07.14Z" transform="translate(0 13.33)"/><path class="cls-3" d="M264.12,208.91l.05-.07Z" transform="translate(0 13.33)"/><path class="cls-3" d="M255.67,215l-.21-.13,0,.17.13-.07Z" transform="translate(0 13.33)"/><path class="cls-3" d="M235.55,223.11c0-.2-.07-.4-.1-.59C236,222.63,235.76,222.87,235.55,223.11Z" transform="translate(0 13.33)"/><path class="cls-3" d="M463.54,105.86c.09.12.19.23.27.36s-.06.1-.1.15l-.12-.57Z" transform="translate(0 13.33)"/><polygon class="cls-3" points="462.63 122.06 462.58 122.21 462.52 122.06 462.63 122.06"/><path class="cls-3" d="M204.78,97.5l-1.05.09C204,97.08,204.38,97,204.78,97.5Z" transform="translate(0 13.33)"/><path class="cls-3" d="M269.68,202.36c-.32.93-1,.81-1.76.92C268.46,202.68,268.85,202.12,269.68,202.36Z" transform="translate(0 13.33)"/><path class="cls-3" d="M196.83,125.58c0,.38.08.71.13,1.14C196.17,126.39,196.2,126.06,196.83,125.58Z" transform="translate(0 13.33)"/><path class="cls-3" d="M420.05,141.2l0,.18.15-.24-.16.09Z" transform="translate(0 13.33)"/><path class="cls-3" d="M199.68,142.54l0,0Z" transform="translate(0 13.33)"/><path class="cls-3" d="M199.64,142.51l.22.14,0-.18-.16.07Z" transform="translate(0 13.33)"/></g></svg>